<?xml version="1.0" standalone="no"?><!DOCTYPE svg PUBLIC "-//W3C//DTD SVG 1.1//EN" "http://www.w3.org/Graphics/SVG/1.1/DTD/svg11.dtd"><svg t="1610349608580" class="icon" viewBox="0 0 1024 1024" version="1.1" xmlns="http://www.w3.org/2000/svg" p-id="6333" xmlns:xlink="http://www.w3.org/1999/xlink" width="200" height="200"><defs><style type="text/css"></style></defs><path d="M234.666667 533.354667V874.666667a21.333333 21.333333 0 0 0 21.333333 21.333333h512c11.733333 0 21.333333-9.6 21.333333-21.354667V533.333333a21.333333 21.333333 0 0 0-21.333333-21.333333H256c-11.733333 0-21.333333 9.6-21.333333 21.354667zM256 426.666667v-128c0-141.397333 114.602667-256 256-256 141.418667 0 256 114.56 256 256v128a106.666667 106.666667 0 0 1 106.666667 106.688V874.666667a106.730667 106.730667 0 0 1-106.666667 106.666666H256a106.666667 106.666667 0 0 1-106.666667-106.688V533.333333a106.730667 106.730667 0 0 1 106.666667-106.666666z m85.333333 0h341.333334v-128c0-94.314667-76.373333-170.666667-170.666667-170.666667a170.666667 170.666667 0 0 0-170.666667 170.666667v128z" p-id="6334"></path></svg>