<?xml version="1.0" standalone="no"?><!DOCTYPE svg PUBLIC "-//W3C//DTD SVG 1.1//EN" "http://www.w3.org/Graphics/SVG/1.1/DTD/svg11.dtd"><svg t="1607653380619" class="icon" viewBox="0 0 1024 1024" version="1.1" xmlns="http://www.w3.org/2000/svg" p-id="14630" xmlns:xlink="http://www.w3.org/1999/xlink" width="64" height="64"><defs><style type="text/css"></style></defs><path d="M513.215176 194.259332l272.659937 318.108035-272.659937 318.107011c-3.953032 4.609994-5.886057 10.262738-5.886057 15.886829 0.00614 6.887874 2.895957 13.728676 8.531304 18.561751 10.246365 8.776897 25.665543 7.593955 34.44244-2.651386L850.22777 512.367367 550.309002 162.463162c-8.783037-10.245342-24.202215-11.428284-34.44858-2.65241C505.620198 168.593789 504.432139 184.013991 513.215176 194.259332L513.215176 194.259332zM513.215176 194.259332" p-id="14631"></path><path d="M216.304929 862.271572l299.917744-349.904205L216.304929 162.463162c-8.78406-10.245342-24.205285-11.428284-34.450626-2.65241-10.238179 8.783037-11.42726 24.204262-2.644223 34.449603l272.66096 318.108035L179.21008 830.474378c-3.953032 4.609994-5.886057 10.262738-5.886057 15.886829 0 6.887874 2.89698 13.728676 8.53028 18.561751C192.099644 873.699855 207.520869 872.516914 216.304929 862.271572L216.304929 862.271572zM216.304929 862.271572" p-id="14632"></path></svg>