<?xml version="1.0" standalone="no"?><!DOCTYPE svg PUBLIC "-//W3C//DTD SVG 1.1//EN" "http://www.w3.org/Graphics/SVG/1.1/DTD/svg11.dtd"><svg t="1607652725953" class="icon" viewBox="0 0 1024 1024" version="1.1" xmlns="http://www.w3.org/2000/svg" p-id="7158" xmlns:xlink="http://www.w3.org/1999/xlink" width="64" height="64"><defs><style type="text/css"></style></defs><path d="M943.492019 133.64734a328.197266 328.197266 0 0 1-233.459911 21.992601c-5.49815 0-10.573366-2.960542-15.648581-5.075216a321.853247 321.853247 0 0 1-118.844629-71.053016A332.003678 332.003678 0 0 1 513.790444 0h-2.960543A325.659658 325.659658 0 0 1 227.040771 165.790371h-29.605424A321.007377 321.007377 0 0 1 79.013653 130.263863v481.299599c0 89.66214 68.515409 173.403195 150.98766 241.072734 6.344019 5.49815 13.110973 10.573366 19.877927 15.648581s19.877927 15.225646 30.028358 22.415535l30.028358 21.146731 30.028358 19.454993 19.877928 11.842169a1348.315572 1348.315572 0 0 0 150.987659 79.088774s432.239183-184.822429 432.239183-410.669517zM713.415585 369.644859a32.143031 32.143031 0 0 1 10.9963-7.612823 38.487051 38.487051 0 0 1 26.644881-2.114673 35.526508 35.526508 0 0 1 16.917385 9.727496 38.487051 38.487051 0 0 1 0 54.558566l-239.380996 239.380995a32.565966 32.565966 0 0 1-11.842169 8.035758h-2.537608a38.487051 38.487051 0 0 1-25.799012 0 38.909985 38.909985 0 0 1-19.877927-16.071515L332.774426 521.478388a38.909985 38.909985 0 0 1 0-51.598024 35.949443 35.949443 0 0 1 13.956842-10.150431 33.411835 33.411835 0 0 1 9.304562-2.537608 42.293462 42.293462 0 0 1 16.49445 0 36.372377 36.372377 0 0 1 16.494451 9.727497l114.192347 114.192347z"  p-id="7159"></path></svg>