<?xml version="1.0" standalone="no"?><!DOCTYPE svg PUBLIC "-//W3C//DTD SVG 1.1//EN"
        "http://www.w3.org/Graphics/SVG/1.1/DTD/svg11.dtd"><svg viewBox="0 0 1024 1024" version="1.1" xmlns="http://www.w3.org/2000/svg" xmlns:xlink="http://www.w3.org/1999/xlink"><path transform="scale(1, -1) translate(0, -1024)" d="M640.938667 512.64a28.885333 28.885333 0 0 0 0-40.832L548.821333 379.733333a28.885333 28.885333 0 1 0-40.832 40.832l92.117334 92.074667a28.885333 28.885333 0 0 0 40.832 0zM841.472 714.026667a28.885333 28.885333 0 0 0 7.168-30.037334l-211.541333-618.666666a28.885333 28.885333 0 0 0-55.338667 2.346666l-77.013333 307.626667-307.584 59.52a28.885333 28.885333 0 0 0-4.565334 55.381333l618.666667 230.186667a28.885333 28.885333 0 0 0 30.208-6.4zM309.12 471.978667l224.64-43.52c11.008-2.133333 19.797333-10.410667 22.528-21.333334l57.770667-230.698666 160.256 468.608L309.12 471.978667z"/></svg>