<?xml version="1.0" standalone="no"?><!DOCTYPE svg PUBLIC "-//W3C//DTD SVG 1.1//EN"
        "http://www.w3.org/Graphics/SVG/1.1/DTD/svg11.dtd"><svg viewBox="0 0 1024 1024" version="1.1" xmlns="http://www.w3.org/2000/svg" xmlns:xlink="http://www.w3.org/1999/xlink"><path transform="scale(1, -1) translate(0, -1024)" d="M368.298667 774.101333a28.885333 28.885333 0 0 0 40.832 0l103.210666-103.210666 103.168 103.210666a28.885333 28.885333 0 0 0 40.832-40.832L580.992 657.92h240.341333c15.36 0 27.818667-12.458667 27.818667-27.818667v-124.245333c0-15.36-12.458667-27.861333-27.818667-27.861333h-18.517333v-45.44a27.818667 27.818667 0 1 0-55.68 0V477.994667H277.504v-315.136h165.717333a27.861333 27.861333 0 0 0 0-55.68H249.685333a27.818667 27.818667 0 0 0-27.861333 27.861333V477.994667H202.666667a27.861333 27.861333 0 0 0-27.861334 27.861333V630.101333c0 15.36 12.501333 27.818667 27.861334 27.818667h240.981333L368.298667 733.269333a28.885333 28.885333 0 0 0 0 40.832z m136.362666-171.861333H230.485333v-68.565333h562.986667V602.24h-273.450667a29.013333 29.013333 0 0 0-15.36 0zM693.333333 395.349333a32 32 0 0 0 32-32v-20.650666c6.784-2.005333 13.312-4.650667 19.456-7.850667l19.2 19.157333a32 32 0 1 0 45.226667-45.269333l-18.346667-18.346667c4.096-7.210667 7.424-14.933333 9.813334-23.04h20.650666a32 32 0 0 0 0-64h-20.650666a111.36 111.36 0 0 0-8.789334-21.290666l22.016-22.016a32 32 0 0 0-45.226666-45.226667l-22.058667 22.016A111.018667 111.018667 0 0 0 725.333333 128v-20.650667a32 32 0 0 0-64 0V128a111.488 111.488 0 0 0-23.04 9.813333l-23.04-23.04a32 32 0 0 0-45.226666 45.269334l23.808 23.808a111.36 111.36 0 0 0-7.850667 19.498666h-20.650667a32 32 0 0 0 0 64h20.650667c2.218667 7.466667 5.162667 14.592 8.832 21.333334l-20.096 20.053333a32 32 0 0 0 45.226667 45.226667l20.096-20.053334c6.741333 3.626667 13.866667 6.570667 21.333333 8.789334v20.650666a32 32 0 0 0 32 32z m0.597334-208a48 48 0 1 1-1.194667 0h1.194667z"/></svg>