<?xml version="1.0" standalone="no"?><!DOCTYPE svg PUBLIC "-//W3C//DTD SVG 1.1//EN"
        "http://www.w3.org/Graphics/SVG/1.1/DTD/svg11.dtd"><svg viewBox="0 0 1024 1024" version="1.1" xmlns="http://www.w3.org/2000/svg" xmlns:xlink="http://www.w3.org/1999/xlink"><path transform="scale(1, -1) translate(0, -1024)" d="M681.984 375.381333a32 32 0 0 0 32-32v-20.608c6.826667-2.048 13.312-4.693333 19.498667-7.893333l19.114666 19.157333a32 32 0 1 0 45.226667-45.226666l-18.304-18.346667c4.096-7.253333 7.424-14.933333 9.813333-23.04h20.650667a32 32 0 0 0 0-64H789.333333a111.658667 111.658667 0 0 0-8.789333-21.333333l22.016-22.016a32 32 0 1 0-45.226667-45.226667l-22.058666 22.016a111.573333 111.573333 0 0 0-21.290667-8.832v-20.608a32 32 0 0 0-64 0v20.608a111.274667 111.274667 0 0 0-23.04 9.813333l-23.04-23.04a32 32 0 1 0-45.226667 45.269334l23.808 23.850666a111.445333 111.445333 0 0 0-7.850666 19.498667h-20.650667a32 32 0 0 0 0 64h20.650667c2.218667 7.424 5.162667 14.549333 8.832 21.248l-20.096 20.096a32 32 0 1 0 45.226666 45.226667l20.096-20.053334c6.741333 3.626667 13.866667 6.613333 21.333334 8.832v20.608a32 32 0 0 0 32 32zM682.666667 167.424a48 48 0 1 1-1.322667 0H682.666667zM500.906667 708.608a27.733333 27.733333 0 0 0 22.186666 0l266.666667-116.650667a27.733333 27.733333 0 0 0 16.64-25.429333v-136.618667a27.733333 27.733333 0 1 0-55.466667 0V548.394667L512 652.928l-238.933333-104.533333v-418.133334h115.456V399.36h-20.096a27.733333 27.733333 0 1 0 0 55.466667h244.48a27.733333 27.733333 0 0 0 0-55.466667h-168.917334v-269.141333h26.666667a27.733333 27.733333 0 0 0 0-55.466667H245.333333a27.733333 27.733333 0 0 0-27.733333 27.733333V566.528a27.733333 27.733333 0 0 0 16.64 25.429333l266.666667 116.650667z"/></svg>