<?xml version="1.0" standalone="no"?><!DOCTYPE svg PUBLIC "-//W3C//DTD SVG 1.1//EN"
        "http://www.w3.org/Graphics/SVG/1.1/DTD/svg11.dtd"><svg viewBox="0 0 1024 1024" version="1.1" xmlns="http://www.w3.org/2000/svg" xmlns:xlink="http://www.w3.org/1999/xlink"><path transform="scale(1, -1) translate(0, -1024)" d="M429.738667 580.821333c10.965333-4.266667 18.176-14.933333 18.176-26.709333v-141.397333h56.32a28.714667 28.714667 0 1 0 0-57.472H419.242667A28.714667 28.714667 0 0 0 390.485333 384V481.28l-149.12-159.786667 149.12-170.410666V260.266667c0 15.872 12.842667 28.714667 28.714667 28.714666h77.354667a28.714667 28.714667 0 1 0 0-57.472h-48.64v-156.842666a28.714667 28.714667 0 0 0-50.346667-18.944l-216.533333 247.466666a28.714667 28.714667 0 0 0 0.64 38.528l216.533333 232.021334a28.714667 28.714667 0 0 0 31.530667 7.082666zM578.346667 719.872a28.714667 28.714667 0 0 0 31.317333-6.229333l231.978667-231.978667a28.714667 28.714667 0 0 0 0-40.618667l-231.978667-232.021333a28.714667 28.714667 0 0 0-49.066667 20.309333v125.952h-56.32a28.714667 28.714667 0 1 0 0 57.429334h85.034667c15.872 0 28.757333-12.842667 28.757333-28.714667v-85.333333l162.645334 162.688-162.645334 162.645333V507.733333a28.714667 28.714667 0 0 0-28.757333-28.714666H512a28.714667 28.714667 0 0 0 0 57.429333h48.64V693.333333c0 11.605333 6.954667 22.101333 17.706667 26.538667z"/></svg>