<?xml version="1.0" standalone="no"?><!DOCTYPE svg PUBLIC "-//W3C//DTD SVG 1.1//EN"
        "http://www.w3.org/Graphics/SVG/1.1/DTD/svg11.dtd"><svg viewBox="0 0 1024 1024" version="1.1" xmlns="http://www.w3.org/2000/svg" xmlns:xlink="http://www.w3.org/1999/xlink"><path transform="scale(1, -1) translate(0, -1024)" d="M386.218667 687.573333A327.68 327.68 0 0 0 512 712.533333a328.106667 328.106667 0 0 0 268.8-139.605333V649.472a29.866667 29.866667 0 1 0 59.733333 0v-265.514667A29.866667 29.866667 0 1 0 780.8 384 268.8 268.8 0 0 1 288.426667 533.333333a29.866667 29.866667 0 0 0-49.621334 33.237334 329.984 329.984 0 0 0 147.413334 121.002666zM243.2 383.232V384a29.866667 29.866667 0 0 1-29.866667 29.866667 29.866667 29.866667 0 0 1-29.866666-29.866667V118.528a29.866667 29.866667 0 1 1 59.733333 0v76.544A328.106667 328.106667 0 0 1 512 55.466667a327.594667 327.594667 0 0 1 232.32 96.213333c15.146667 15.189333 28.885333 31.872 40.874667 49.749333a29.866667 29.866667 0 1 1-49.664 33.28 270.250667 270.250667 0 0 0-120.661334-99.114666A268.8 268.8 0 0 0 243.2 383.232zM512 544a32 32 0 0 0 32-32v-20.650667c6.784-2.005333 13.312-4.650667 19.498667-7.850666l19.114666 19.157333a32 32 0 1 0 45.226667-45.269333l-18.304-18.346667c4.096-7.210667 7.424-14.933333 9.813333-23.04H640a32 32 0 1 0 0-64h-20.650667a111.232 111.232 0 0 0-8.832-21.290667l22.058667-22.016a32 32 0 1 0-45.226667-45.226666l-22.058666 21.973333a111.274667 111.274667 0 0 0-21.290667-8.789333V256a32 32 0 1 0-64 0v20.650667a111.274667 111.274667 0 0 0-23.04 9.813333l-23.04-23.04a32 32 0 0 0-45.226667 45.226667l23.808 23.893333a111.189333 111.189333 0 0 0-7.850666 19.456H384a32 32 0 1 0 0 64h20.650667c2.218667 7.466667 5.162667 14.592 8.832 21.290667l-20.096 20.053333a32 32 0 0 0 45.226666 45.312l20.096-20.096c6.741333 3.626667 13.866667 6.570667 21.333334 8.789333V512a32 32 0 0 0 32 32z m0.597333-208a48 48 0 1 1-1.194666 0h1.194666z"/></svg>