<?xml version="1.0" standalone="no"?><!DOCTYPE svg PUBLIC "-//W3C//DTD SVG 1.1//EN"
        "http://www.w3.org/Graphics/SVG/1.1/DTD/svg11.dtd"><svg viewBox="0 0 1024 1024" version="1.1" xmlns="http://www.w3.org/2000/svg" xmlns:xlink="http://www.w3.org/1999/xlink"><path transform="scale(1, -1) translate(0, -1024)" d="M853.333333 519.253333a29.866667 29.866667 0 0 0 29.866667-29.866666v-149.76a29.866667 29.866667 0 1 0-59.733333 0V489.386667a29.866667 29.866667 0 0 0 29.866666 29.866666zM523.093333 655.274667a29.866667 29.866667 0 0 1-22.186666 0l-341.333334-136.362667a29.866667 29.866667 0 0 1 0-55.466667l136.362667-54.485333v-191.658667a29.866667 29.866667 0 0 1 8.96-21.290666l20.906667 21.290666-20.906667-21.290666 0.042667-0.085334 0.085333-0.085333 0.298667-0.256 0.938666-0.896 3.2-2.944c2.730667-2.432 6.613333-5.802667 11.605334-9.813333 9.941333-7.893333 24.277333-18.389333 42.282666-28.885334 35.84-20.821333 87.594667-42.453333 148.650667-42.453333s112.853333 21.632 148.650667 42.453333a349.866667 349.866667 0 0 1 53.888 38.698667l3.2 2.944 0.938666 0.853333 0.256 0.298667 0.128 0.085333v0.042667c0.042667 0 0.085333 0.042667-20.906666 21.333333l20.992-21.290666a29.866667 29.866667 0 0 1 8.917333 21.290666v191.658667l136.362667 54.485333a29.866667 29.866667 0 0 1 0 55.466667l-341.333334 136.362667z m145.237334-270.208v-154.282667l-2.688-2.133333c-8.106667-6.485333-20.053333-15.232-35.029334-23.978667-30.293333-17.578667-71.594667-34.346667-118.613333-34.346667-47.018667 0-88.32 16.768-118.613333 34.346667a290.432 290.432 0 0 0-37.717334 26.112v154.282667l145.237334-58.026667a29.866667 29.866667 0 0 1 22.186666 0l145.237334 58.026667zM512 386.986667L251.178667 491.178667 512 595.370667l260.821333-104.192L512 386.944z"/></svg>