<?xml version="1.0" standalone="no"?><!DOCTYPE svg PUBLIC "-//W3C//DTD SVG 1.1//EN"
        "http://www.w3.org/Graphics/SVG/1.1/DTD/svg11.dtd"><svg viewBox="0 0 1024 1024" version="1.1" xmlns="http://www.w3.org/2000/svg" xmlns:xlink="http://www.w3.org/1999/xlink"><path transform="scale(1, -1) translate(0, -1024)" d="M839.4752 637.5424a28.672 28.672 0 1 1-40.5504 40.5504l-76.71808-76.75904-28.2624 28.2624a28.672 28.672 0 1 1-40.5504-40.5504l48.5376-48.5376a28.672 28.672 0 0 1 40.5504 0l96.99328 97.03424zM839.4752 411.15648a28.672 28.672 0 1 1-40.5504 40.5504l-76.71808-76.71808-28.2624 28.22144a28.672 28.672 0 1 1-40.5504-40.5504l48.5376-48.49664a28.672 28.672 0 0 1 40.5504 0l96.99328 96.99328zM560.49664 638.976a29.696 29.696 0 0 0 0-59.392H204.8a29.696 29.696 0 0 0 0 59.392h355.69664zM590.2336 382.93504c0 16.384-13.312 29.696-29.73696 29.696H204.8a29.696 29.696 0 0 1 0-59.392h355.69664c16.384 0 29.696 13.312 29.696 29.696zM822.39488 156.59008c0-16.384-13.312-29.696-29.73696-29.696H204.8a29.696 29.696 0 0 0 0 59.392h587.85792c16.384 0 29.73696-13.312 29.73696-29.696z"/></svg>