<?xml version="1.0" standalone="no"?><!DOCTYPE svg PUBLIC "-//W3C//DTD SVG 1.1//EN"
        "http://www.w3.org/Graphics/SVG/1.1/DTD/svg11.dtd"><svg viewBox="0 0 1024 1024" version="1.1" xmlns="http://www.w3.org/2000/svg" xmlns:xlink="http://www.w3.org/1999/xlink"><path transform="scale(1, -1) translate(0, -1024)" d="M183.466667 476.074667A194.133333 194.133333 0 0 0 512 616.106667a194.133333 194.133333 0 0 0 328.533333-140.074667c0-93.610667-54.826667-179.2-118.784-243.754667-64.213333-64.853333-142.805333-113.834667-200.32-132.949333a29.866667 29.866667 0 0 0-18.858666 0c-57.514667 19.114667-136.106667 68.053333-200.32 132.949333C238.293333 296.874667 183.466667 382.464 183.466667 476.074667z m194.133333 134.4a134.4 134.4 0 0 1-134.4-134.4c0-70.656 42.24-141.909333 101.504-201.728 55.125333-55.722667 120.618667-97.024 167.296-114.901334 46.677333 17.92 112.170667 59.221333 167.296 114.901334 59.306667 59.818667 101.504 131.072 101.504 201.728a134.4 134.4 0 0 1-244.394667 77.226666 29.866667 29.866667 0 0 0-48.810666 0 134.229333 134.229333 0 0 1-109.994667 57.173334zM699.562667 433.706667a25.6 25.6 0 0 0 11.178666-34.432c-27.050667-53.034667-75.733333-114.901333-145.706666-155.306667a25.6 25.6 0 0 0-25.6 44.288c59.690667 34.517333 102.144 88.106667 125.696 134.272a25.6 25.6 0 0 0 34.432 11.178667z"/></svg>