<?xml version="1.0" standalone="no"?><!DOCTYPE svg PUBLIC "-//W3C//DTD SVG 1.1//EN"
        "http://www.w3.org/Graphics/SVG/1.1/DTD/svg11.dtd"><svg viewBox="0 0 1024 1024" version="1.1" xmlns="http://www.w3.org/2000/svg" xmlns:xlink="http://www.w3.org/1999/xlink"><path transform="scale(1, -1) translate(0, -1024)" d="M694.528 357.504a27.136 27.136 0 0 0 38.4 0l75.605333-75.605333a27.093333 27.093333 0 0 0 0.597334-38.997334 27.093333 27.093333 0 0 0-20.181334-7.936h-212.352a27.136 27.136 0 0 0 0 54.314667h147.754667l-29.824 29.824a27.136 27.136 0 0 0 0 38.4zM549.418667 170.666667c0 3.712 0.768 7.210667 2.090666 10.410666l5.888 8.789334a27.050667 27.050667 0 0 0 19.2 7.978666h213.333334a27.136 27.136 0 0 0 0-54.314666H642.133333l29.866667-29.866667a27.136 27.136 0 1 0-38.4-38.4l-76.202667 76.202667a27.050667 27.050667 0 0 0-7.978666 19.2zM500.906667 708.608a27.733333 27.733333 0 0 0 22.186666 0l266.666667-116.650667a27.733333 27.733333 0 0 0 16.64-25.429333v-136.618667a27.733333 27.733333 0 1 0-55.466667 0V548.394667L512 652.928l-238.933333-104.533333v-418.133334h115.456V399.36h-20.096a27.733333 27.733333 0 1 0 0 55.466667h244.48a27.733333 27.733333 0 0 0 0-55.466667h-168.917334v-269.141333h26.666667a27.733333 27.733333 0 0 0 0-55.466667H245.333333a27.733333 27.733333 0 0 0-27.733333 27.733333V566.528a27.733333 27.733333 0 0 0 16.64 25.429333l266.666667 116.650667z"/></svg>