<?xml version="1.0" standalone="no"?><!DOCTYPE svg PUBLIC "-//W3C//DTD SVG 1.1//EN"
        "http://www.w3.org/Graphics/SVG/1.1/DTD/svg11.dtd"><svg viewBox="0 0 1024 1024" version="1.1" xmlns="http://www.w3.org/2000/svg" xmlns:xlink="http://www.w3.org/1999/xlink"><path transform="scale(1, -1) translate(0, -1024)" d="M789.333333 647.125333a32 32 0 0 0 32-32v-375.722666l50.346667 58.752a32 32 0 0 0 48.64-41.642667l-106.666667-124.458667a32 32 0 0 0-56.32 20.821334V615.125333a32 32 0 0 0 32 32zM224 615.125333a32 32 0 0 0 32 32h408.874667a32 32 0 0 0 0-64H256a32 32 0 0 0-32 32zM224 384a32 32 0 0 0 32 32h408.874667a32 32 0 0 0 0-64H256a32 32 0 0 0-32 32zM256 184.874667a32 32 0 0 1 0-64h408.874667a32 32 0 0 1 0 64H256z"/></svg>