<?xml version="1.0" standalone="no"?><!DOCTYPE svg PUBLIC "-//W3C//DTD SVG 1.1//EN"
        "http://www.w3.org/Graphics/SVG/1.1/DTD/svg11.dtd"><svg viewBox="0 0 1024 1024" version="1.1" xmlns="http://www.w3.org/2000/svg" xmlns:xlink="http://www.w3.org/1999/xlink"><path transform="scale(1, -1) translate(0, -1024)" d="M391.253333 562.645333a21.845333 21.845333 0 0 1-21.888-21.845333v-198.4c0-12.074667 9.813333-21.888 21.888-21.888h363.733334c12.074667 0 21.845333 9.813333 21.845333 21.888v198.4a21.845333 21.845333 0 0 1-21.845333 21.845333H391.253333z m-77.354666-21.845333c0 42.666667 34.645333 77.312 77.354666 77.312h363.733334c42.666667 0 77.312-34.602667 77.312-77.312v-198.4a77.312 77.312 0 0 0-77.312-77.354667H391.253333a77.354667 77.354667 0 0 0-77.354666 77.354667v198.4zM716.586667 441.6a27.733333 27.733333 0 0 0-27.733334-27.733333h-231.210666a27.733333 27.733333 0 1 0 0 55.466666h231.210666a27.733333 27.733333 0 0 0 27.733334-27.733333zM115.498667 640a27.733333 27.733333 0 0 0 27.733333 27.733333h66.133333c33.578667 0 60.8-27.221333 60.8-60.8v-380.245333c0-2.986667 2.389333-5.376 5.333334-5.376H804.565333a27.733333 27.733333 0 1 0 0-55.466667h-38.4v-21.845333a77.312 77.312 0 1 0-154.666666 0v21.845333h-142.933334v-21.845333a77.312 77.312 0 1 0-154.666666 0v21.845333h-38.4a60.8 60.8 0 0 0-60.8 60.8V606.976a5.333333 5.333333 0 0 1-5.333334 5.333333h-66.133333a27.733333 27.733333 0 0 0-27.733333 27.733334z m551.466666-474.154667v-21.845333a21.845333 21.845333 0 1 1 43.733334 0v21.845333h-43.733334z m-253.866666 0H369.365333v-21.845333a21.845333 21.845333 0 1 1 43.733334 0v21.845333z"/></svg>