<?xml version="1.0" standalone="no"?><!DOCTYPE svg PUBLIC "-//W3C//DTD SVG 1.1//EN"
        "http://www.w3.org/Graphics/SVG/1.1/DTD/svg11.dtd"><svg viewBox="0 0 1024 1024" version="1.1" xmlns="http://www.w3.org/2000/svg" xmlns:xlink="http://www.w3.org/1999/xlink"><path transform="scale(1, -1) translate(0, -1024)" d="M217.088 618.12736c0 43.70432 35.4304 79.13472 79.17568 79.13472h431.47264c43.74528 0 79.17568-35.4304 79.17568-79.13472v-204.63616a28.672 28.672 0 1 0-57.344 0V618.12736a21.83168 21.83168 0 0 1-21.83168 21.79072H296.26368a21.83168 21.83168 0 0 1-21.83168-21.79072v-468.21376c0-12.0832 9.78944-21.83168 21.83168-21.83168H512a28.672 28.672 0 1 0 0-57.344H296.26368A79.17568 79.17568 0 0 0 217.088 149.9136V618.0864zM328.13056 518.63552a28.672 28.672 0 0 0 28.672 28.672h310.39488a28.672 28.672 0 1 0 0-57.344H356.7616a28.672 28.672 0 0 0-28.672 28.672zM356.51584 412.672a28.672 28.672 0 1 1 0.57344-57.344l111.49312 1.10592a28.672 28.672 0 1 1-0.53248 57.344l-111.53408-1.10592zM627.58912 345.94816a24.576 24.576 0 1 1-37.72416-31.45728l35.2256-42.31168h-30.14656a24.576 24.576 0 0 1 0-49.152h58.04032v-33.46432h-58.04032a24.576 24.576 0 0 1 0-49.152h58.04032v-41.00096a24.576 24.576 0 0 1 49.152 0v40.96h58.08128a24.576 24.576 0 1 1 0 49.152h-58.08128v33.50528h58.08128a24.576 24.576 0 1 1 0 49.152h-30.14656l35.2256 42.31168a24.576 24.576 0 0 1-37.72416 31.45728l-49.9712-59.96544-49.9712 59.96544z"/></svg>