<?xml version="1.0" standalone="no"?><!DOCTYPE svg PUBLIC "-//W3C//DTD SVG 1.1//EN"
        "http://www.w3.org/Graphics/SVG/1.1/DTD/svg11.dtd"><svg viewBox="0 0 1024 1024" version="1.1" xmlns="http://www.w3.org/2000/svg" xmlns:xlink="http://www.w3.org/1999/xlink"><path transform="scale(1, -1) translate(0, -1024)" d="M191.146667 624.64a27.733333 27.733333 0 0 0 38.826666 5.546667L512 418.688l282.026667 211.498667a27.733333 27.733333 0 1 0 33.28-44.373334l-298.666667-224a27.733333 27.733333 0 0 0-33.28 0l-298.666667 224a27.733333 27.733333 0 0 0-5.546666 38.826667zM185.6 608A27.733333 27.733333 0 0 0 213.333333 635.733333h597.333334a27.733333 27.733333 0 0 0 27.733333-27.733333v-448a27.733333 27.733333 0 0 0-27.733333-27.733333H213.333333a27.733333 27.733333 0 0 0-27.733333 27.733333V608z m597.333333-27.733333H241.066667v-392.533334h541.866666V580.266667z"/></svg>