<?xml version="1.0" standalone="no"?><!DOCTYPE svg PUBLIC "-//W3C//DTD SVG 1.1//EN"
        "http://www.w3.org/Graphics/SVG/1.1/DTD/svg11.dtd"><svg viewBox="0 0 1024 1024" version="1.1" xmlns="http://www.w3.org/2000/svg" xmlns:xlink="http://www.w3.org/1999/xlink"><path transform="scale(1, -1) translate(0, -1024)" d="M240.469333 671.786667a29.866667 29.866667 0 0 0 29.866667-29.866667V563.2h78.762667a29.866667 29.866667 0 1 0 0-59.733333H240.469333a29.866667 29.866667 0 0 0-29.866666 29.866666V641.92a29.866667 29.866667 0 0 0 29.866666 29.866667zM227.456 548.266667A328.533333 328.533333 0 1 0 183.466667 384a29.866667 29.866667 0 1 0 59.733333 0 268.8 268.8 0 1 1 35.968 134.4 29.866667 29.866667 0 0 0-51.712 29.952zM512.085333 548.224a29.866667 29.866667 0 0 0 29.866667-29.866667v-122.112l86.186667-86.229333a29.866667 29.866667 0 1 0-42.24-42.24l-94.976 94.976a29.866667 29.866667 0 0 0-8.746667 21.12V518.357333a29.866667 29.866667 0 0 0 29.866667 29.866667z"/></svg>