<?xml version="1.0" standalone="no"?><!DOCTYPE svg PUBLIC "-//W3C//DTD SVG 1.1//EN"
        "http://www.w3.org/Graphics/SVG/1.1/DTD/svg11.dtd"><svg viewBox="0 0 1024 1024" version="1.1" xmlns="http://www.w3.org/2000/svg" xmlns:xlink="http://www.w3.org/1999/xlink"><path transform="scale(1, -1) translate(0, -1024)" d="M334.805333 324.48a29.866667 29.866667 0 0 0 0.469334 42.24l87.296 85.162667a29.866667 29.866667 0 0 0 41.728 0l47.573333-46.506667 133.12 133.376a29.866667 29.866667 0 0 0 42.282667-42.197333l-154.026667-154.325334a29.866667 29.866667 0 0 0-41.984-0.256l-47.872 46.805334-66.389333-64.853334a29.866667 29.866667 0 0 0-42.24 0.554667zM202.666667 671.573333a29.866667 29.866667 0 1 1 0-59.733333h16.554666v-403.2a29.866667 29.866667 0 0 1 29.866667-29.866667h190.805333l-72.746666-72.746666a29.866667 29.866667 0 0 1 42.24-42.24L512 166.4l102.613333-102.613333a29.866667 29.866667 0 1 1 42.24 42.24L584.106667 178.773333h190.848a29.866667 29.866667 0 0 1 29.866666 29.866667V611.84h16.512a29.866667 29.866667 0 1 1 0 59.733333H202.666667z m542.378666-59.733333v-373.333333h-232.533333a39.253333 39.253333 0 0 1-1.024 0h-232.533333V611.84h466.090666z"/></svg>