<?xml version="1.0" standalone="no"?><!DOCTYPE svg PUBLIC "-//W3C//DTD SVG 1.1//EN"
        "http://www.w3.org/Graphics/SVG/1.1/DTD/svg11.dtd"><svg viewBox="0 0 1024 1024" version="1.1" xmlns="http://www.w3.org/2000/svg" xmlns:xlink="http://www.w3.org/1999/xlink"><path transform="scale(1, -1) translate(0, -1024)" d="M419.51232 728.064a163.84 163.84 0 1 1 0-327.72096 163.84 163.84 0 0 1 0 327.72096z m-106.496-163.84a106.496 106.496 0 1 0 212.992 0 106.496 106.496 0 0 0-212.992 0zM431.59552 270.04928a28.672 28.672 0 0 1-7.65952 56.85248c-31.58016-4.25984-80.896-13.9264-129.76128-31.17056-47.96416-16.95744-99.81952-42.72128-132.01408-81.5104a28.672 28.672 0 0 1-6.59456-18.30912c0-31.04768 9.17504-58.40896 20.02944-79.4624 10.6496-20.6848 23.92064-36.98688 34.32448-45.8752a28.672 28.672 0 0 1 18.6368-6.9632h228.80256a28.672 28.672 0 1 1 0 57.344H240.76288a125.00992 125.00992 0 0 0-14.21312 21.83168 120.75008 120.75008 0 0 0-13.1072 42.63936c22.9376 23.06048 59.1872 41.86112 99.81952 56.19712 44.31872 15.64672 89.62048 24.576 118.33344 28.42624zM689.60256 253.82912a40.96 40.96 0 1 1 0-81.92 40.96 40.96 0 0 1 0 81.92zM607.68256 378.75712a26.624 26.624 0 0 1-22.9376-13.1072l-81.92-139.264a26.624 26.624 0 0 1 0-27.0336l81.92-139.264a26.624 26.624 0 0 1 22.9376-13.1072h163.84a26.624 26.624 0 0 1 22.9376 13.1072l81.92 139.264a26.624 26.624 0 0 1 0 27.0336l-81.92 139.264a26.624 26.624 0 0 1-22.9376 13.1072h-163.84z m-51.03616-165.888l66.23232 112.64h133.40672l66.23232-112.64-66.23232-112.64h-133.40672l-66.23232 112.64z"/></svg>