<?xml version="1.0" standalone="no"?><!DOCTYPE svg PUBLIC "-//W3C//DTD SVG 1.1//EN"
        "http://www.w3.org/Graphics/SVG/1.1/DTD/svg11.dtd"><svg viewBox="0 0 1024 1024" version="1.1" xmlns="http://www.w3.org/2000/svg" xmlns:xlink="http://www.w3.org/1999/xlink"><path transform="scale(1, -1) translate(0, -1024)" d="M512 380.80512a28.672 28.672 0 0 0 27.40224-20.23424l63.73376-207.09376a28.672 28.672 0 0 0-5.03808-26.33728l-63.73376-79.62624a28.672 28.672 0 0 0-44.76928 0l-63.6928 79.62624a28.672 28.672 0 0 0-5.03808 26.33728l63.73376 207.09376a28.672 28.672 0 0 0 27.40224 20.23424z m-31.86688-229.66272l31.86688-39.81312 31.82592 39.81312L512 254.64832l-31.86688-103.50592zM512 731.25888a156.09856 156.09856 0 1 1 0-312.19712 156.09856 156.09856 0 0 1 0 312.19712zM413.2864 575.16032a98.75456 98.75456 0 1 0 197.50912 0 98.75456 98.75456 0 0 0-197.50912 0zM512 380.80512a315.392 315.392 0 0 1-315.392-315.392 28.672 28.672 0 1 1 57.344 0 258.048 258.048 0 0 0 516.096 0 28.672 28.672 0 1 1 57.344 0 315.392 315.392 0 0 1-315.392 315.392z"/></svg>