<?xml version="1.0" standalone="no"?><!DOCTYPE svg PUBLIC "-//W3C//DTD SVG 1.1//EN"
        "http://www.w3.org/Graphics/SVG/1.1/DTD/svg11.dtd"><svg viewBox="0 0 1024 1024" version="1.1" xmlns="http://www.w3.org/2000/svg" xmlns:xlink="http://www.w3.org/1999/xlink"><path transform="scale(1, -1) translate(0, -1024)" d="M399.445333 304.938667a29.866667 29.866667 0 0 0 29.866667 29.866666h165.376a29.866667 29.866667 0 0 0 29.866667-29.866666v-157.312a29.866667 29.866667 0 1 0-59.733334 0v127.445333h-105.642666v-127.445333a29.866667 29.866667 0 1 0-59.733334 0v157.312zM493.354667 730.794667a29.866667 29.866667 0 0 0 37.290666 0l247.978667-198.4 82.688-66.133334a29.866667 29.866667 0 0 0-37.290667-46.634666l-34.133333 27.306666v-334.677333a29.866667 29.866667 0 0 0-29.866667-29.866667H264.021333a29.866667 29.866667 0 0 0-29.866666 29.866667v334.677333l-34.133334-27.306666a29.866667 29.866667 0 0 0-37.333333 46.634666l82.645333 66.133334 248.021334 198.4zM293.888 494.72v-352.597333h436.266667V494.72L512 669.226667l-218.112-174.506667z"/></svg>