<?xml version="1.0" standalone="no"?><!DOCTYPE svg PUBLIC "-//W3C//DTD SVG 1.1//EN"
        "http://www.w3.org/Graphics/SVG/1.1/DTD/svg11.dtd"><svg viewBox="0 0 1024 1024" version="1.1" xmlns="http://www.w3.org/2000/svg" xmlns:xlink="http://www.w3.org/1999/xlink"><path transform="scale(1, -1) translate(0, -1024)" d="M273.92 697.258667a29.013333 29.013333 0 0 0 29.013333 29.013333h418.133334a29.013333 29.013333 0 0 0 29.013333-29.013333v-238.933334a29.013333 29.013333 0 0 0-29.013333-29.013333H302.933333a29.013333 29.013333 0 0 0-29.013333 29.013333v238.933334z m58.026667-29.013334v-180.906666h360.106666v180.906666H331.946667zM213.333333 487.338667a29.013333 29.013333 0 0 1-29.013333-29.013334v-268.8c0-16 12.970667-29.013333 29.013333-29.013333h75.52v-60.586667c0-16.042667 12.970667-29.013333 29.013334-29.013333h388.266666a29.013333 29.013333 0 0 1 29.013334 29.013333v60.586667H810.666667a29.013333 29.013333 0 0 1 29.013333 29.013333v268.8a29.013333 29.013333 0 0 1-29.013333 29.013334H213.333333z m29.013334-268.8v210.773333h539.306666v-210.773333h-46.250666v60.586666a29.013333 29.013333 0 0 1-29.013334 29.013334H317.568a29.013333 29.013333 0 0 1-29.013333-29.013334v-60.586666H242.346667z m104.533333-89.6v121.173333h330.24v-121.173333H346.88z"/></svg>