<?xml version="1.0" standalone="no"?><!DOCTYPE svg PUBLIC "-//W3C//DTD SVG 1.1//EN"
        "http://www.w3.org/Graphics/SVG/1.1/DTD/svg11.dtd"><svg viewBox="0 0 1024 1024" version="1.1" xmlns="http://www.w3.org/2000/svg" xmlns:xlink="http://www.w3.org/1999/xlink"><path transform="scale(1, -1) translate(0, -1024)" d="M228.266667 596.181333a27.733333 27.733333 0 0 0 27.733333-27.733333H200.533333a27.733333 27.733333 0 0 0 27.733334 27.733333zM256 441.045333V568.448H200.533333v-383.061333c0-25.173333 16.896-43.605333 33.962667-55.722667 17.834667-12.672 41.813333-22.869333 68.906667-31.018667 54.613333-16.384 128.298667-26.112 208.597333-26.112 80.256 0 154.026667 9.728 208.597333 26.112 27.093333 8.106667 51.072 18.346667 68.864 30.976 17.066667 12.16 34.005333 30.592 34.005334 55.765334V568.405333a27.733333 27.733333 0 0 1-55.466667 0v-127.36c-0.170667-0.597333-1.578667-4.394667-10.624-10.837333-10.922667-7.722667-28.501333-15.829333-52.736-23.082667-48.085333-14.464-116.224-23.765333-192.64-23.765333-76.416 0-144.554667 9.301333-192.682667 23.765333-24.192 7.253333-41.813333 15.36-52.693333 23.082667-9.045333 6.4-10.453333 10.24-10.624 10.837333z m0-68.778666c13.994667-6.997333 30.037333-13.056 47.36-18.261334 54.613333-16.384 128.341333-26.112 208.64-26.112 80.256 0 154.026667 9.728 208.597333 26.069334a297.386667 297.386667 0 0 1 47.36 18.304v-58.88c-0.128-0.597333-1.536-4.437333-10.581333-10.837334-10.922667-7.722667-28.501333-15.786667-52.736-23.082666-48.085333-14.464-116.224-23.765333-192.64-23.765334-76.416 0-144.554667 9.301333-192.682667 23.765334-24.192 7.253333-41.813333 15.36-52.693333 23.082666-9.045333 6.4-10.453333 10.24-10.624 10.837334v58.88z m0-186.581334v58.88c13.994667-6.954667 30.037333-13.013333 47.36-18.218666 54.613333-16.384 128.341333-26.112 208.64-26.112 80.256 0 154.026667 9.728 208.597333 26.069333a298.24 298.24 0 0 1 47.36 18.304v-58.88c-0.128-0.64-1.536-4.437333-10.581333-10.837333-10.922667-7.765333-28.501333-15.872-52.736-23.125334C656.554667 137.386667 588.416 128 512 128c-76.416 0-144.554667 9.344-192.682667 23.765333-24.192 7.253333-41.813333 15.36-52.693333 23.125334-9.045333 6.4-10.453333 10.24-10.624 10.794666zM256.128 582.613333c0.426667-1.109333 2.432-4.778667 10.496-10.496 10.88-7.722667 28.501333-15.829333 52.736-23.125333 48.085333-14.421333 116.224-23.765333 192.64-23.765333 76.416 0 144.554667 9.344 192.64 23.765333 24.234667 7.253333 41.813333 15.36 52.736 23.125333 8.106667 5.717333 10.069333 9.386667 10.496 10.496-0.426667 1.152-2.432 4.821333-10.496 10.538667-10.88 7.722667-28.501333 15.829333-52.736 23.082667C656.554667 630.698667 588.416 640 512 640c-76.416 0-144.554667-9.301333-192.64-23.765333-24.234667-7.253333-41.813333-15.36-52.736-23.082667-8.106667-5.717333-10.069333-9.386667-10.496-10.538667zM303.36 669.44C358.016 685.738667 431.744 695.466667 512 695.466667c80.256 0 154.026667-9.728 208.597333-26.069334 27.136-8.149333 51.072-18.389333 68.864-31.018666 17.066667-12.117333 34.005333-30.549333 34.005334-55.765334 0-25.173333-16.896-43.605333-34.005334-55.722666-17.792-12.629333-41.770667-22.869333-68.864-31.018667-54.613333-16.384-128.341333-26.112-208.597333-26.112-80.256 0-154.026667 9.728-208.597333 26.112-27.136 8.106667-51.072 18.346667-68.864 31.018667-17.066667 12.117333-34.005333 30.549333-34.005334 55.722666 0 25.173333 16.896 43.648 34.005334 55.765334 17.792 12.629333 41.728 22.869333 68.864 31.018666z"/></svg>