<?xml version="1.0" standalone="no"?><!DOCTYPE svg PUBLIC "-//W3C//DTD SVG 1.1//EN"
        "http://www.w3.org/Graphics/SVG/1.1/DTD/svg11.dtd"><svg viewBox="0 0 1024 1024" version="1.1" xmlns="http://www.w3.org/2000/svg" xmlns:xlink="http://www.w3.org/1999/xlink"><path transform="scale(1, -1) translate(0, -1024)" d="M678.613333 362.837333c11.264 0 21.461333-6.570667 26.154667-16.810666l35.242667-77.226667 84.309333-9.642667a28.757333 28.757333 0 0 0 16.128-49.749333l-62.506667-57.344 16.853334-83.2a28.757333 28.757333 0 0 0-42.325334-30.72l-73.856 41.728-73.898666-41.728a28.757333 28.757333 0 0 0-42.325334 30.72l16.853334 83.2-62.506667 57.344a28.757333 28.757333 0 0 0 16.170667 49.749333l84.309333 9.685334 35.242667 77.184c4.693333 10.24 14.890667 16.810667 26.154666 16.810666z m0-97.962666l-15.829333-34.688a28.757333 28.757333 0 0 0-22.912-16.64l-37.845333-4.352 28.074666-25.770667c7.424-6.826667 10.752-17.024 8.746667-26.88l-7.594667-37.376 33.194667 18.773333a28.757333 28.757333 0 0 0 28.288 0l33.194667-18.773333-7.552 37.376a28.757333 28.757333 0 0 0 8.704 26.88l28.117333 25.770667-37.888 4.352a28.757333 28.757333 0 0 0-22.869333 16.64l-15.829334 34.688zM279.210667 745.557333c-34.218667 0-61.994667-27.776-61.994667-62.037333v-599.04c0-34.261333 27.733333-62.037333 61.994667-62.037333h199.68a28.757333 28.757333 0 1 1 0 57.514666h-199.68a4.522667 4.522667 0 0 0-4.522667 4.522667V683.52c0 2.474667 2.048 4.522667 4.522667 4.522667h304.085333V550.4c0-15.872 12.842667-28.757333 28.757333-28.757333h137.642667v-121.002667a28.757333 28.757333 0 1 1 57.472 0V550.4a28.629333 28.629333 0 0 1-7.509333 19.370667l-149.632 166.272a28.757333 28.757333 0 0 1-21.333334 9.514666h-349.44z m361.557333-85.205333l73.088-81.194667h-73.088V660.352z"/></svg>