<?xml version="1.0" standalone="no"?><!DOCTYPE svg PUBLIC "-//W3C//DTD SVG 1.1//EN"
        "http://www.w3.org/Graphics/SVG/1.1/DTD/svg11.dtd"><svg viewBox="0 0 1024 1024" version="1.1" xmlns="http://www.w3.org/2000/svg" xmlns:xlink="http://www.w3.org/1999/xlink"><path transform="scale(1, -1) translate(0, -1024)" d="M698.709333 679.68a108.928 108.928 0 1 1 0-217.856 108.928 108.928 0 0 1 0 217.856z m-46.677333-108.928a46.677333 46.677333 0 1 0 93.397333 0 46.677333 46.677333 0 0 0-93.397333 0zM652.032 306.218667c0 21.162667 6.101333 37.12 14.336 47.146666a40.021333 40.021333 0 0 0 32.341333 15.061334c13.824 0 24.533333-5.504 32.341334-15.061334 8.234667-10.026667 14.378667-25.984 14.378666-47.146666v-217.856a31.146667 31.146667 0 0 1 62.208 0v217.856c0 32.725333-9.429333 63.445333-28.458666 86.613333a102.186667 102.186667 0 0 1-80.469334 37.845333c-32.853333 0-61.056-14.165333-80.469333-37.845333-18.986667-23.168-28.458667-53.888-28.458667-86.613333v-78.805334l-82.133333-68.48a31.146667 31.146667 0 1 1 39.850667-47.786666l93.354666 77.781333a31.146667 31.146667 0 0 1 11.178667 23.893333v93.397334zM309.717333 710.826667a93.354667 93.354667 0 1 1 0-186.752 93.354667 93.354667 0 0 1 0 186.709333z m-31.146666-93.397334a31.146667 31.146667 0 1 0 62.293333 0 31.146667 31.146667 0 0 0-62.293333 0zM325.248 492.928c-32.853333 0-61.056-14.208-80.469333-37.845333-18.986667-23.168-28.416-53.888-28.416-86.613334v-280.106666a31.146667 31.146667 0 0 1 62.208 0v280.064c0 21.205333 6.144 37.12 14.336 47.189333a40.021333 40.021333 0 0 0 32.341333 15.061333c13.824 0 24.533333-5.546667 32.384-15.061333 8.192-10.026667 14.336-26.026667 14.336-47.189333v-62.208a31.146667 31.146667 0 0 1 11.178667-23.893334l93.354666-77.824a31.146667 31.146667 0 1 1 39.850667 47.786667l-82.176 68.48v47.658667c0 32.768-9.429333 63.488-28.416 86.656a102.229333 102.229333 0 0 1-80.469333 37.845333z"/></svg>