<?xml version="1.0" standalone="no"?><!DOCTYPE svg PUBLIC "-//W3C//DTD SVG 1.1//EN"
        "http://www.w3.org/Graphics/SVG/1.1/DTD/svg11.dtd"><svg viewBox="0 0 1024 1024" version="1.1" xmlns="http://www.w3.org/2000/svg" xmlns:xlink="http://www.w3.org/1999/xlink"><path transform="scale(1, -1) translate(0, -1024)" d="M297.344 664.064a4.096 4.096 0 0 1-4.096-4.053333V107.946667c0-2.261333 1.834667-4.096 4.096-4.096H726.613333a4.096 4.096 0 0 1 4.096 4.096V526.336l-137.770666 137.728h-295.68z m-57.258667-4.053333c0 31.573333 25.6 57.216 57.258667 57.216h306.645333c7.04 0 13.824-2.773333 18.773334-7.765334l153.386666-153.344a26.581333 26.581333 0 0 0 7.765334-18.773333V107.946667c0-31.573333-25.6-57.216-57.258667-57.216H297.386667c-31.616 0-57.258667 25.6-57.258667 57.216V660.053333zM389.333333 471.893333a26.581333 26.581333 0 0 1 0-53.12h164.096a26.581333 26.581333 0 0 1 0 53.12H389.333333zM389.333333 349.226667a26.581333 26.581333 0 1 1 0-53.12h245.333334a26.581333 26.581333 0 0 1 0 53.12h-245.333334z"/></svg>