<?xml version="1.0" standalone="no"?><!DOCTYPE svg PUBLIC "-//W3C//DTD SVG 1.1//EN"
        "http://www.w3.org/Graphics/SVG/1.1/DTD/svg11.dtd"><svg viewBox="0 0 1024 1024" version="1.1" xmlns="http://www.w3.org/2000/svg" xmlns:xlink="http://www.w3.org/1999/xlink"><path transform="scale(1, -1) translate(0, -1024)" d="M425.984 623.872c0 47.488 38.4 86.272 86.016 86.272a86.186667 86.186667 0 0 0 86.016-86.272A86.186667 86.186667 0 0 0 512 537.557333a86.186667 86.186667 0 0 0-86.016 86.314667zM512 650.410667a26.453333 26.453333 0 0 1-26.282667-26.538667c0-14.848 11.946667-26.581333 26.282667-26.581333a26.453333 26.453333 0 0 1 26.282667 26.581333 26.453333 26.453333 0 0 1-26.282667 26.538667zM215.466667 200.533333a86.186667 86.186667 0 0 0 86.016 86.357334A86.186667 86.186667 0 0 0 387.498667 200.533333a86.186667 86.186667 0 0 0-86.016-86.314666 86.186667 86.186667 0 0 0-86.016 86.314666z m86.016 26.581334a26.453333 26.453333 0 0 1-26.282667-26.538667c0-14.848 11.946667-26.581333 26.282667-26.581333a26.453333 26.453333 0 0 1 26.282666 26.581333 26.453333 26.453333 0 0 1-26.282666 26.538667zM722.517333 286.848a86.186667 86.186667 0 0 1-86.016-86.272 86.186667 86.186667 0 0 1 86.016-86.314667 86.186667 86.186667 0 0 1 86.016 86.314667 86.186667 86.186667 0 0 1-86.016 86.272z m-26.282666-86.272a26.453333 26.453333 0 0 0 26.282666 26.538667 26.453333 26.453333 0 0 0 26.282667-26.538667 26.453333 26.453333 0 0 0-26.282667-26.581333 26.453333 26.453333 0 0 0-26.282666 26.581333zM391.808 561.066667a29.866667 29.866667 0 0 1-30.506667 51.370666 298.069333 298.069333 0 0 1-144.512-284.8 29.866667 29.866667 0 0 1 59.434667 5.546667 238.378667 238.378667 0 0 0 115.541333 227.84zM621.781333 602.026667a29.866667 29.866667 0 0 0 40.917334 10.410666 298.069333 298.069333 0 0 0 144.512-284.8 29.866667 29.866667 0 0 0-59.477334 5.546667 238.336 238.336 0 0 1-115.541333 227.84 29.866667 29.866667 0 0 0-10.410667 40.96zM380.586667 120.490667a29.866667 29.866667 0 0 0 39.210666 15.786666 234.752 234.752 0 0 1 92.16-18.730666c32.810667 0 63.957333 6.698667 92.245334 18.773333a29.866667 29.866667 0 0 0 23.381333-54.997333c-35.541333-15.146667-74.666667-23.466667-115.626667-23.466667s-80 8.32-115.584 23.466667a29.866667 29.866667 0 0 0-15.786666 39.168z"/></svg>