<?xml version="1.0" standalone="no"?><!DOCTYPE svg PUBLIC "-//W3C//DTD SVG 1.1//EN"
        "http://www.w3.org/Graphics/SVG/1.1/DTD/svg11.dtd"><svg viewBox="0 0 1024 1024" version="1.1" xmlns="http://www.w3.org/2000/svg" xmlns:xlink="http://www.w3.org/1999/xlink"><path transform="scale(1, -1) translate(0, -1024)" d="M368.341333 774.058667a28.885333 28.885333 0 0 0 40.789334 0l103.210666-103.168 103.168 103.168a28.885333 28.885333 0 1 0 40.832-40.832L581.034667 657.92h240.298666c15.36 0 27.818667-12.458667 27.818667-27.861333v-124.245334c0-15.36-12.458667-27.818667-27.818667-27.818666h-18.517333v-45.482667a27.861333 27.861333 0 0 0-55.68 0V477.952H277.504v-315.093333h165.717333a27.861333 27.861333 0 0 0 0-55.68H249.685333a27.818667 27.818667 0 0 0-27.861333 27.818666V477.994667H202.666667a27.861333 27.861333 0 0 0-27.818667 27.818666V630.058667c0 15.36 12.458667 27.861333 27.818667 27.861333h240.981333L368.341333 733.226667a28.885333 28.885333 0 0 0 0 40.832z m136.32-171.818667H230.528v-68.565333h562.986667V602.24h-273.493334a29.013333 29.013333 0 0 0-15.36 0zM639.786667 333.909333a29.866667 29.866667 0 0 0 42.24-42.24l-37.888-37.888h141.226666a29.866667 29.866667 0 1 0 0-59.733333h-141.226666l37.888-37.888a29.866667 29.866667 0 1 0-42.24-42.24l-88.448 88.448a29.781333 29.781333 0 0 0-0.426667 42.666667l88.874667 88.874666z"/></svg>