<?xml version="1.0" standalone="no"?><!DOCTYPE svg PUBLIC "-//W3C//DTD SVG 1.1//EN"
        "http://www.w3.org/Graphics/SVG/1.1/DTD/svg11.dtd"><svg viewBox="0 0 1024 1024" version="1.1" xmlns="http://www.w3.org/2000/svg" xmlns:xlink="http://www.w3.org/1999/xlink"><path transform="scale(1, -1) translate(0, -1024)" d="M440.1152 727.40864a163.84 163.84 0 1 1 0-327.72096 163.84 163.84 0 0 1 0 327.72096z m-106.53696-163.84a106.496 106.496 0 1 0 213.03296 0 106.496 106.496 0 0 0-213.03296 0zM452.1984 269.39392a28.672 28.672 0 0 1-7.70048 56.85248c-31.58016-4.25984-80.896-13.9264-129.76128-31.17056-47.9232-16.95744-99.81952-42.72128-132.01408-81.5104a28.672 28.672 0 0 1-6.59456-18.30912c0-31.04768 9.17504-58.40896 20.0704-79.4624 10.6496-20.6848 23.87968-36.98688 34.28352-45.8752a28.672 28.672 0 0 1 18.67776-6.9632h228.7616a28.672 28.672 0 1 1 0 57.344H261.3248a125.00992 125.00992 0 0 0-14.21312 21.83168 120.75008 120.75008 0 0 0-13.1072 42.68032c22.9376 22.97856 59.22816 41.82016 99.86048 56.15616 44.2368 15.64672 89.57952 24.576 118.29248 28.42624zM516.5056 352.62464a26.624 26.624 0 0 0 37.6832 0l56.07424-56.07424 48.16896 48.16896a26.624 26.624 0 0 0 37.6832 0l48.16896-48.16896 56.1152 56.1152a26.624 26.624 0 1 0 37.64224-37.6832l-74.9568-74.91584a26.624 26.624 0 0 0-37.64224 0l-48.16896 48.20992-48.16896-48.20992a26.624 26.624 0 0 0-37.6832 0l-74.91584 74.9568a26.624 26.624 0 0 0 0 37.60128z m0-171.78624a26.624 26.624 0 0 0 37.6832 0l56.07424-56.1152 48.20992 48.20992a26.624 26.624 0 0 0 37.64224 0l48.16896-48.20992 56.1152 56.1152a26.624 26.624 0 1 0 37.64224-37.6832l-74.9568-74.91584a26.624 26.624 0 0 0-37.60128 0l-48.20992 48.20992-48.16896-48.20992a26.624 26.624 0 0 0-37.6832 0l-74.91584 74.9568a26.624 26.624 0 0 0 0 37.64224z"/></svg>