<?xml version="1.0" standalone="no"?><!DOCTYPE svg PUBLIC "-//W3C//DTD SVG 1.1//EN"
        "http://www.w3.org/Graphics/SVG/1.1/DTD/svg11.dtd"><svg viewBox="0 0 1024 1024" version="1.1" xmlns="http://www.w3.org/2000/svg" xmlns:xlink="http://www.w3.org/1999/xlink"><path transform="scale(1, -1) translate(0, -1024)" d="M741.376 719.38048a28.63104 28.63104 0 0 1-5.89824-0.6144l-259.6864-54.72256A61.44 61.44 0 0 1 417.792 602.68544v-126.3616a64.55296 64.55296 0 0 1-4.096 0.12288 28.672 28.672 0 0 1-4.17792-0.28672l-129.31072-19.08736a61.44 61.44 0 0 1-58.9824-61.44v-242.76992c0-1.35168 0-2.74432 0.08192-4.096H184.32a28.672 28.672 0 1 1 0-57.344h655.36a28.672 28.672 0 1 1 0 57.344h-36.98688c0.08192 1.35168 0.12288 2.74432 0.12288 4.096V657.94048a61.44 61.44 0 0 1-61.44 61.44z m0.16384-570.5728h-262.47168a4.096 4.096 0 0 0-3.93216 4.01408v262.18496V602.7264a4.096 4.096 0 0 0 4.096 4.096 28.672 28.672 0 0 1 5.9392 0.6144l257.76128 54.35392a4.096 4.096 0 0 0 2.53952-3.80928v-505.0368a4.096 4.096 0 0 0-3.93216-4.096z m-323.74784 266.24v-262.22592a4.096 4.096 0 0 0-4.01408-4.05504H282.58304a4.096 4.096 0 0 0-4.05504 4.096v242.81088a4.096 4.096 0 0 0 4.096 4.096 28.672 28.672 0 0 1 4.17792 0.28672l128 18.92352a4.096 4.096 0 0 0 2.99008-3.8912zM300.2368 283.81184a28.672 28.672 0 0 0 28.672 28.672h38.5024a28.672 28.672 0 1 0 0-57.344h-38.5024a28.672 28.672 0 0 0-28.672 28.672zM577.536 459.93984a28.672 28.672 0 1 1 0-57.344h65.536a28.672 28.672 0 1 1 0 57.344h-65.536zM577.536 312.48384a28.672 28.672 0 1 1 0-57.344h65.536a28.672 28.672 0 1 1 0 57.344h-65.536z"/></svg>