<?xml version="1.0" standalone="no"?><!DOCTYPE svg PUBLIC "-//W3C//DTD SVG 1.1//EN"
        "http://www.w3.org/Graphics/SVG/1.1/DTD/svg11.dtd"><svg viewBox="0 0 1024 1024" version="1.1" xmlns="http://www.w3.org/2000/svg" xmlns:xlink="http://www.w3.org/1999/xlink"><path transform="scale(1, -1) translate(0, -1024)" d="M423.381333 577.365333a23.168 23.168 0 0 1-35.584-29.653333l39.466667-47.36h-35.882667a23.168 23.168 0 1 1 0-46.293333h62.165334v-38.997334H391.381333a23.168 23.168 0 1 1 0-46.336h62.165334v-62.208a23.168 23.168 0 1 1 46.336 0v62.208h62.165333a23.168 23.168 0 0 1 0 46.336h-62.165333v38.997334h62.165333a23.168 23.168 0 1 1 0 46.293333h-35.925333l39.509333 47.36a23.168 23.168 0 0 1-35.626667 29.653333l-53.333333-64-53.290667 64zM235.989333 660.053333c0 33.834667 27.477333 61.312 61.354667 61.312H726.613333c33.877333 0 61.354667-27.477333 61.354667-61.354666v-153.301334a30.677333 30.677333 0 1 0-61.354667 0V660.010667H297.386667v-551.978667h91.989333a30.677333 30.677333 0 0 0 0-61.354667H297.344a61.354667 61.354667 0 0 0-61.354667 61.354667V660.010667zM757.333333 276.693333c16.938667 0 30.677333-13.738667 30.677334-30.677333v-137.984c0-33.877333-27.477333-61.354667-61.354667-61.354667h-99.669333a30.677333 30.677333 0 1 0 0 61.354667h99.669333v137.984c0 16.938667 13.738667 30.677333 30.677333 30.677333zM781.184 380.032a30.677333 30.677333 0 1 1-47.701333 38.570667l-260.650667-322.005334a30.677333 30.677333 0 1 1 47.658667-38.570666l260.693333 322.005333z"/></svg>