<?xml version="1.0" standalone="no"?><!DOCTYPE svg PUBLIC "-//W3C//DTD SVG 1.1//EN"
        "http://www.w3.org/Graphics/SVG/1.1/DTD/svg11.dtd"><svg viewBox="0 0 1024 1024" version="1.1" xmlns="http://www.w3.org/2000/svg" xmlns:xlink="http://www.w3.org/1999/xlink"><path transform="scale(1, -1) translate(0, -1024)" d="M362.666667 713.856c15.36 0 27.861333-12.458667 27.861333-27.861333v-31.872h242.944v31.872a27.861333 27.861333 0 1 0 55.722667 0v-31.872H780.8c31.872 0 57.728-25.813333 57.728-57.728v-428.074667c0-31.914667-25.856-57.770667-57.728-57.770667H243.2a57.728 57.728 0 0 0-57.728 57.770667V596.394667c0 31.914667 25.856 57.728 57.728 57.728h91.605333v31.872c0 15.36 12.458667 27.861333 27.861334 27.861333z m270.805333-115.456H390.528v-31.872a27.861333 27.861333 0 1 0-55.722667 0v31.872H243.2a2.005333 2.005333 0 0 1-2.005333-2.005333v-428.074667c0-1.109333 0.896-2.005333 2.005333-2.005333h537.6c1.109333 0 2.005333 0.896 2.005333 2.005333V596.394667a2.005333 2.005333 0 0 1-2.005333 2.005333h-91.605333v-31.872a27.861333 27.861333 0 1 0-55.722667 0v31.872zM456.618667 515.669333a25.088 25.088 0 1 1-38.570667-32.128l40.362667-48.426666H422.4a25.088 25.088 0 0 1 0-50.176h64.512v-39.424H422.4a25.088 25.088 0 1 1 0-50.176h64.512v-64.512a25.088 25.088 0 1 1 50.176 0v64.512H601.6a25.088 25.088 0 1 1 0 50.176h-64.512v39.424H601.6a25.088 25.088 0 1 1 0 50.176h-36.053333l40.362666 48.426666a25.088 25.088 0 1 1-38.528 32.128L512 449.194667l-55.381333 66.474666z"/></svg>