<?xml version="1.0" standalone="no"?><!DOCTYPE svg PUBLIC "-//W3C//DTD SVG 1.1//EN"
        "http://www.w3.org/Graphics/SVG/1.1/DTD/svg11.dtd"><svg viewBox="0 0 1024 1024" version="1.1" xmlns="http://www.w3.org/2000/svg" xmlns:xlink="http://www.w3.org/1999/xlink"><path transform="scale(1, -1) translate(0, -1024)" d="M510.72 692.906667c32.426667 0 58.624-26.24 58.624-58.624v-18.602667c0-15.36 12.458667-27.733333 27.776-27.733333h116.224V496.64h-14.250667a114.176 114.176 0 0 1 0-228.309333h14.250667v-85.76H336.896v113.493333a27.733333 27.733333 0 0 1-27.733333 27.776h-31.146667a58.624 58.624 0 1 0 0 117.290667h31.146667a27.733333 27.733333 0 0 1 27.733333 27.733333V587.946667h87.466667c15.317333 0 27.733333 12.373333 27.733333 27.733333v18.602667c0 32.384 26.24 58.624 58.624 58.624z m113.834667-49.493334a114.176 114.176 0 0 1-227.626667 0H309.12a27.733333 27.733333 0 0 1-27.733333-27.733333v-118.997333h-3.328a114.176 114.176 0 0 1 0-228.309334h3.285333v-113.493333c0-15.36 12.458667-27.733333 27.776-27.733333H741.12a27.733333 27.733333 0 0 1 27.776 27.733333v141.226667a27.733333 27.733333 0 0 1-27.733333 27.776h-42.069334a58.624 58.624 0 1 0 0 117.290666h42.026667a27.733333 27.733333 0 0 1 27.776 27.733334V615.68a27.733333 27.733333 0 0 1-27.733333 27.733333h-116.608zM415.189333 514.517333a27.733333 27.733333 0 0 1-27.733333-27.733333v-194.474667a27.733333 27.733333 0 1 1 55.466667 0V486.826667a27.733333 27.733333 0 0 1-27.733334 27.733333z"/></svg>