<?xml version="1.0" standalone="no"?><!DOCTYPE svg PUBLIC "-//W3C//DTD SVG 1.1//EN"
        "http://www.w3.org/Graphics/SVG/1.1/DTD/svg11.dtd"><svg viewBox="0 0 1024 1024" version="1.1" xmlns="http://www.w3.org/2000/svg" xmlns:xlink="http://www.w3.org/1999/xlink"><path transform="scale(1, -1) translate(0, -1024)" d="M512 740.309333c-130.688 0-237.866667-103.509333-237.866667-232.746666 0-90.88 59.306667-171.52 112.426667-226.304a732.245333 732.245333 0 0 1 106.325333-89.941334l1.962667-1.322666 0.554667-0.384 0.170666-0.085334 0.042667-0.042666 16.384 24.96-16.384-24.96a29.909333 29.909333 0 0 1 32.725333 0L512 214.4l16.341333-25.002667 0.085334 0.085334 0.170666 0.085333 0.554667 0.384 1.962667 1.28 7.082666 4.949333a732.8 732.8 0 0 1 99.242667 85.034667c53.077333 54.784 112.426667 135.424 112.426667 226.304 0 129.237333-107.178667 232.746667-237.866667 232.746667z m14.122667-478.592c-5.248-4.096-10.026667-7.68-14.122667-10.709333a672.853333 672.853333 0 0 0-82.56 71.850667c-50.901333 52.48-95.573333 118.4-95.573333 184.704C333.866667 602.410667 412.928 680.533333 512 680.533333s178.133333-78.165333 178.133333-173.013333c0-66.304-44.672-132.181333-95.573333-184.704a673.28 673.28 0 0 0-68.437333-61.141333zM294.314667 221.738667a29.866667 29.866667 0 1 1-17.152 57.173333c-30.506667-9.130667-57.386667-20.608-77.312-34.730667-19.114667-13.568-37.717333-34.005333-37.717334-61.738666s18.602667-48.170667 37.717334-61.738667c19.925333-14.08 46.805333-25.6 77.312-34.730667 61.354667-18.432 144.384-29.397333 234.837333-29.397333 90.453333 0 173.482667 10.965333 234.837333 29.397333 30.506667 9.130667 57.386667 20.608 77.312 34.730667 19.114667 13.568 37.717333 34.005333 37.717334 61.738667s-18.602667 48.170667-37.717334 61.738666c-19.925333 14.08-46.805333 25.6-77.312 34.773334a29.866667 29.866667 0 1 1-17.152-57.216c27.392-8.234667 47.402667-17.450667 59.904-26.282667 10.496-7.466667 12.245333-12.032 12.501334-13.013333-0.256-0.938667-2.005333-5.546667-12.501334-13.013334-12.501333-8.832-32.512-18.048-59.904-26.24-54.4-16.341333-131.413333-26.88-217.685333-26.88-86.314667 0-163.285333 10.538667-217.685333 26.88-27.392 8.192-47.402667 17.408-59.904 26.24-10.496 7.466667-12.245333 12.074667-12.501334 13.013334 0.256 0.981333 2.005333 5.546667 12.501334 13.013333 12.501333 8.832 32.512 18.048 59.904 26.282667zM402.133333 502.442667a109.866667 109.866667 0 1 0 219.733334 0 109.866667 109.866667 0 0 0-219.733334 0zM512 552.576a50.133333 50.133333 0 1 1 0-100.266667 50.133333 50.133333 0 0 1 0 100.266667z"/></svg>