<?xml version="1.0" standalone="no"?><!DOCTYPE svg PUBLIC "-//W3C//DTD SVG 1.1//EN"
        "http://www.w3.org/Graphics/SVG/1.1/DTD/svg11.dtd"><svg viewBox="0 0 1024 1024" version="1.1" xmlns="http://www.w3.org/2000/svg" xmlns:xlink="http://www.w3.org/1999/xlink"><path transform="scale(1, -1) translate(0, -1024)" d="M297.344 664.106667a4.096 4.096 0 0 1-4.096-4.096V107.946667c0-2.261333 1.834667-4.053333 4.096-4.053334H726.613333a4.096 4.096 0 0 1 4.096 4.053334V526.336l-137.770666 137.770667h-295.68z m-57.258667-4.096c0 31.573333 25.6 57.258667 57.258667 57.258666h306.645333c7.04 0 13.824-2.816 18.773334-7.808l153.386666-153.344a26.581333 26.581333 0 0 0 7.765334-18.773333V107.946667c0-31.573333-25.6-57.216-57.258667-57.216H297.386667c-31.616 0-57.258667 25.6-57.258667 57.216V660.053333zM362.752 445.312c0 14.677333 11.946667 26.581333 26.581333 26.581333h164.096a26.581333 26.581333 0 0 0 0-53.12H389.333333a26.581333 26.581333 0 0 0-26.581333 26.538667zM362.752 322.688c0 14.677333 11.946667 26.538667 26.581333 26.538667h245.333334a26.581333 26.581333 0 0 0 0-53.12h-245.333334a26.581333 26.581333 0 0 0-26.581333 26.581333z"/></svg>