<?xml version="1.0" standalone="no"?><!DOCTYPE svg PUBLIC "-//W3C//DTD SVG 1.1//EN"
        "http://www.w3.org/Graphics/SVG/1.1/DTD/svg11.dtd"><svg viewBox="0 0 1024 1024" version="1.1" xmlns="http://www.w3.org/2000/svg" xmlns:xlink="http://www.w3.org/1999/xlink"><path transform="scale(1, -1) translate(0, -1024)" d="M769.450667 555.008a261.674667 261.674667 0 0 1-27.050667 0.725333h-135.765333a29.866667 29.866667 0 0 0 0 59.648H744.021333c12.16 0 24.106667 0 33.962667-1.28 11.136-1.536 23.978667-5.205333 34.688-15.872 10.666667-10.666667 14.336-23.552 15.829333-34.688 1.322667-9.813333 1.322667-21.76 1.322667-33.962666v-291.2c0-12.202667 0-24.106667-1.28-33.962667-1.536-11.178667-5.205333-24.021333-15.872-34.688s-23.552-14.378667-34.688-15.872c-9.856-1.28-21.76-1.28-33.962667-1.28H606.634667a29.866667 29.866667 0 0 0 0 59.605333H742.4c13.909333 0 21.674667 0.085333 27.050667 0.725334 0.64 5.376 0.725333 13.141333 0.725333 27.050666v288c0 13.952-0.085333 21.717333-0.725333 27.050667zM541.866667 643.2a29.866667 29.866667 0 0 1-59.733334 0v-518.4a29.866667 29.866667 0 0 1 59.733334 0V643.2zM279.978667 615.381333c-12.16 0-24.106667 0-33.962667-1.28-11.136-1.536-23.978667-5.205333-34.688-15.872-10.666667-10.666667-14.336-23.509333-15.829333-34.688-1.322667-9.813333-1.322667-21.76-1.322667-33.962666v-291.2c0-12.202667 0-24.106667 1.28-33.962667 1.536-11.178667 5.205333-24.021333 15.872-34.688s23.552-14.378667 34.688-15.872c9.856-1.28 21.802667-1.28 33.962667-1.28h137.386666a29.866667 29.866667 0 1 1 0 59.605333H281.6c-13.909333 0-21.674667 0.085333-27.050667 0.725334a261.632 261.632 0 0 0-0.725333 27.050666v288c0 13.952 0.085333 21.717333 0.725333 27.050667 5.376 0.682667 13.141333 0.725333 27.050667 0.725333h135.765333a29.866667 29.866667 0 1 1 0 59.648h-137.386666z"/></svg>