<?xml version="1.0" standalone="no"?><!DOCTYPE svg PUBLIC "-//W3C//DTD SVG 1.1//EN"
        "http://www.w3.org/Graphics/SVG/1.1/DTD/svg11.dtd"><svg viewBox="0 0 1024 1024" version="1.1" xmlns="http://www.w3.org/2000/svg" xmlns:xlink="http://www.w3.org/1999/xlink"><path transform="scale(1, -1) translate(0, -1024)" d="M172.8 569.6a29.866667 29.866667 0 0 0 29.866667 29.866667h123.733333a29.866667 29.866667 0 0 0 29.866667-29.866667v-154.666667a29.866667 29.866667 0 0 0-29.866667-29.866666c-81.237333 0-153.6 67.968-153.6 184.533333z m61.866667-29.866667c7.424-50.090667 33.578667-77.994667 61.866666-89.173333V539.733333H234.666667zM667.733333 569.6a29.866667 29.866667 0 0 0 29.866667 29.866667h123.733333a29.866667 29.866667 0 0 0 29.866667-29.866667c0-116.565333-72.362667-184.533333-153.6-184.533333a29.866667 29.866667 0 0 0-29.866667 29.866666V569.6z m59.733334-29.866667v-89.173333c28.245333 11.178667 54.442667 39.082667 61.866666 89.173333h-61.866666zM296.533333 677.888a29.866667 29.866667 0 0 0 29.866667 29.866667h371.2a29.866667 29.866667 0 0 0 29.866667-29.866667v-211.072c0-111.018667-80.213333-203.989333-185.770667-218.88a30.592 30.592 0 0 0 0.170667-3.114667v-32h48.128a29.866667 29.866667 0 0 0 24.917333-13.44l61.226667-92.8a29.866667 29.866667 0 0 0-24.96-46.293333H372.778667a29.866667 29.866667 0 0 0-25.429334 45.482667l57.088 92.8a29.866667 29.866667 0 0 0 25.429334 14.250666H482.133333v32c0 1.024 0.042667 2.090667 0.170667 3.114667-105.557333 14.890667-185.770667 107.861333-185.770667 218.88V677.888z m215.04-524.8h-65.024l-20.309333-33.109333h169.472l-21.76 33.066666H511.573333z m-155.306666 494.933333v-181.205333c0-89.856 70.528-161.194667 155.733333-161.194667 85.205333 0 155.733333 71.338667 155.733333 161.152V648.064h-311.466666z"/></svg>