<?xml version="1.0" standalone="no"?><!DOCTYPE svg PUBLIC "-//W3C//DTD SVG 1.1//EN"
        "http://www.w3.org/Graphics/SVG/1.1/DTD/svg11.dtd"><svg viewBox="0 0 1024 1024" version="1.1" xmlns="http://www.w3.org/2000/svg" xmlns:xlink="http://www.w3.org/1999/xlink"><path transform="scale(1, -1) translate(0, -1024)" d="M706.261333 464.256a114.474667 114.474667 0 0 1-25.6-226.090667v-43.605333H617.386667a25.6 25.6 0 1 1 0-51.2h177.749333a25.6 25.6 0 1 1 0 51.2h-63.274667v43.605333a114.517333 114.517333 0 0 1-25.6 226.133334z m-63.274666-114.474667a63.274667 63.274667 0 1 0 126.549333 0 63.274667 63.274667 0 0 0-126.549333 0zM593.194667 127.530667a25.6 25.6 0 0 1 0-51.2h226.133333a25.6 25.6 0 1 1 0 51.2h-226.133333zM183.466667 151.68c0-43.946667 35.669333-79.616 79.658666-79.616h224a29.866667 29.866667 0 1 1 0 59.733333h-224a19.925333 19.925333 0 0 0-19.925333 19.882667V616.32c0 10.965333 8.917333 19.882667 19.925333 19.882667h497.749334c11.008 0 19.925333-8.917333 19.925333-19.925334v-116.138666a29.866667 29.866667 0 1 1 59.733333 0V616.277333c0 43.989333-35.669333 79.658667-79.658666 79.658667H263.125333c-43.989333 0-79.658667-35.669333-79.658666-79.658667v-464.597333zM499.882667 546.602667a29.866667 29.866667 0 0 0 29.866666-29.866667V234.666667a29.866667 29.866667 0 1 0-59.733333 0V516.693333a29.866667 29.866667 0 0 0 29.866667 29.866667zM367.104 430.464a29.866667 29.866667 0 0 0 29.866667-29.866667V234.666667a29.866667 29.866667 0 1 0-59.733334 0v165.930666a29.866667 29.866667 0 0 0 29.866667 29.866667z"/></svg>