<?xml version="1.0" standalone="no"?><!DOCTYPE svg PUBLIC "-//W3C//DTD SVG 1.1//EN"
        "http://www.w3.org/Graphics/SVG/1.1/DTD/svg11.dtd"><svg viewBox="0 0 1024 1024" version="1.1" xmlns="http://www.w3.org/2000/svg" xmlns:xlink="http://www.w3.org/1999/xlink"><path transform="scale(1, -1) translate(0, -1024)" d="M384.128 47.616H276.096c-32.853333 0-59.477333 26.624-59.477333 59.477333V660.906667c0 32.853333 26.624 59.52 59.477333 59.52H747.946667c32.853333 0 59.477333-26.624 59.477333-59.477334V107.093333c0-32.853333-26.624-59.52-59.477333-59.52H384.128zM274.048 660.906667V107.093333c0-1.152 0.938667-2.048 2.048-2.048H355.413333V662.997333H276.096a2.048 2.048 0 0 1-2.048-2.048z m138.794667 2.048v-557.952h335.061333a2.048 2.048 0 0 1 2.048 2.048V660.906667a2.048 2.048 0 0 1-2.048 2.090666H412.842667zM491.221333 568.618667c0 15.872 12.885333 28.714667 28.757334 28.714666h123.050666a28.714667 28.714667 0 1 0 0-57.429333h-123.050666a28.714667 28.714667 0 0 0-28.757334 28.714667zM491.221333 445.525333c0 15.872 12.885333 28.714667 28.757334 28.714667h123.050666a28.714667 28.714667 0 1 0 0-57.429333h-123.050666a28.714667 28.714667 0 0 0-28.757334 28.714666zM247.381333 76.330667c0 15.829333 12.842667 28.714667 28.714667 28.714666h184.618667a28.714667 28.714667 0 0 0 0-57.429333H276.096a28.714667 28.714667 0 0 0-28.714667 28.714667z"/></svg>