<?xml version="1.0" standalone="no"?><!DOCTYPE svg PUBLIC "-//W3C//DTD SVG 1.1//EN"
        "http://www.w3.org/Graphics/SVG/1.1/DTD/svg11.dtd"><svg viewBox="0 0 1024 1024" version="1.1" xmlns="http://www.w3.org/2000/svg" xmlns:xlink="http://www.w3.org/1999/xlink"><path transform="scale(1, -1) translate(0, -1024)" d="M217.6 652.8a55.466667 55.466667 0 0 0 55.466667 55.466667h418.133333a55.466667 55.466667 0 0 0 55.466667-55.466667v-155.306667a25.6 25.6 0 1 0-51.2 0V652.8a4.266667 4.266667 0 0 1-4.266667 4.266667H273.066667a4.266667 4.266667 0 0 1-4.266667-4.266667v-537.6a4.266667 4.266667 0 0 1 4.266667-4.266667h149.333333a25.6 25.6 0 1 0 0-51.2H273.066667a55.466667 55.466667 0 0 0-55.466667 55.466667V652.8zM332.202667 533.333333c0 16.853333 13.653333 30.464 30.464 30.464h194.133333a30.464 30.464 0 1 0 0-60.928H362.666667a30.464 30.464 0 0 0-30.464 30.464zM362.666667 459.264a30.464 30.464 0 0 1 0-60.928h74.666666a30.464 30.464 0 1 1 0 60.928H362.666667zM631.466667 231.68a26.88 26.88 0 0 0 26.88-26.88v-44.8a26.88 26.88 0 0 0-53.76 0V204.8a26.88 26.88 0 0 0 26.88 26.88zM661.333333 294.4a29.866667 29.866667 0 1 0-59.733333 0 29.866667 29.866667 0 0 0 59.733333 0zM631.466667 410.88a176.213333 176.213333 0 1 0 0-352.426667 176.213333 176.213333 0 0 0 0 352.426667z m122.453333-176.213333a122.453333 122.453333 0 1 1-244.906667 0 122.453333 122.453333 0 0 1 244.906667 0z"/></svg>