<?xml version="1.0" standalone="no"?><!DOCTYPE svg PUBLIC "-//W3C//DTD SVG 1.1//EN"
        "http://www.w3.org/Graphics/SVG/1.1/DTD/svg11.dtd"><svg viewBox="0 0 1024 1024" version="1.1" xmlns="http://www.w3.org/2000/svg" xmlns:xlink="http://www.w3.org/1999/xlink"><path transform="scale(1, -1) translate(0, -1024)" d="M192 193.109333a27.733333 27.733333 0 0 0 27.733333-27.733333v-53.888h584.533334v53.888a27.733333 27.733333 0 0 0 55.466666 0v-81.621333a27.733333 27.733333 0 0 0-27.733333-27.733334h-640a27.733333 27.733333 0 0 0-27.733333 27.733334v81.621333a27.733333 27.733333 0 0 0 27.733333 27.733333zM402.773333 431.146667a29.866667 29.866667 0 0 0 29.866667 29.866666h157.525333a29.866667 29.866667 0 1 0 0-59.733333H432.64a29.866667 29.866667 0 0 0-29.866667 29.866667zM340.736 699.818667a25.6 25.6 0 0 0 20.309333 10.026666h316.885334a25.6 25.6 0 0 0 21.418666-11.605333l86.784-132.821333a25.6 25.6 0 0 0 3.84-18.005334c0.213333-1.28 0.341333-2.645333 0.341334-4.010666v-283.050667c0-36.224-29.397333-65.578667-65.621334-65.578667h-425.386666c-36.266667 0-65.621333 29.354667-65.621334 65.578667V551.424c0 6.058667 2.133333 11.605333 5.632 16l101.418667 132.394667zM284.885333 525.824v-265.472c0-7.936 6.442667-14.378667 14.421334-14.378667h425.386666a14.378667 14.378667 0 0 1 14.421334 14.378667V525.866667H284.885333zM373.76 658.645333L311.168 577.024h174.506667V658.645333H373.76z m290.346667 0h-127.146667v-81.621333h180.48l-53.333333 81.621333z"/></svg>