<?xml version="1.0" standalone="no"?><!DOCTYPE svg PUBLIC "-//W3C//DTD SVG 1.1//EN"
        "http://www.w3.org/Graphics/SVG/1.1/DTD/svg11.dtd"><svg viewBox="0 0 1024 1024" version="1.1" xmlns="http://www.w3.org/2000/svg" xmlns:xlink="http://www.w3.org/1999/xlink"><path transform="scale(1, -1) translate(0, -1024)" d="M442.112 433.493333a27.733333 27.733333 0 0 1-39.253333-39.210666l42.410666-42.368h-22.741333a27.733333 27.733333 0 1 1 0-55.466667h62.08v-34.261333H422.528a27.733333 27.733333 0 1 1 0-55.466667h62.08v-32.085333a27.733333 27.733333 0 0 1 55.466667 0v32.128h61.866666a27.733333 27.733333 0 0 1 0 55.466666h-61.866666v34.218667h61.866666a27.733333 27.733333 0 0 1 0 55.466667h-22.741333l42.368 42.368a27.733333 27.733333 0 0 1-39.253333 39.253333l-70.058667-70.144-70.144 70.101333zM512.256 710.826667c-56.746667 0-109.525333-10.538667-149.12-28.842667C325.973333 664.832 290.133333 635.477333 290.133333 593.365333c0-31.488 20.053333-55.808 45.653334-73.258666-59.946667-78.72-102.101333-173.482667-130.261334-253.013334-38.613333-108.885333 47.872-209.92 157.525334-209.92h297.813333c109.909333 0 196.394667 101.504 157.653333 210.56-28.288 79.530667-70.357333 174.208-129.792 252.330667 25.685333 17.493333 45.696 41.813333 45.696 73.301333 0 42.112-35.84 71.466667-73.045333 88.618667-39.594667 18.304-92.330667 28.842667-149.077333 28.842667zM389.077333 494.506667c35.456-11.946667 78.08-18.602667 123.178667-18.602667 44.970667 0 87.424 6.656 122.794667 18.474667a345.6 345.6 0 0 1 2.688 0.853333c57.856-72.874667 99.84-165.589333 128.469333-246.101333 24.021333-67.541333-27.904-136.490667-105.386667-136.490667h-297.813333c-77.354667 0-129.109333 68.608-105.258667 135.936 28.458667 80.384 70.528 173.184 128.981334 246.656l2.346666-0.725333z m228.992 52.693333a378.88 378.88 0 0 0-64.768-12.970667 448.938667 448.938667 0 0 0-40.405333-2.858666h-1.066667a185.386667 185.386667 0 0 0-10.496 0.341333 450.858667 450.858667 0 0 0-29.994666 2.517333 379.477333 379.477333 0 0 0-65.194667 13.056 201.984 201.984 0 0 0-19.754667 7.808C353.28 570.453333 345.6 585.941333 345.6 593.365333c0 7.466667 7.68 22.997333 40.832 38.272 30.762667 14.208 75.264 23.722667 125.866667 23.722667 50.602667 0 95.061333-9.514667 125.866666-23.722667 33.109333-15.274667 40.789333-30.805333 40.789334-38.272 0-7.424-7.68-22.954667-40.832-38.272-6.144-2.816-12.8-5.461333-20.010667-7.893333z"/></svg>