<?xml version="1.0" standalone="no"?><!DOCTYPE svg PUBLIC "-//W3C//DTD SVG 1.1//EN"
        "http://www.w3.org/Graphics/SVG/1.1/DTD/svg11.dtd"><svg viewBox="0 0 1024 1024" version="1.1" xmlns="http://www.w3.org/2000/svg" xmlns:xlink="http://www.w3.org/1999/xlink"><path transform="scale(1, -1) translate(0, -1024)" d="M226.133333 674.133333a46.933333 46.933333 0 0 0 46.933334 46.933334h119.466666v-59.733334H285.866667v-554.666666h452.266666v554.666666h-106.666666V721.066667h119.466666a46.933333 46.933333 0 0 0 46.933334-46.933334v-580.266666a46.933333 46.933333 0 0 0-46.933334-46.933334H273.066667a46.933333 46.933333 0 0 0-46.933334 46.933334V674.133333zM396.8 422.314667a29.866667 29.866667 0 0 0 29.866667 29.866666h170.666666a29.866667 29.866667 0 1 0 0-59.733333h-170.666666a29.866667 29.866667 0 0 0-29.866667 29.866667zM396.8 295.936a29.866667 29.866667 0 0 0 29.866667 29.866667h170.666666a29.866667 29.866667 0 1 0 0-59.733334h-170.666666a29.866667 29.866667 0 0 0-29.866667 29.866667zM512 746.666667a21.333333 21.333333 0 0 1-21.333333-21.333334v-33.28a30.72 30.72 0 0 0-30.72-30.72H422.4v-42.666666h179.2v42.666666h-37.546667a30.72 30.72 0 0 0-30.72 30.72V725.333333a21.333333 21.333333 0 0 1-21.333333 21.333334z m-81.066667-21.333334a81.066667 81.066667 0 0 0 162.133334 0v-4.266666h68.266666v-115.2a46.933333 46.933333 0 0 0-46.933333-46.933334H409.6a46.933333 46.933333 0 0 0-46.933333 46.933334V721.066667h68.266666V725.333333z"/></svg>