<?xml version="1.0" standalone="no"?><!DOCTYPE svg PUBLIC "-//W3C//DTD SVG 1.1//EN"
        "http://www.w3.org/Graphics/SVG/1.1/DTD/svg11.dtd"><svg viewBox="0 0 1024 1024" version="1.1" xmlns="http://www.w3.org/2000/svg" xmlns:xlink="http://www.w3.org/1999/xlink"><path transform="scale(1, -1) translate(0, -1024)" d="M352.256 683.306667H260.864c-67.029333 0-114.986667-63.317333-93.610667-126.762667 45.269333-134.144 106.154667-252.970667 185.088-331.946667 78.976-78.933333 197.802667-139.818667 331.946667-185.088 63.445333-21.418667 126.762667 26.581333 126.762667 93.610667v91.392c0 23.936-12.970667 45.994667-33.877334 57.6L697.6 326.4l-6.485333 3.157333a65.877333 65.877333 0 0 1-55.04-1.834666l-75.050667-37.461334-4.096 1.28a225.877333 225.877333 0 0 0-64.554667 33.322667 198.101333 198.101333 0 0 0-39.936 40.021333 223.445333 223.445333 0 0 0-29.781333 54.528l-3.541333 9.984-1.28 4.138667 37.504 75.008a65.92 65.92 0 0 1-1.322667 61.44L409.898667 649.386667a65.92 65.92 0 0 1-57.6 33.92z m-91.392-59.733334h91.392c2.261333 0 4.309333-1.194667 5.418667-3.157333L401.749333 541.013333a6.186667 6.186667 0 0 0 0.128-5.76l-42.496-84.949333a29.866667 29.866667 0 0 1-2.56-19.072c5.12-26.496 19.413333-64.256 47.744-102.144a258.56 258.56 0 0 1 51.925334-52.010667c37.973333-28.458667 75.776-42.752 102.4-47.829333a29.866667 29.866667 0 0 1 18.944 2.602667l84.906666 42.453333a6.144 6.144 0 0 0 5.802667-0.085333l79.616-44.288a6.186667 6.186667 0 0 0 3.157333-5.418667v-91.392c0-26.965333-23.936-45.098667-47.914666-36.992-126.165333 42.581333-237.824 99.754667-308.821334 170.709333-70.954667 70.997333-128.128 182.613333-170.709333 308.821334-8.106667 23.978667 10.069333 47.914667 36.992 47.914666zM663.296 693.248a29.866667 29.866667 0 0 0 45.397333-38.570667l-3.157333-3.669333-74.922667-74.88 74.922667-74.88a29.866667 29.866667 0 0 0 3.114667-38.570667l-3.114667-3.669333a29.866667 29.866667 0 0 0-38.570667-3.157333l-3.669333 3.157333-96 96a29.866667 29.866667 0 0 0-3.157333 38.528l3.157333 3.712 96 96zM848.810667 605.866667a29.866667 29.866667 0 0 0 4.053333-59.477334l-4.053333-0.256h-260.394667a29.866667 29.866667 0 0 0-4.053333 59.434667l4.053333 0.298667h260.394667z"/></svg>