<?xml version="1.0" standalone="no"?><!DOCTYPE svg PUBLIC "-//W3C//DTD SVG 1.1//EN"
        "http://www.w3.org/Graphics/SVG/1.1/DTD/svg11.dtd"><svg viewBox="0 0 1024 1024" version="1.1" xmlns="http://www.w3.org/2000/svg" xmlns:xlink="http://www.w3.org/1999/xlink"><path transform="scale(1, -1) translate(0, -1024)" d="M307.2 652.8a4.266667 4.266667 0 0 1-4.266667-4.266667v-505.173333l72.234667 51.626667a29.866667 29.866667 0 0 0 34.730667 0L512 122.026667l102.101333 72.96a29.866667 29.866667 0 0 0 34.730667 0l72.234667-51.626667V648.533333a4.266667 4.266667 0 0 1-4.266667 4.266667H307.2z m-64-4.266667a64 64 0 0 0 64 64h409.6a64 64 0 0 0 64-64V85.333333a29.866667 29.866667 0 0 0-47.232-24.32L631.466667 133.973333l-102.101334-72.96a29.866667 29.866667 0 0 0-34.730666 0L392.533333 133.973333l-102.101333-72.96A29.866667 29.866667 0 0 0 243.2 85.333333V648.533333zM409.6 550.4a29.866667 29.866667 0 1 1 0-59.733333h204.8a29.866667 29.866667 0 1 1 0 59.733333H409.6zM409.6 413.866667a29.866667 29.866667 0 1 1 0-59.733334h204.8a29.866667 29.866667 0 1 1 0 59.733334H409.6z"/></svg>