<?xml version="1.0" standalone="no"?><!DOCTYPE svg PUBLIC "-//W3C//DTD SVG 1.1//EN"
        "http://www.w3.org/Graphics/SVG/1.1/DTD/svg11.dtd"><svg viewBox="0 0 1024 1024" version="1.1" xmlns="http://www.w3.org/2000/svg" xmlns:xlink="http://www.w3.org/1999/xlink"><path transform="scale(1, -1) translate(0, -1024)" d="M768 269.866667a29.866667 29.866667 0 0 0 29.866667-29.866667v-144c0-34.133333-27.733333-61.866667-61.866667-61.866667h-104.021333a29.866667 29.866667 0 1 0 0 59.733334h104.021333a2.133333 2.133333 0 0 1 2.133333 2.133333v144a29.866667 29.866667 0 0 0 29.866667 29.866667zM226.133333 672c0 34.133333 27.733333 61.866667 61.866667 61.866667h448c34.133333 0 61.866667-27.733333 61.866667-61.866667V512a29.866667 29.866667 0 0 0-59.733334 0V672a2.133333 2.133333 0 0 1-2.133333 2.133333H288a2.133333 2.133333 0 0 1-2.133333-2.133333v-576c0-1.194667 0.938667-2.133333 2.133333-2.133333H384a29.866667 29.866667 0 1 0 0-59.733334H288c-34.133333 0-61.866667 27.733333-61.866667 61.866667V672zM786.773333 423.253333a29.866667 29.866667 0 0 0 4.437334-42.026666l-272-336a29.866667 29.866667 0 0 0-46.421334 37.546666l272 336.042667a29.866667 29.866667 0 0 0 41.984 4.394667zM384 541.866667a29.866667 29.866667 0 1 1 0-59.733334h224a29.866667 29.866667 0 1 1 0 59.733334H384zM384 413.866667a29.866667 29.866667 0 1 1 0-59.733334h128a29.866667 29.866667 0 1 1 0 59.733334H384z"/></svg>