<?xml version="1.0" standalone="no"?><!DOCTYPE svg PUBLIC "-//W3C//DTD SVG 1.1//EN"
        "http://www.w3.org/Graphics/SVG/1.1/DTD/svg11.dtd"><svg viewBox="0 0 1024 1024" version="1.1" xmlns="http://www.w3.org/2000/svg" xmlns:xlink="http://www.w3.org/1999/xlink"><path transform="scale(1, -1) translate(0, -1024)" d="M614.314667 792.149333a27.861333 27.861333 0 0 0 38.058666-10.24l68.906667-119.253333a27.861333 27.861333 0 0 0-24.192-41.813333l-274.986667 0.298666a27.861333 27.861333 0 0 0-13.909333 52.010667l206.08 118.997333z m-88.32-115.370666l122.837333-0.170667-30.805333 53.333333-92.074667-53.162666zM243.2 676.394667c-31.872 0-57.728-25.856-57.728-57.728v-418.133334c0-31.872 25.856-57.728 57.728-57.728h537.6c31.872 0 57.728 25.856 57.728 57.728V618.666667c0 31.872-25.856 57.728-57.728 57.728H243.2zM241.194667 618.666667c0 1.109333 0.896 2.005333 2.005333 2.005333h537.6c1.109333 0 2.005333-0.896 2.005333-2.005333v-106.538667h-102.826666c-57.386667 0-106.24-44.629333-106.24-102.528s48.853333-102.528 106.24-102.528h102.826666V200.533333c0-1.109333-0.896-2.005333-2.005333-2.005333H243.2a2.005333 2.005333 0 0 0-2.005333 2.005333V618.666667z m388.266666-209.066667c0 24.576 21.333333 46.805333 50.517334 46.805333h102.826666v-93.610666h-102.826666c-29.184 0-50.517333 22.229333-50.517334 46.805333z"/></svg>