<?xml version="1.0" standalone="no"?><!DOCTYPE svg PUBLIC "-//W3C//DTD SVG 1.1//EN"
        "http://www.w3.org/Graphics/SVG/1.1/DTD/svg11.dtd"><svg viewBox="0 0 1024 1024" version="1.1" xmlns="http://www.w3.org/2000/svg" xmlns:xlink="http://www.w3.org/1999/xlink"><path transform="scale(1, -1) translate(0, -1024)" d="M512.32768 451.46112a28.672 28.672 0 0 0 28.672-28.672v-181.0432a28.672 28.672 0 1 0-57.344 0v181.0432a28.672 28.672 0 0 0 28.672 28.672zM374.04672 767.7952a27.72992 27.72992 0 0 0 39.19872 0l99.08224-99.04128 99.04128 99.04128a27.72992 27.72992 0 0 0 39.19872-39.19872l-72.33536-72.2944h230.72768c14.7456 0 26.70592-12.00128 26.70592-26.74688v-119.27552c0-14.7456-11.96032-26.70592-26.70592-26.70592h-17.77664v-329.27744c0-14.7456-11.96032-26.70592-26.70592-26.70592H260.17792a26.70592 26.70592 0 0 0-26.74688 26.70592v329.27744H215.04a26.70592 26.70592 0 0 0-26.74688 26.70592V629.5552c0 14.7456 12.00128 26.74688 26.74688 26.74688h231.34208L374.04672 728.59648a27.72992 27.72992 0 0 0 0 39.19872z m130.90816-164.94592H241.74592v-65.86368h540.4672V602.84928h-262.51264a27.8528 27.8528 0 0 0-14.7456 0zM286.88384 483.5328v-302.4896h450.84672V483.5328H286.88384z"/></svg>