<?xml version="1.0" standalone="no"?><!DOCTYPE svg PUBLIC "-//W3C//DTD SVG 1.1//EN"
        "http://www.w3.org/Graphics/SVG/1.1/DTD/svg11.dtd"><svg viewBox="0 0 1024 1024" version="1.1" xmlns="http://www.w3.org/2000/svg" xmlns:xlink="http://www.w3.org/1999/xlink"><path transform="scale(1, -1) translate(0, -1024)" d="M663.722667 570.496h37.973333a27.733333 27.733333 0 1 0 0-55.466667h-37.973333a154.282667 154.282667 0 0 0-303.488 0h-37.973334a27.733333 27.733333 0 0 0 0 55.466667h37.973334a154.282667 154.282667 0 0 0 303.488 0zM512 641.536a98.816 98.816 0 0 1-94.805333-70.997333h189.610666A98.816 98.816 0 0 1 512 641.536z m0-197.546667a98.816 98.816 0 0 1 94.805333 71.04H417.194667A98.816 98.816 0 0 1 512 444.032zM215.466667 115.882667c0 156.586667 134.4 280.746667 296.533333 280.746666 162.133333 0 296.533333-124.16 296.533333-280.746666a27.733333 27.733333 0 0 0-27.733333-27.733334H243.2a27.733333 27.733333 0 0 0-27.733333 27.733334z m57.301333 27.733333h478.464c-14.549333 110.165333-114.773333 197.546667-239.232 197.546667-124.458667 0-224.682667-87.424-239.232-197.546667zM444.885333 258.133333a27.733333 27.733333 0 1 1-55.466666 0v-63.232a27.733333 27.733333 0 1 1 55.466666 0v63.274667zM634.581333 258.133333a27.733333 27.733333 0 1 1-55.466666 0v-63.232a27.733333 27.733333 0 1 1 55.466666 0v63.274667z"/></svg>