<?xml version="1.0" standalone="no"?><!DOCTYPE svg PUBLIC "-//W3C//DTD SVG 1.1//EN"
        "http://www.w3.org/Graphics/SVG/1.1/DTD/svg11.dtd"><svg viewBox="0 0 1024 1024" version="1.1" xmlns="http://www.w3.org/2000/svg" xmlns:xlink="http://www.w3.org/1999/xlink"><path transform="scale(1, -1) translate(0, -1024)" d="M416.256 345.429333a25.6 25.6 0 1 1 0-51.2h191.488a25.6 25.6 0 0 1 0 51.2H416.256zM416.256 238.805333a25.6 25.6 0 1 1 0-51.2h191.488a25.6 25.6 0 1 1 0 51.2H416.256zM523.093333 708.608a27.733333 27.733333 0 0 1-22.186666 0L234.24 591.957333a27.733333 27.733333 0 0 1-16.64-25.429333v-464c0-15.36 12.416-27.733333 27.733333-27.733333h533.333334a27.733333 27.733333 0 0 1 27.733333 27.733333V566.528a27.733333 27.733333 0 0 1-16.64 25.429333l-266.666667 116.650667zM273.066667 130.261333v418.133334l238.933333 104.533333 238.933333-104.533333v-418.133334h-117.589333v263.210667h22.229333a25.6 25.6 0 1 1 0 51.2h-287.146666a25.6 25.6 0 1 1 0-51.2h22.229333v-263.253333H273.066667z m309.077333 263.210667v-263.253333h-140.288v263.253333h140.288z"/></svg>