<?xml version="1.0" standalone="no"?><!DOCTYPE svg PUBLIC "-//W3C//DTD SVG 1.1//EN"
        "http://www.w3.org/Graphics/SVG/1.1/DTD/svg11.dtd"><svg viewBox="0 0 1024 1024" version="1.1" xmlns="http://www.w3.org/2000/svg" xmlns:xlink="http://www.w3.org/1999/xlink"><path transform="scale(1, -1) translate(0, -1024)" d="M508.629333 700.16a147.754667 147.754667 0 1 1 0-295.509333 147.754667 147.754667 0 0 1 0 295.509333z m0-59.733333a88.021333 88.021333 0 1 0 0-176.042667 88.021333 88.021333 0 0 0 0 176.042667zM731.050667 663.338667a29.866667 29.866667 0 0 0 40.106666-13.354667c2.858667-5.76 6.698667-15.36 10.368-28.16a248.064 248.064 0 0 0-9.472-164.906667 29.866667 29.866667 0 0 0-55.296 22.613334 189.141333 189.141333 0 0 1 4.352 135.253333l-2.474666 6.485333-0.938667 2.005334a29.866667 29.866667 0 0 0 13.354667 40.064zM847.786667 730.112a29.866667 29.866667 0 0 0 40.618666-11.605333c2.56-4.608 5.632-10.922667 8.917334-18.773334l5.077333-12.970666c1.706667-4.693333 3.456-9.813333 5.205333-15.232 27.349333-85.717333 27.349333-183.04-18.090666-283.050667a29.866667 29.866667 0 0 0-54.4 24.746667c38.741333 85.205333 38.741333 167.552 15.573333 240.170666a303.104 303.104 0 0 1-7.04 19.797334l-4.138667 9.642666-3.285333 6.656a29.866667 29.866667 0 0 0 11.562667 40.618667zM580.565333 329.557333l-131.626666 0.042667-29.013334-0.256-23.893333-0.682667-13.525333-0.725333-11.818667-0.981333a218.88 218.88 0 0 1-15.274667-2.005334l-8.832-1.792c-4.224-0.981333-8.149333-2.133333-11.946666-3.413333l-7.509334-2.858667-7.381333-3.328a164.650667 164.650667 0 0 1-75.690667-73.813333c-10.538667-20.693333-15.061333-41.173333-16.853333-78.634667l-0.64-18.517333-0.426667-33.194667V64a29.866667 29.866667 0 0 1 29.866667-29.866667h505.258667a29.866667 29.866667 0 0 1 29.866666 29.866667v42.88l-0.341333 29.013333-0.384 16.469334-0.597333 14.378666-0.853334 12.629334-1.109333 11.093333a230.4 230.4 0 0 1-0.682667 5.12l-1.578666 9.301333a132.650667 132.650667 0 0 1-2.005334 8.448l-2.389333 7.850667c-0.426667 1.28-0.853333 2.56-1.365333 3.754667l-3.072 7.424a164.650667 164.650667 0 0 1-75.52 79.36 133.632 133.632 0 0 1-20.736 8.576l-8.96 2.517333a162.261333 162.261333 0 0 1-9.813334 2.005333l-10.965333 1.578667-12.288 1.237333a429.098667 429.098667 0 0 1-6.741333 0.469334l-14.890667 0.725333-16.938667 0.469333-19.328 0.256z m-1.024-59.733333l26.154667-0.426667 14.336-0.512 12.202667-0.768 5.418666-0.426666 9.514667-1.194667 8.149333-1.450667c5.034667-1.109333 9.301333-2.389333 13.226667-3.968l5.589333-2.56c19.754667-10.069333 35.797333-26.112 45.824-45.866666l2.304-4.949334 2.048-5.418666c0.64-1.877333 1.194667-3.882667 1.706667-6.016l1.450667-6.912 1.152-8.021334 0.469333-4.522666 0.853333-10.24 0.554667-11.946667 0.426667-14.037333 0.426666-35.2v-11.477334H285.866667l0.085333 26.197334 0.512 27.733333 0.64 15.018667 0.426667 6.613333 1.152 11.605333c1.749333 14.208 4.48 23.466667 8.618666 31.573334a104.874667 104.874667 0 0 0 45.824 45.824l2.517334 1.28 5.205333 2.133333c2.688 1.024 5.589333 1.92 8.789333 2.688l6.912 1.408 8.021334 1.152 9.386666 0.938667 11.093334 0.682666 12.928 0.512 23.594666 0.469334 9.088 0.085333h138.88z"/></svg>