<?xml version="1.0" standalone="no"?><!DOCTYPE svg PUBLIC "-//W3C//DTD SVG 1.1//EN"
        "http://www.w3.org/Graphics/SVG/1.1/DTD/svg11.dtd"><svg viewBox="0 0 1024 1024" version="1.1" xmlns="http://www.w3.org/2000/svg" xmlns:xlink="http://www.w3.org/1999/xlink"><path transform="scale(1, -1) translate(0, -1024)" d="M163.2 640.213333c0 15.914667 12.885333 28.8 28.8 28.8H384a156.8 156.8 0 0 0 156.8-156.8v-448a28.8 28.8 0 1 0-57.6 0c0 37.12-30.08 67.2-67.2 67.2H192a28.8 28.8 0 0 0-28.8 28.8V640.213333z m320-470.784V512.213333A99.2 99.2 0 0 1 384 611.413333H220.8v-422.4H416c24.746667 0 47.786667-7.168 67.2-19.626666zM483.2 512.213333A156.8 156.8 0 0 0 640 669.013333h192c15.914667 0 28.8-12.885333 28.8-28.8v-480a28.8 28.8 0 0 0-28.8-28.8h-224c-37.12 0-67.2-30.08-67.2-67.2a28.8 28.8 0 1 0-57.6 0v448z m57.6-342.784c19.413333 12.373333 42.453333 19.626667 67.2 19.626667h195.2v422.4H640a99.2 99.2 0 0 1-99.2-99.242667v-342.784zM282.197333 470.826667a25.6 25.6 0 0 0 25.6 25.6h88.448a25.6 25.6 0 0 0 0-51.2H307.797333a25.6 25.6 0 0 0-25.6 25.6zM282.197333 320.469333a25.6 25.6 0 0 0 25.6 25.6h88.448a25.6 25.6 0 1 0 0-51.2H307.797333a25.6 25.6 0 0 0-25.6 25.6zM611.285333 470.826667a25.6 25.6 0 0 0 25.6 25.6H725.333333a25.6 25.6 0 0 0 0-51.2h-88.448a25.6 25.6 0 0 0-25.6 25.6zM611.285333 320.469333a25.6 25.6 0 0 0 25.6 25.6H725.333333a25.6 25.6 0 0 0 0-51.2h-88.448a25.6 25.6 0 0 0-25.6 25.6z"/></svg>