<?xml version="1.0" standalone="no"?><!DOCTYPE svg PUBLIC "-//W3C//DTD SVG 1.1//EN"
        "http://www.w3.org/Graphics/SVG/1.1/DTD/svg11.dtd"><svg viewBox="0 0 1024 1024" version="1.1" xmlns="http://www.w3.org/2000/svg" xmlns:xlink="http://www.w3.org/1999/xlink"><path transform="scale(1, -1) translate(0, -1024)" d="M445.610667 662.741333a29.866667 29.866667 0 0 1 0-59.733333h233.130666a29.866667 29.866667 0 1 1 0 59.733333h-233.130666zM445.610667 496.810667a29.866667 29.866667 0 1 1 0-59.733334H810.666667a29.866667 29.866667 0 1 1 0 59.733334h-365.056zM445.610667 330.922667a29.866667 29.866667 0 1 1 0-59.733334h233.130666a29.866667 29.866667 0 1 1 0 59.733334h-233.130666zM445.610667 164.992a29.866667 29.866667 0 1 1 0-59.733333H810.666667a29.866667 29.866667 0 1 1 0 59.733333h-365.056zM183.466667 301.056a29.866667 29.866667 0 0 0 29.866666 29.866667h99.541334a29.866667 29.866667 0 0 0 29.866666-29.866667v-49.792a29.866667 29.866667 0 0 0-8.746666-21.12l-65.152-65.152h44.032a29.866667 29.866667 0 1 0 0-59.733333H213.333333a29.866667 29.866667 0 0 0-29.866666 29.866666v16.597334a29.866667 29.866667 0 0 0 8.746666 21.12l90.794667 90.794666v7.552H213.333333a29.866667 29.866667 0 0 0-29.866666 29.866667zM274.56 660.48a29.866667 29.866667 0 0 0 18.432-27.605333v-136.064h3.285333a29.866667 29.866667 0 0 0 0-59.733334H229.973333a29.866667 29.866667 0 1 0 0 59.733334h3.328V570.026667a29.824 29.824 0 0 0-24.448 50.773333l33.194667 33.194667a29.866667 29.866667 0 0 0 32.554667 6.485333z"/></svg>