<?xml version="1.0" standalone="no"?><!DOCTYPE svg PUBLIC "-//W3C//DTD SVG 1.1//EN"
        "http://www.w3.org/Graphics/SVG/1.1/DTD/svg11.dtd"><svg viewBox="0 0 1024 1024" version="1.1" xmlns="http://www.w3.org/2000/svg" xmlns:xlink="http://www.w3.org/1999/xlink"><path transform="scale(1, -1) translate(0, -1024)" d="M656.810667 744.533333a26.496 26.496 0 0 0 34.474666-14.805333l61.866667-154.666667a26.496 26.496 0 1 0-49.237333-19.669333l-52.053334 130.048L289.877333 540.586667a26.496 26.496 0 1 0-19.669333 49.237333l386.645333 154.666667zM176.170667 565.248c0 14.634667 11.861333 26.496 26.496 26.496h618.666666c14.634667 0 26.496-11.861333 26.496-26.496v-92.8a26.496 26.496 0 0 0-26.496-26.538667c-36.48 0-66.304-23.381333-66.304-58.538666 0-19.456 8.405333-38.272 21.76-52.352 13.482667-14.208 30.08-21.674667 44.544-21.674667 14.634667 0 26.496-11.861333 26.496-26.496v-92.8a26.496 26.496 0 0 0-26.496-26.538667H202.666667a26.496 26.496 0 0 0-26.496 26.538667v92.8c0 14.634667 11.861333 26.496 26.496 26.496 17.536 0 34.218667 5.888 46.165333 16.512 11.52 10.197333 20.138667 26.026667 20.138667 49.792 0 23.722667-8.661333 39.594667-20.138667 49.749333a69.632 69.632 0 0 1-46.165333 16.512 26.496 26.496 0 0 0-26.496 26.538667V565.248z m52.992-26.538667v-42.496c19.882667-4.138667 39.082667-13.056 54.912-27.178666 23.338667-20.736 37.888-51.285333 37.888-89.386667 0-38.144-14.506667-68.693333-37.888-89.429333-15.829333-14.08-34.986667-23.04-54.912-27.178667v-42.496h565.632v43.349333a123.818667 123.818667 0 0 0-56.533334 34.688 130.133333 130.133333 0 0 0-36.266666 88.746667c0 61.738667 44.928 98.816 92.8 108.8v42.581333H229.162667zM403.712 446.592a26.496 26.496 0 1 1 0-53.034667h92.8a26.496 26.496 0 0 1 0 53.034667H403.712zM403.712 353.792a26.496 26.496 0 0 1 0-53.034667h216.533333a26.496 26.496 0 1 1 0 53.034667H403.712z"/></svg>