<?xml version="1.0" standalone="no"?><!DOCTYPE svg PUBLIC "-//W3C//DTD SVG 1.1//EN"
        "http://www.w3.org/Graphics/SVG/1.1/DTD/svg11.dtd"><svg viewBox="0 0 1024 1024" version="1.1" xmlns="http://www.w3.org/2000/svg" xmlns:xlink="http://www.w3.org/1999/xlink"><path transform="scale(1, -1) translate(0, -1024)" d="M750.933333 327.424a25.6 25.6 0 0 0 36.224 0l73.130667-73.130667a25.6 25.6 0 0 0 0-36.181333l-182.869333-182.869333a25.6 25.6 0 0 0-18.090667-7.509334h-73.130667a25.6 25.6 0 0 0-25.6 25.6v73.130667a25.6 25.6 0 0 0 7.466667 18.133333l182.869333 182.826667z m-139.136-211.541333v-36.949334h36.906667l157.269333 157.269334-36.949333 36.949333-157.226667-157.269333zM300.032 740.138667c-34.517333 0-62.506667-27.989333-62.506667-62.506667v-587.264c0-34.56 27.989333-62.506667 62.506667-62.506667h195.754667a29.866667 29.866667 0 1 1 0 59.733334H300.032a2.773333 2.773333 0 0 0-2.773333 2.773333V677.632c0 1.536 1.28 2.773333 2.773333 2.773333h296.405333v-133.290666a29.866667 29.866667 0 0 1 29.866667-29.866667h133.290667v-116.906667a29.866667 29.866667 0 1 1 59.733333 0v146.346667 0.426667c0 7.850667-2.986667 14.976-7.936 20.309333l-146.56 162.816a29.866667 29.866667 0 0 1-22.186667 9.898667h-342.613333z m356.138667-89.6l66.218666-73.557334h-66.218666V650.581333z"/></svg>