<?xml version="1.0" standalone="no"?><!DOCTYPE svg PUBLIC "-//W3C//DTD SVG 1.1//EN"
        "http://www.w3.org/Graphics/SVG/1.1/DTD/svg11.dtd"><svg viewBox="0 0 1024 1024" version="1.1" xmlns="http://www.w3.org/2000/svg" xmlns:xlink="http://www.w3.org/1999/xlink"><path transform="scale(1, -1) translate(0, -1024)" d="M704 301.653333a32 32 0 0 0 32-32c0-61.781333-33.109333-106.154667-78.506667-133.546666-44.16-26.624-100.608-37.973333-154.453333-37.973334a32 32 0 0 0 0 64c46.08 0 90.112 9.941333 121.429333 28.8 30.122667 18.176 47.530667 43.605333 47.530667 78.762667a32 32 0 0 0 32 32zM512 672A160 160 0 0 1 352 512v-256a32 32 0 0 0-32-32h-0.170667a160 160 0 0 0-29.952 317.184 224.042667 224.042667 0 0 0 444.245334 0 160.042667 160.042667 0 0 0-29.952-317.184H704a32 32 0 0 0-32 32V512A160 160 0 0 1 512 672z m224-378.538667a96.042667 96.042667 0 0 1 0 181.077334v-181.077334zM224 384c0-41.813333 26.709333-77.354667 64-90.538667V474.538667A96 96 0 0 1 224 384z"/></svg>