<?xml version="1.0" standalone="no"?><!DOCTYPE svg PUBLIC "-//W3C//DTD SVG 1.1//EN"
        "http://www.w3.org/Graphics/SVG/1.1/DTD/svg11.dtd"><svg viewBox="0 0 1024 1024" version="1.1" xmlns="http://www.w3.org/2000/svg" xmlns:xlink="http://www.w3.org/1999/xlink"><path transform="scale(1, -1) translate(0, -1024)" d="M360.405333 504.234667a29.866667 29.866667 0 1 1 0-59.733334h120.490667a29.866667 29.866667 0 0 1 0 59.733334H360.405333zM360.405333 353.621333a29.866667 29.866667 0 1 1 0-59.733333h180.736a29.866667 29.866667 0 1 1 0 59.733333H360.405333zM300.16 715.050667c-33.109333 0-59.989333-26.88-59.989333-59.989334v-542.122666c0-33.152 26.88-59.989333 59.989333-59.989334h421.674667c33.109333 0 59.989333 26.88 59.989333 59.989334V444.16a29.866667 29.866667 0 0 1-59.733333 0v-331.306667l-0.085334-0.085333-0.085333-0.085333H300.074667l-0.085334 0.085333a0.341333 0.341333 0 0 0-0.042666 0.085333V655.146667l0.042666 0.085333a0.298667 0.298667 0 0 0 0.085334 0.085333H601.386667a29.866667 29.866667 0 1 1 0 59.733334h-301.226667zM803.157333 633.941333a29.866667 29.866667 0 1 1-42.24 42.24l-180.608-180.650666a29.866667 29.866667 0 0 1 42.24-42.24l180.608 180.650666z"/></svg>