<?xml version="1.0" standalone="no"?><!DOCTYPE svg PUBLIC "-//W3C//DTD SVG 1.1//EN"
        "http://www.w3.org/Graphics/SVG/1.1/DTD/svg11.dtd"><svg viewBox="0 0 1024 1024" version="1.1" xmlns="http://www.w3.org/2000/svg" xmlns:xlink="http://www.w3.org/1999/xlink"><path transform="scale(1, -1) translate(0, -1024)" d="M306.176 648.192l-0.042667-0.170667v-510.037333l192.64 99.584c8.277333 4.266667 18.176 4.266667 26.453334 0l192.64-99.584V648.021333v0.170667a0.64 0.64 0 0 1-0.298667 0.298667l-0.256 0.042666H306.688a0.426667 0.426667 0 0 1-0.213333 0 0.597333 0.597333 0 0 1-0.170667-0.170666 0.597333 0.597333 0 0 1-0.128-0.170667z m-57.642667-0.170667c0 32.085333 26.026667 58.112 58.154667 58.112h410.666667c32.085333 0 58.112-26.026667 58.112-58.112v-557.354666a28.8 28.8 0 0 0-42.026667-25.6L512 179.626667l-221.44-114.474667a28.8 28.8 0 0 0-42.026667 25.557333V648.021333zM365.866667 472.021333c0 15.872 12.885333 28.8 28.8 28.8h234.666666a28.8 28.8 0 1 0 0-57.6h-234.666666a28.8 28.8 0 0 0-28.8 28.8z"/></svg>