<?xml version="1.0" standalone="no"?><!DOCTYPE svg PUBLIC "-//W3C//DTD SVG 1.1//EN"
        "http://www.w3.org/Graphics/SVG/1.1/DTD/svg11.dtd"><svg viewBox="0 0 1024 1024" version="1.1" xmlns="http://www.w3.org/2000/svg" xmlns:xlink="http://www.w3.org/1999/xlink"><path transform="scale(1, -1) translate(0, -1024)" d="M496.853333 748.586667a29.866667 29.866667 0 0 0 30.293334 0l288-169.386667a29.866667 29.866667 0 0 0 14.72-25.770667v-338.816a29.866667 29.866667 0 0 0-14.72-25.770666l-288-169.386667a29.866667 29.866667 0 0 0-30.293334 0l-288 169.386667a29.866667 29.866667 0 0 0-14.72 25.770666V553.386667a29.866667 29.866667 0 0 0 14.72 25.770666l288 169.386667zM253.866667 536.32v-304.64L512 79.786667l258.133333 151.850666V536.32L512 688.213333 253.866667 536.32zM647.509333 515.498667a29.866667 29.866667 0 0 0 29.866667-29.866667v-203.264a29.866667 29.866667 0 1 0-59.733333 0V485.632a29.866667 29.866667 0 0 0 29.866666 29.866667zM512 447.744a29.866667 29.866667 0 0 0 29.866667-29.866667v-135.509333a29.866667 29.866667 0 1 0-59.733334 0v135.509333a29.866667 29.866667 0 0 0 29.866667 29.866667zM406.357333 350.122667a29.866667 29.866667 0 0 1-59.733333 0v-67.754667a29.866667 29.866667 0 1 1 59.733333 0v67.754667z"/></svg>