<?xml version="1.0" standalone="no"?><!DOCTYPE svg PUBLIC "-//W3C//DTD SVG 1.1//EN"
        "http://www.w3.org/Graphics/SVG/1.1/DTD/svg11.dtd"><svg viewBox="0 0 1024 1024" version="1.1" xmlns="http://www.w3.org/2000/svg" xmlns:xlink="http://www.w3.org/1999/xlink"><path transform="scale(1, -1) translate(0, -1024)" d="M512 663.466667a279.466667 279.466667 0 1 1 0-558.933334 279.466667 279.466667 0 0 1 0 558.933334zM172.8 384a339.2 339.2 0 1 0 678.4 0 339.2 339.2 0 0 0-678.4 0zM445.013333 499.626667a26.794667 26.794667 0 0 1-51.626666 0l-48.426667-169.6a26.069333 26.069333 0 0 1-0.298667-1.152l-13.098666-45.824a26.794667 26.794667 0 1 1 51.541333-14.72l7.68 26.965333h56.789333l7.68-26.965333a26.794667 26.794667 0 0 1 51.626667 14.72l-13.141333 45.824a26.069333 26.069333 0 0 1-0.341334 1.152L445.013333 499.626667z m-25.813333-104.96l13.056-45.781334H406.186667l13.056 45.738667zM558.378667 519.04a26.794667 26.794667 0 0 1-26.794667-26.837333v-216.533334c0-14.805333 11.989333-26.794667 26.794667-26.794666 37.674667 0 75.264 8.448 103.978666 30.762666 29.781333 23.168 46.592 58.538667 46.592 104.32 0 45.781333-16.810667 81.152-46.592 104.32-28.714667 22.314667-66.261333 30.72-103.978666 30.72z m26.837333-214.528V463.36c18.218667-2.901333 33.152-8.917333 44.202667-17.493333 15.018667-11.648 25.898667-30.421333 25.898666-61.952 0-31.573333-10.88-50.346667-25.898666-61.952-11.050667-8.618667-25.984-14.592-44.202667-17.493334z"/></svg>