<?xml version="1.0" standalone="no"?><!DOCTYPE svg PUBLIC "-//W3C//DTD SVG 1.1//EN"
        "http://www.w3.org/Graphics/SVG/1.1/DTD/svg11.dtd"><svg viewBox="0 0 1024 1024" version="1.1" xmlns="http://www.w3.org/2000/svg" xmlns:xlink="http://www.w3.org/1999/xlink"><path transform="scale(1, -1) translate(0, -1024)" d="M172.8 384a339.2 339.2 0 1 0 678.4 0 339.2 339.2 0 0 0-678.4 0zM512 663.466667a279.466667 279.466667 0 1 1 0-558.933334 279.466667 279.466667 0 0 1 0 558.933334zM440.32 544.298667a29.866667 29.866667 0 0 1-42.24-42.24l57.258667-57.258667h-36.138667a29.866667 29.866667 0 1 1 0-59.733333h63.061333v-33.066667H419.2a29.866667 29.866667 0 1 1 0-59.733333h63.061333v-62.933334a29.866667 29.866667 0 1 1 59.733334 0V292.266667h62.805333a29.866667 29.866667 0 1 1 0 59.733333h-62.805333v33.066667h62.805333a29.866667 29.866667 0 1 1 0 59.733333h-36.138667l57.258667 57.258667a29.866667 29.866667 0 0 1-42.24 42.24L512 472.618667l-71.68 71.68z"/></svg>