<?xml version="1.0" standalone="no"?><!DOCTYPE svg PUBLIC "-//W3C//DTD SVG 1.1//EN"
        "http://www.w3.org/Graphics/SVG/1.1/DTD/svg11.dtd"><svg viewBox="0 0 1024 1024" version="1.1" xmlns="http://www.w3.org/2000/svg" xmlns:xlink="http://www.w3.org/1999/xlink"><path transform="scale(1, -1) translate(0, -1024)" d="M621.013333 130.133333h157.397334a29.866667 29.866667 0 1 1 0 59.733334h-12.544V434.346667a253.866667 253.866667 0 0 1-507.733334 0v-244.437334h-13.610666a29.866667 29.866667 0 1 1 0-59.733333h158.464a109.866667 109.866667 0 0 1 218.026666 0z m85.12 304.170667v-244.437333h-274.133333a21.333333 21.333333 0 0 1-0.512 0H317.866667V434.346667a194.133333 194.133333 0 0 0 388.266666 0z m-242.346666-304.170667h96.426666a50.176 50.176 0 0 0-96.426666 0zM527.573333 551.04a29.866667 29.866667 0 0 0-23.722666-34.986667c-24.618667-4.693333-41.429333-19.456-53.12-38.186666a130.901333 130.901333 0 0 1-18.432-54.186667 29.866667 29.866667 0 1 0-59.52 5.12 190.336 190.336 0 0 0 27.306666 80.682667c18.048 29.013333 47.616 56.704 92.586667 65.28a29.866667 29.866667 0 0 0 34.901333-23.722667z"/></svg>