<?xml version="1.0" standalone="no"?><!DOCTYPE svg PUBLIC "-//W3C//DTD SVG 1.1//EN"
        "http://www.w3.org/Graphics/SVG/1.1/DTD/svg11.dtd"><svg viewBox="0 0 1024 1024" version="1.1" xmlns="http://www.w3.org/2000/svg" xmlns:xlink="http://www.w3.org/1999/xlink"><path transform="scale(1, -1) translate(0, -1024)" d="M287.914667 292.138667a27.733333 27.733333 0 0 1 27.733333 27.733333V485.205333a27.733333 27.733333 0 0 1-55.466667 0v-165.333333c0-15.317333 12.373333-27.733333 27.733334-27.733333zM638.933333 615.466667c0 33.578667-27.221333 60.8-60.8 60.8H214.4c-33.578667 0-60.8-27.221333-60.8-60.8V251.733333c0-33.578667 27.221333-60.8 60.8-60.8h5.845333a27.861333 27.861333 0 0 1-0.512-5.333333 93.866667 93.866667 0 0 1 187.733334 0 27.861333 27.861333 0 0 1-0.512 5.333333h171.178666c2.005333 0 3.968 0.085333 5.888 0.298667a27.989333 27.989333 0 0 1-0.554666-5.632 93.866667 93.866667 0 0 1 187.733333 0 28.117333 28.117333 0 0 1-0.512 5.333333h71.978667a27.733333 27.733333 0 0 1 27.733333 27.733334v124.629333a27.733333 27.733333 0 0 1-8.96 20.394667l-115.712 106.837333a27.733333 27.733333 0 0 1-18.773333 7.338667h-88.021334V615.466667z m-55.466666-363.818667a5.333333 5.333333 0 0 0-5.333334-5.248H214.4A5.333333 5.333333 0 0 0 209.066667 251.733333V615.466667c0 2.986667 2.389333 5.333333 5.333333 5.333333h363.733333c2.944 0 5.333333-2.389333 5.333334-5.333333V251.648z m55.466666 170.752h77.141334l98.858666-91.221333v-84.778667h-176v4.992V422.4z m-0.512-231.466667h77.824a27.733333 27.733333 0 0 1-0.512-5.333333 38.4 38.4 0 0 0-76.8 0 28.117333 28.117333 0 0 1-0.512 5.333333z m-285.909333 0a27.861333 27.861333 0 0 1-0.512-5.333333 38.4 38.4 0 0 0-76.8 0 27.861333 27.861333 0 0 1-0.512 5.333333h77.824z"/></svg>