<?xml version="1.0" standalone="no"?><!DOCTYPE svg PUBLIC "-//W3C//DTD SVG 1.1//EN"
        "http://www.w3.org/Graphics/SVG/1.1/DTD/svg11.dtd"><svg viewBox="0 0 1024 1024" version="1.1" xmlns="http://www.w3.org/2000/svg" xmlns:xlink="http://www.w3.org/1999/xlink"><path transform="scale(1, -1) translate(0, -1024)" d="M696.789333 671.957333a27.733333 27.733333 0 0 0-12.373333-37.205333l-320-160a27.733333 27.733333 0 0 0-24.832 49.578667l320 160a27.733333 27.733333 0 0 0 37.205333-12.373334zM524.373333 764.330667a27.733333 27.733333 0 0 1-24.746666 0l-320-160a27.733333 27.733333 0 0 1-15.36-25.386667v-319.402667c0-10.496 5.973333-20.096 15.36-24.832l319.488-159.744a27.605333 27.605333 0 0 1 12.885333-3.157333l1.664 0.042667a27.562667 27.562667 0 0 1 11.221333 3.114666l319.530667 159.744a27.733333 27.733333 0 0 1 15.317333 24.832V578.986667a27.733333 27.733333 0 0 1-15.36 25.386666l-320 160z m245.632-184.789334L512 450.517333 253.994667 579.541333 512 708.522667l258.005333-128.981334zM219.733333 534.613333l264.533334-132.266666v-257.962667l-264.533334 132.266667V534.613333z m320-390.229333V402.346667l264.533334 132.266666v-257.962666l-264.533334-132.266667z"/></svg>