<?xml version="1.0" standalone="no"?><!DOCTYPE svg PUBLIC "-//W3C//DTD SVG 1.1//EN"
        "http://www.w3.org/Graphics/SVG/1.1/DTD/svg11.dtd"><svg viewBox="0 0 1024 1024" version="1.1" xmlns="http://www.w3.org/2000/svg" xmlns:xlink="http://www.w3.org/1999/xlink"><path transform="scale(1, -1) translate(0, -1024)" d="M512 489.728a27.733333 27.733333 0 0 0 27.733333-27.733333v-22.741334c8.106667-2.218667 15.872-5.376 23.082667-9.344l20.48 20.48a27.733333 27.733333 0 0 0 39.253333-39.210666l-19.754666-19.754667c4.864-8.192 8.704-17.066667 11.264-26.496h22.741333a27.733333 27.733333 0 1 0 0-55.466667h-22.741333c-2.389333-8.789333-5.845333-17.066667-10.282667-24.832l23.338667-23.338666a27.733333 27.733333 0 1 0-39.253334-39.210667l-23.296 23.338667a104.96 104.96 0 0 0-24.832-10.282667v-22.698667a27.733333 27.733333 0 1 0-55.466666 0v22.698667c-9.386667 2.56-18.346667 6.4-26.496 11.264l-24.32-24.32a27.733333 27.733333 0 0 0-39.253334 39.253333l25.088 25.002667a105.045333 105.045333 0 0 0-9.344 23.125333h-22.741333a27.733333 27.733333 0 1 0 0 55.466667h22.741333c2.389333 8.789333 5.845333 17.066667 10.282667 24.789333l-21.418667 21.461334a27.733333 27.733333 0 1 0 39.210667 39.253333l21.418667-21.461333c7.722667 4.437333 16.042667 7.893333 24.832 10.282666v22.741334a27.733333 27.733333 0 0 0 27.733333 27.733333z m-0.853333-202.794667a28.8 28.8 0 0 0 1.706666 0 50.261333 50.261333 0 1 1-51.114666 50.346667v-0.213333a50.261333 50.261333 0 0 1 49.408-50.133334zM293.589333 723.712c-32.554667 0-58.88-26.368-58.88-58.88v-561.621333c0-32.554667 26.325333-58.965333 58.88-58.965334H730.453333c32.554667 0 58.922667 26.410667 58.922667 58.965334V539.690667v0.298666a27.648 27.648 0 0 1-7.296 18.773334l-140.202667 155.776a27.733333 27.733333 0 0 1-20.650666 9.173333H293.589333z m284.288-55.466667v-128.256c0-15.317333 12.373333-27.733333 27.733334-27.733333H733.866667v-409.045333a3.456 3.456 0 0 0-3.456-3.498667H293.546667a3.456 3.456 0 0 0-3.413334 3.498667V664.746667c0 1.92 1.493333 3.456 3.413334 3.456h284.288z m121.429334-100.522666h-65.962667V641.066667l65.962667-73.344z"/></svg>