<?xml version="1.0" standalone="no"?><!DOCTYPE svg PUBLIC "-//W3C//DTD SVG 1.1//EN"
        "http://www.w3.org/Graphics/SVG/1.1/DTD/svg11.dtd"><svg viewBox="0 0 1024 1024" version="1.1" xmlns="http://www.w3.org/2000/svg" xmlns:xlink="http://www.w3.org/1999/xlink"><path transform="scale(1, -1) translate(0, -1024)" d="M981.333333 853.333333H42.666667v-938.666666h938.666666V853.333333zM909.354667 538.453333a29.013333 29.013333 0 0 1-41.045334 41.088L784.64 495.786667l-31.573333 31.573333a29.013333 29.013333 0 1 1-41.088-41.045333l52.138666-52.096a29.013333 29.013333 0 0 1 41.045334 0l104.192 104.192zM909.354667 342.741333a29.013333 29.013333 0 1 1-41.045334 41.045334l-83.669333-83.712-31.573333 31.573333a29.013333 29.013333 0 0 1-41.088-41.045333l52.096-52.096a29.013333 29.013333 0 0 1 41.088 0l104.192 104.234666zM361.813333 637.610667a29.866667 29.866667 0 1 1-45.866666-38.272L405.333333 492.032H312.832a29.866667 29.866667 0 0 1 0-59.733333h126.464v-96.597334H312.832a29.866667 29.866667 0 1 1 0-59.733333h126.464v-126.464a29.866667 29.866667 0 1 1 59.733333 0v126.464h126.464a29.866667 29.866667 0 1 1 0 59.733333h-126.464v96.597334h126.464a29.866667 29.866667 0 1 1 0 59.733333h-92.586666l89.472 107.306667a29.866667 29.866667 0 0 1-45.909334 38.272l-107.306666-128.810667L361.813333 637.610667z"/></svg>