<?xml version="1.0" standalone="no"?><!DOCTYPE svg PUBLIC "-//W3C//DTD SVG 1.1//EN"
        "http://www.w3.org/Graphics/SVG/1.1/DTD/svg11.dtd"><svg viewBox="0 0 1024 1024" version="1.1" xmlns="http://www.w3.org/2000/svg" xmlns:xlink="http://www.w3.org/1999/xlink"><path transform="scale(1, -1) translate(0, -1024)" d="M631.509333 680.277333c16.384 0 29.653333-13.269333 29.653334-29.653333v-533.333333a29.610667 29.610667 0 0 0-59.306667 0V650.666667c0 16.384 13.312 29.653333 29.653333 29.653333zM246.357333 650.666667c0 32.725333 26.496 59.264 59.221334 59.264h414.848c32.725333 0 59.221333-26.538667 59.221333-59.306667v-533.333333c0-32.682667-26.496-59.221333-59.221333-59.221334H305.578667a59.264 59.264 0 0 0-59.221334 59.264V650.666667z m474.026667 0H305.621333v-533.333334h414.848V650.666667zM187.093333 532.096c0 16.384 13.226667 29.653333 29.610667 29.653333h118.528a29.610667 29.610667 0 1 0 0-59.306666H216.704a29.610667 29.610667 0 0 0-29.610667 29.653333zM187.093333 384c0 16.341333 13.226667 29.610667 29.610667 29.610667h118.528a29.610667 29.610667 0 1 0 0-59.264H216.704a29.610667 29.610667 0 0 0-29.610667 29.610666zM216.704 265.472a29.610667 29.610667 0 1 1 0-59.264h118.528a29.610667 29.610667 0 0 1 0 59.264H216.704z"/></svg>