<?xml version="1.0" standalone="no"?><!DOCTYPE svg PUBLIC "-//W3C//DTD SVG 1.1//EN"
        "http://www.w3.org/Graphics/SVG/1.1/DTD/svg11.dtd"><svg viewBox="0 0 1024 1024" version="1.1" xmlns="http://www.w3.org/2000/svg" xmlns:xlink="http://www.w3.org/1999/xlink"><path transform="scale(1, -1) translate(0, -1024)" d="M730.88 767.018667a29.866667 29.866667 0 0 0 42.24 0l80-80a29.866667 29.866667 0 0 0 0-42.24l-240-240a29.866667 29.866667 0 0 0-21.12-8.746667H512a29.866667 29.866667 0 0 0-29.866667 29.866667V505.898667a29.866667 29.866667 0 0 0 8.746667 21.12l240 240z m-189.013333-273.493334v-37.76h37.76l210.133333 210.133334-37.76 37.76L541.866667 493.525333zM542.122667 265.898667a29.866667 29.866667 0 0 0 29.866666 29.866666h180.010667a109.866667 109.866667 0 1 0 0-219.733333H416a29.866667 29.866667 0 1 0 0 59.733333h336a50.133333 50.133333 0 0 1 0 100.266667h-180.010667a29.866667 29.866667 0 0 0-29.866666 29.866667zM162.133333 345.898667a109.866667 109.866667 0 0 0 109.866667 109.866666H384a29.866667 29.866667 0 1 0 0-59.733333H272a50.133333 50.133333 0 1 1 0-100.266667h180.010667a29.866667 29.866667 0 1 0 0-59.733333H272A109.866667 109.866667 0 0 0 162.133333 345.898667z"/></svg>