<?xml version="1.0" standalone="no"?><!DOCTYPE svg PUBLIC "-//W3C//DTD SVG 1.1//EN"
        "http://www.w3.org/Graphics/SVG/1.1/DTD/svg11.dtd"><svg viewBox="0 0 1024 1024" version="1.1" xmlns="http://www.w3.org/2000/svg" xmlns:xlink="http://www.w3.org/1999/xlink"><path transform="scale(1, -1) translate(0, -1024)" d="M511.232 663.808a30.933333 30.933333 0 0 1 0-61.866667h284.416a30.933333 30.933333 0 0 1 0 61.866667h-284.416zM480.298667 384c0 17.066667 13.824 30.933333 30.933333 30.933333h284.416a30.933333 30.933333 0 0 0 0-61.866666h-284.416a30.933333 30.933333 0 0 0-30.933333 30.933333zM480.298667 135.125333c0 17.066667 13.824 30.933333 30.933333 30.933334h284.416a30.933333 30.933333 0 0 0 0-61.866667h-284.416a30.933333 30.933333 0 0 0-30.933333 30.933333zM398.336 642.688a30.933333 30.933333 0 0 0-19.541333-39.125333c-15.146667-5.077333-25.344-16.213333-33.28-36.053334-8.405333-20.992-12.458667-47.104-17.066667-77.056l-0.128-1.109333c-3.669333-23.637333-7.893333-51.072-16.896-74.410667h57.6a30.933333 30.933333 0 0 0 0-61.866666h-57.6c9.002667-23.338667 13.226667-50.773333 16.896-74.410667l0.170667-1.109333c4.565333-29.952 8.618667-56.021333 17.024-77.056 7.936-19.84 18.133333-30.976 33.28-36.010667a30.933333 30.933333 0 1 0-19.584-58.709333c-38.186667 12.714667-59.093333 41.6-71.168 71.765333-11.093333 27.733333-16 59.946667-20.181334 87.04l-0.554666 3.626667c-4.650667 30.250667-8.576 52.906667-16.128 68.394666-3.413333 7.04-6.826667 10.752-9.728 12.8-2.602667 1.834667-6.826667 3.669333-14.677334 3.669334H170.709333a30.933333 30.933333 0 0 0 0 61.866666h56.064c7.893333 0 12.074667 1.877333 14.677334 3.712a31.957333 31.957333 0 0 1 9.728 12.8c7.552 15.488 11.52 38.144 16.128 68.394667l0.554666 3.584c4.181333 27.136 9.088 59.349333 20.181334 87.04 12.074667 30.165333 32.981333 59.050667 71.168 71.765333 16.213333 5.418667 33.706667-3.328 39.125333-19.541333z"/></svg>