<?xml version="1.0" standalone="no"?><!DOCTYPE svg PUBLIC "-//W3C//DTD SVG 1.1//EN"
        "http://www.w3.org/Graphics/SVG/1.1/DTD/svg11.dtd"><svg viewBox="0 0 1024 1024" version="1.1" xmlns="http://www.w3.org/2000/svg" xmlns:xlink="http://www.w3.org/1999/xlink"><path transform="scale(1, -1) translate(0, -1024)" d="M422.4 754.090667a103.424 103.424 0 0 1-63.146667-185.301334l-98.261333-266.581333a28.757333 28.757333 0 0 1 54.016-19.882667l97.706667 265.386667A103.424 103.424 0 1 1 422.4 754.090667zM376.490667 650.666667a45.909333 45.909333 0 1 0 91.818666 0 45.909333 45.909333 0 0 0-91.818666 0zM541.866667 425.557333a28.757333 28.757333 0 0 1-28.757334-28.757333v-75.818667H213.333333a28.757333 28.757333 0 0 1-28.757333-28.757333v-149.333333c0-15.872 12.885333-28.757333 28.757333-28.757334h597.333334a28.757333 28.757333 0 0 1 28.757333 28.757334v149.333333a28.757333 28.757333 0 0 1-28.757333 28.757333h-60.842667V396.8a28.757333 28.757333 0 0 1-28.757333 28.757333h-179.2z m28.757333-104.533333v47.018667h121.685333v-47.018667h-121.685333z m-328.533333-149.333333v91.776h539.818666v-91.818667H242.090667z"/></svg>