<?xml version="1.0" standalone="no"?><!DOCTYPE svg PUBLIC "-//W3C//DTD SVG 1.1//EN"
        "http://www.w3.org/Graphics/SVG/1.1/DTD/svg11.dtd"><svg viewBox="0 0 1024 1024" version="1.1" xmlns="http://www.w3.org/2000/svg" xmlns:xlink="http://www.w3.org/1999/xlink"><path transform="scale(1, -1) translate(0, -1024)" d="M562.944 499.456a29.866667 29.866667 0 0 0 0-42.24L519.594667 413.866667h154.453333a92.757333 92.757333 0 1 0 0-59.733334h-154.453333l43.349333-43.306666a29.866667 29.866667 0 1 0-42.24-42.24l-94.293333 94.293333a29.781333 29.781333 0 0 0 0.213333 42.538667l94.08 94.037333a29.866667 29.866667 0 0 0 42.24 0zM728.874667 384a33.024 33.024 0 1 1 66.005333 0 33.024 33.024 0 0 1-66.005333 0zM188.032 384a344.234667 344.234667 0 0 0 585.216 245.845333l-19.370667-19.754666 19.370667 19.754666a345.6 345.6 0 0 0 46.549333-56.490666 29.866667 29.866667 0 0 0-49.834666-32.853334 286.208 286.208 0 0 1-38.528 46.677334l20.906666 21.333333-20.906666-21.333333a284.501333 284.501333 0 1 1 0-406.357334l20.906666-21.333333-20.906666 21.333333c14.421333 14.122667 27.349333 29.781333 38.528 46.72a29.866667 29.866667 0 1 0 49.877333-32.896 345.6 345.6 0 0 0-46.592-56.490666A344.234667 344.234667 0 0 0 188.032 384z"/></svg>