<?xml version="1.0" standalone="no"?><!DOCTYPE svg PUBLIC "-//W3C//DTD SVG 1.1//EN"
        "http://www.w3.org/Graphics/SVG/1.1/DTD/svg11.dtd"><svg viewBox="0 0 1024 1024" version="1.1" xmlns="http://www.w3.org/2000/svg" xmlns:xlink="http://www.w3.org/1999/xlink"><path transform="scale(1, -1) translate(0, -1024)" d="M310.912 659.2H202.666667a27.733333 27.733333 0 0 1-27.733334-27.733333v-494.933334c0-15.36 12.416-27.733333 27.733334-27.733333h108.245333a27.733333 27.733333 0 0 1 26.026667 18.090667l1.194666 4.181333c1.28 6.229333 5.290667 17.365333 12.928 28.202667 11.989333 17.152 28.458667 26.88 52.650667 26.88 24.234667 0 40.704-9.728 52.693333-26.88 6.357333-9.045333 10.24-18.261333 12.074667-24.704l0.853333-3.498667a27.733333 27.733333 0 0 1 27.178667-22.272h324.821333a27.733333 27.733333 0 0 1 27.733334 27.733333V631.466667a27.733333 27.733333 0 0 1-27.733334 27.733333h-324.821333a27.733333 27.733333 0 0 1-26.026667-18.133333L469.333333 636.885333c-1.28-6.229333-5.290667-17.322667-12.928-28.16-11.989333-17.152-28.458667-26.88-52.693333-26.88-24.192 0-40.661333 9.728-52.650667 26.88a86.485333 86.485333 0 0 0-12.074666 24.661334l-0.853334 3.498666a27.733333 27.733333 0 0 1-27.221333 22.314667zM793.6 603.733333v-439.466666h-276.949333l-1.706667 4.010666a146.474667 146.474667 0 0 1-13.098667 22.826667c-21.845333 31.146667-54.613333 50.474667-98.133333 50.474667-43.434667 0-76.245333-19.285333-98.133333-50.474667l-5.034667-7.765333c-3.157333-5.12-5.802667-10.197333-8.064-15.061334l-1.706667-4.010666H230.4V603.733333h60.373333l1.706667-4.010666c3.413333-7.338667 7.68-15.061333 13.141333-22.826667 21.845333-31.189333 54.613333-50.517333 98.133334-50.517333 43.434667 0 76.245333 19.328 98.133333 50.517333l5.034667 7.722667c3.157333 5.12 5.802667 10.24 8.021333 15.104l1.706667 4.053333H793.6zM334.976 489.088a27.733333 27.733333 0 0 0 27.434667-23.637333l0.298666-4.096v-30.933334a27.733333 27.733333 0 0 0-55.168-4.096l-0.298666 4.096v30.933334a27.733333 27.733333 0 0 0 27.733333 27.733333zM334.976 365.312a27.733333 27.733333 0 0 0 27.434667-23.594667l0.298666-4.138666v-30.933334a27.733333 27.733333 0 0 0-55.168-4.096l-0.298666 4.138667v30.890667a27.733333 27.733333 0 0 0 27.733333 27.733333zM697.6 473.6a27.733333 27.733333 0 0 0 4.096-55.168l-4.096-0.298667h-241.365333a27.733333 27.733333 0 0 0-4.096 55.168l4.096 0.298667h241.365333zM697.6 349.866667a27.733333 27.733333 0 0 0 4.096-55.168l-4.096-0.298667h-241.365333a27.733333 27.733333 0 0 0-4.096 55.168l4.096 0.298667h241.365333z"/></svg>