<?xml version="1.0" standalone="no"?><!DOCTYPE svg PUBLIC "-//W3C//DTD SVG 1.1//EN"
        "http://www.w3.org/Graphics/SVG/1.1/DTD/svg11.dtd"><svg viewBox="0 0 1024 1024" version="1.1" xmlns="http://www.w3.org/2000/svg" xmlns:xlink="http://www.w3.org/1999/xlink"><path transform="scale(1, -1) translate(0, -1024)" d="M578.389333 277.461333a33.194667 33.194667 0 0 1 0-66.389333H810.666667a33.194667 33.194667 0 0 1 0 66.389333h-232.277334zM578.389333 144.725333a33.194667 33.194667 0 0 1 0-66.389333H810.666667a33.194667 33.194667 0 1 1 0 66.389333h-232.277334zM259.072 303.530667a33.194667 33.194667 0 0 1-46.933333-46.933334l70.4-70.4-70.4-70.4a33.194667 33.194667 0 1 1 46.933333-46.933333l70.4 70.4 70.4-70.4a33.194667 33.194667 0 0 1 46.933333 46.933333l-70.4 70.4 70.4 70.4a33.194667 33.194667 0 1 1-46.933333 46.933334l-70.4-70.4-70.4 70.4zM545.194667 559.530667c0 18.346667 14.848 33.152 33.152 33.152H810.666667a33.194667 33.194667 0 0 0 0-66.346667h-232.277334a33.194667 33.194667 0 0 0-33.194666 33.194667zM362.666667 675.669333a33.194667 33.194667 0 1 1-66.389334 0v-82.986666H213.333333a33.194667 33.194667 0 0 1 0-66.346667h82.944v-82.944a33.194667 33.194667 0 1 1 66.389334 0V526.336h82.944a33.194667 33.194667 0 1 1 0 66.346667H362.666667V675.669333z"/></svg>