<?xml version="1.0" standalone="no"?><!DOCTYPE svg PUBLIC "-//W3C//DTD SVG 1.1//EN"
        "http://www.w3.org/Graphics/SVG/1.1/DTD/svg11.dtd"><svg viewBox="0 0 1024 1024" version="1.1" xmlns="http://www.w3.org/2000/svg" xmlns:xlink="http://www.w3.org/1999/xlink"><path transform="scale(1, -1) translate(0, -1024)" d="M413.568 256.469333a29.866667 29.866667 0 0 0 28.458667 20.864h139.946666a29.866667 29.866667 0 0 0 28.458667-20.864l32.426667-102.4a29.866667 29.866667 0 0 0-28.458667-38.869333H409.6a29.866667 29.866667 0 0 0-28.458667 38.869333l32.426667 102.4z m50.346667-38.869333l-13.525334-42.666667h123.221334l-13.525334 42.666667h-96.170666zM238.933333 738.133333a29.866667 29.866667 0 0 1-29.866666-29.866666v-336.853334l-66.986667-217.557333a29.866667 29.866667 0 0 1 28.586667-38.656h682.666666a29.866667 29.866667 0 0 1 28.544 38.656l-66.986666 217.6V708.266667a29.866667 29.866667 0 0 1-29.866667 29.866666H238.933333z m524.074667-401.066666l49.92-162.133334H211.072l49.877333 162.133334h502.016zM268.8 396.8V678.4h486.4v-281.6H268.8z"/></svg>