<?xml version="1.0" standalone="no"?><!DOCTYPE svg PUBLIC "-//W3C//DTD SVG 1.1//EN"
        "http://www.w3.org/Graphics/SVG/1.1/DTD/svg11.dtd"><svg viewBox="0 0 1024 1024" version="1.1" xmlns="http://www.w3.org/2000/svg" xmlns:xlink="http://www.w3.org/1999/xlink"><path transform="scale(1, -1) translate(0, -1024)" d="M302.762667 461.866667c0 15.104 12.245333 27.349333 27.349333 27.349333h363.776a27.349333 27.349333 0 0 0 0-54.698667H330.112a27.349333 27.349333 0 0 0-27.306667 27.349334zM234.666667 654.848a27.349333 27.349333 0 0 1-23.68-41.045333l190.165333-329.898667v-143.36c0-15.146667 12.245333-27.392 27.349333-27.392h166.997334a27.349333 27.349333 0 0 1 27.349333 27.392v143.36l190.165333 329.898667a27.349333 27.349333 0 0 1-23.68 41.045333h-554.666666z m221.184-385.92h112.298666v-101.034667h-112.298666v101.034667z m126.762666 54.741333h-141.226666L282.026667 600.149333h459.946666l-159.36-276.48z"/></svg>