<?xml version="1.0" standalone="no"?><!DOCTYPE svg PUBLIC "-//W3C//DTD SVG 1.1//EN"
        "http://www.w3.org/Graphics/SVG/1.1/DTD/svg11.dtd"><svg viewBox="0 0 1024 1024" version="1.1" xmlns="http://www.w3.org/2000/svg" xmlns:xlink="http://www.w3.org/1999/xlink"><path transform="scale(1, -1) translate(0, -1024)" d="M185.472 608c0 40.106667 32.512 72.661333 72.661333 72.661333h507.733334c40.106667 0 72.661333-32.512 72.661333-72.661333v-448c0-40.106667-32.512-72.661333-72.661333-72.661333H258.133333c-40.106667 0-72.661333 32.512-72.661333 72.661333V608z m55.722667 0v-46.805333h541.610666V608a16.938667 16.938667 0 0 1-16.938666 16.938667H258.133333a16.938667 16.938667 0 0 1-16.938666-16.938667z m541.610666-102.528H241.194667v-345.472c0-9.344 7.594667-16.938667 16.938666-16.938667h507.733334c9.386667 0 16.938667 7.594667 16.938666 16.938667V505.472zM304.938667 384c0 15.36 12.458667 27.861333 27.861333 27.861333h29.866667a27.861333 27.861333 0 1 0 0-55.722666h-29.866667A27.861333 27.861333 0 0 0 304.938667 384zM452.266667 411.861333a27.861333 27.861333 0 0 1 0-55.722666h238.933333a27.861333 27.861333 0 1 1 0 55.722666h-238.933333zM452.266667 292.394667a27.861333 27.861333 0 0 1 0-55.722667h238.933333a27.861333 27.861333 0 1 1 0 55.722667h-238.933333zM332.8 292.394667a27.861333 27.861333 0 1 1 0-55.722667h29.866667a27.861333 27.861333 0 0 1 0 55.722667h-29.866667z"/></svg>