<?xml version="1.0" standalone="no"?><!DOCTYPE svg PUBLIC "-//W3C//DTD SVG 1.1//EN"
        "http://www.w3.org/Graphics/SVG/1.1/DTD/svg11.dtd"><svg viewBox="0 0 1024 1024" version="1.1" xmlns="http://www.w3.org/2000/svg" xmlns:xlink="http://www.w3.org/1999/xlink"><path transform="scale(1, -1) translate(0, -1024)" d="M215.637333 367.658667c-23.381333 0-43.178667-17.28-46.378666-40.405334l-24.106667-174.165333a46.805333 46.805333 0 0 1 46.421333-53.205333h256.298667c28.416 0 50.261333 25.088 46.378667 53.205333l-24.064 174.165333a46.848 46.848 0 0 1-46.378667 40.405334H215.637333z m-12.117333-210.517334l21.205333 153.258667H414.72l21.205333-153.258667H203.52zM600.192 367.658667c-23.381333 0-43.178667-17.28-46.378667-40.405334l-24.064-174.165333a46.805333 46.805333 0 0 1 46.378667-53.205333h256.298667c28.416 0 50.304 25.088 46.378666 53.205333l-24.064 174.165333a46.848 46.848 0 0 1-46.378666 40.405334h-208.170667z m-12.117333-210.517334l21.205333 153.258667h189.994667l21.205333-153.258667h-232.405333zM352.512 627.754667c3.2 23.125333 23.04 40.405333 46.378667 40.405333h208.170666c23.381333 0 43.178667-17.28 46.378667-40.405333l24.106667-174.165334a46.805333 46.805333 0 0 0-46.421334-53.248H374.826667a46.805333 46.805333 0 0 0-46.378667 53.248l24.064 174.165334z m55.466667-16.853334l-21.205334-153.301333h232.405334l-21.205334 153.301333H407.978667z"/></svg>