<?xml version="1.0" standalone="no"?><!DOCTYPE svg PUBLIC "-//W3C//DTD SVG 1.1//EN"
        "http://www.w3.org/Graphics/SVG/1.1/DTD/svg11.dtd"><svg viewBox="0 0 1024 1024" version="1.1" xmlns="http://www.w3.org/2000/svg" xmlns:xlink="http://www.w3.org/1999/xlink"><path transform="scale(1, -1) translate(0, -1024)" d="M329.472 718.677333a27.733333 27.733333 0 0 1-19.370667-7.893333L207.573333 610.688a61.696 61.696 0 0 1-8.106666-8.448 63.573333 63.573333 0 0 1-13.866667-39.594667v-450.944c0-33.28 26.112-62.421333 60.928-62.421333h530.944c34.816 0 60.928 29.098667 60.928 62.421333V562.645333a63.573333 63.573333 0 0 1-21.845333 47.914667l-102.656 100.266667a27.733333 27.733333 0 0 1-19.370667 7.850666H329.472zM722.346667 625.066667H301.696l39.082667 38.144h342.442666l39.082667-38.144zM242.304 567.04l1.749333 1.706667a4.778667 4.778667 0 0 0 2.474667 0.853333h530.944c0.682667 0 1.621333-0.256 2.517333-0.853333l1.664-1.621334a7.68 7.68 0 0 0 1.28-4.48v-450.944c0-4.992-3.584-6.954667-5.461333-6.954666H246.528c-1.877333 0-5.461333 1.962667-5.461333 6.954666V562.645333a7.68 7.68 0 0 0 1.28 4.437334zM437.418667 440.704a25.6 25.6 0 0 1-33.322667 38.826667l-58.112-49.749334a25.514667 25.514667 0 0 1-8.917333-19.2v-0.213333a25.813333 25.813333 0 0 1 7.637333-18.261333l57.941333-57.941334a25.6 25.6 0 0 1 36.181334 36.224l-14.378667 14.378667h128.981333c46.72 0 80.64-29.226667 82.261334-69.418667 1.664-42.666667-33.152-75.52-82.261334-75.52H412.416a25.6 25.6 0 0 1 0-51.2h141.013333c71.594667 0 136.448 50.773333 133.418667 128.725334-2.901333 73.941333-65.92 118.613333-133.418667 118.613333h-121.6l5.546667 4.693333z"/></svg>