<?xml version="1.0" standalone="no"?><!DOCTYPE svg PUBLIC "-//W3C//DTD SVG 1.1//EN"
        "http://www.w3.org/Graphics/SVG/1.1/DTD/svg11.dtd"><svg viewBox="0 0 1024 1024" version="1.1" xmlns="http://www.w3.org/2000/svg" xmlns:xlink="http://www.w3.org/1999/xlink"><path transform="scale(1, -1) translate(0, -1024)" d="M246.4 682.666667c0 14.72 11.946667 26.666667 26.666667 26.666666h343.466666c7.808 0 15.189333-3.413333 20.266667-9.301333l134.4-156.8c4.138667-4.864 6.4-11.008 6.4-17.365333V85.333333c0-14.72-11.946667-26.666667-26.666667-26.666666H273.066667A26.666667 26.666667 0 0 0 246.4 85.333333V682.666667z m53.333333-26.666667v-544h424.533334V516.010667l-119.978667 139.989333H299.733333zM556.8 494.933333a21.333333 21.333333 0 0 1-21.333333-21.333333v-53.333333h-68.266667a21.333333 21.333333 0 0 1-21.333333-21.333334v-53.333333h-68.266667a21.333333 21.333333 0 0 1-21.333333-21.333333v-84.181334a21.333333 21.333333 0 0 1 6.4-41.685333H661.333333a21.333333 21.333333 0 0 1 6.4 41.728V473.6a21.333333 21.333333 0 0 1-21.333333 21.333333h-89.6z m68.266667-253.866666h-46.933334V452.266667h46.933334v-211.2z m-89.6 136.533333v-136.533333h-46.933334v136.533333h46.933334z m-89.6-136.533333h-46.933334V302.933333h46.933334v-61.866666z"/></svg>