<?xml version="1.0" standalone="no"?><!DOCTYPE svg PUBLIC "-//W3C//DTD SVG 1.1//EN"
        "http://www.w3.org/Graphics/SVG/1.1/DTD/svg11.dtd"><svg viewBox="0 0 1024 1024" version="1.1" xmlns="http://www.w3.org/2000/svg" xmlns:xlink="http://www.w3.org/1999/xlink"><path transform="scale(1, -1) translate(0, -1024)" d="M610.176 358.656c12.970667-9.258667 16-27.306667 6.741333-40.277333l-48.810666-68.309334h253.226666a28.885333 28.885333 0 1 0 0-57.728H512a28.885333 28.885333 0 0 0-23.466667 45.653334l81.365334 113.92a28.885333 28.885333 0 0 0 40.277333 6.741333zM284.074667 689.621333a28.885333 28.885333 0 0 1-28.885334-28.842666V559.36H202.666667a28.885333 28.885333 0 0 1-28.885334-28.885333v-423.253334c0-15.957333 12.928-28.885333 28.885334-28.885333h618.666666a28.885333 28.885333 0 0 1 0 57.728H231.552V501.674667h560.896v-166.528a28.885333 28.885333 0 1 1 57.770667 0v195.413333a28.885333 28.885333 0 0 1-28.885334 28.842667h-52.522666V660.778667a28.885333 28.885333 0 0 1-28.885334 28.842666H284.074667z m426.965333-130.218666h-398.08v72.533333h398.08v-72.533333zM450.56 432.853333c0 15.914667 12.928 28.842667 28.885333 28.842667h65.109334a28.885333 28.885333 0 0 0 0-57.728h-65.109334a28.885333 28.885333 0 0 0-28.885333 28.885333zM316.629333 461.696a28.885333 28.885333 0 0 1 0-57.728h65.109334a28.885333 28.885333 0 0 1 0 57.728H316.629333z"/></svg>