<?xml version="1.0" standalone="no"?><!DOCTYPE svg PUBLIC "-//W3C//DTD SVG 1.1//EN"
        "http://www.w3.org/Graphics/SVG/1.1/DTD/svg11.dtd"><svg viewBox="0 0 1024 1024" version="1.1" xmlns="http://www.w3.org/2000/svg" xmlns:xlink="http://www.w3.org/1999/xlink"><path transform="scale(1, -1) translate(0, -1024)" d="M234.666667 682.112a27.733333 27.733333 0 0 1-27.733334-27.733333v-305.066667c0-15.317333 12.416-27.733333 27.733334-27.733333h263.466666a27.733333 27.733333 0 0 1 27.733334 27.733333v305.066667a27.733333 27.733333 0 0 1-27.733334 27.733333H234.666667z m27.733333-305.066667v249.6h208v-249.6H262.4zM234.666667 266.112a27.733333 27.733333 0 0 1-27.733334-27.733333v-124.8c0-15.317333 12.416-27.733333 27.733334-27.733334h554.666666a27.733333 27.733333 0 0 1 27.733334 27.733334v124.8a27.733333 27.733333 0 0 1-27.733334 27.733333h-554.666666z m27.733333-124.8v69.333333h499.2v-69.333333H262.4zM609.066667 682.112a27.733333 27.733333 0 0 1-27.733334-27.733333v-110.933334c0-15.317333 12.416-27.733333 27.733334-27.733333H789.333333a27.733333 27.733333 0 0 1 27.733334 27.733333v110.933334a27.733333 27.733333 0 0 1-27.733334 27.733333h-180.266666z m27.733333-110.933333v55.466666h124.8v-55.466666h-124.8zM609.066667 487.978667a27.733333 27.733333 0 0 1-27.733334-27.733334v-110.933333c0-15.317333 12.416-27.733333 27.733334-27.733333H789.333333a27.733333 27.733333 0 0 1 27.733334 27.733333v110.933333a27.733333 27.733333 0 0 1-27.733334 27.733334h-180.266666z m27.733333-110.933334v55.466667h124.8v-55.466667h-124.8z"/></svg>