<?xml version="1.0" standalone="no"?><!DOCTYPE svg PUBLIC "-//W3C//DTD SVG 1.1//EN"
        "http://www.w3.org/Graphics/SVG/1.1/DTD/svg11.dtd"><svg viewBox="0 0 1024 1024" version="1.1" xmlns="http://www.w3.org/2000/svg" xmlns:xlink="http://www.w3.org/1999/xlink"><path transform="scale(1, -1) translate(0, -1024)" d="M205.866667 661.333333c0 15.914667 12.885333 28.8 28.8 28.8h184.874666c11.605333 0 22.101333-6.954667 26.581334-17.664 8.96-21.333333 19.2-34.986667 29.696-43.264 10.069333-7.936 21.717333-12.074667 36.181333-12.074666 14.506667 0 26.112 4.138667 36.181333 12.074666 10.496 8.277333 20.778667 21.930667 29.696 43.264a28.8 28.8 0 0 0 26.581334 17.664H789.333333c15.914667 0 28.8-12.885333 28.8-28.8v-554.666666a28.8 28.8 0 0 0-28.8-28.8h-554.666666a28.8 28.8 0 0 0-28.8 28.8v554.666666z m57.6-28.8v-497.066666h497.066666V632.533333h-137.813333c-10.282667-19.541333-23.04-36.096-38.826667-48.554666A113.408 113.408 0 0 0 512 559.530667a113.408 113.408 0 0 0-71.893333 24.448c-15.786667 12.458667-28.544 29.013333-38.826667 48.554666h-137.813333zM671.018667 496.810667a28.8 28.8 0 0 0 0-40.704l-184.874667-184.917334a28.8 28.8 0 0 0-40.746667 0l-92.416 92.458667a28.8 28.8 0 1 0 40.704 40.704l72.106667-72.064 164.522667 164.522667a28.8 28.8 0 0 0 40.704 0z"/></svg>