<?xml version="1.0" standalone="no"?><!DOCTYPE svg PUBLIC "-//W3C//DTD SVG 1.1//EN"
        "http://www.w3.org/Graphics/SVG/1.1/DTD/svg11.dtd"><svg viewBox="0 0 1024 1024" version="1.1" xmlns="http://www.w3.org/2000/svg" xmlns:xlink="http://www.w3.org/1999/xlink"><path transform="scale(1, -1) translate(0, -1024)" d="M456.021333 478.165333a26.666667 26.666667 0 0 1-40.96-34.133333l39.978667-47.957333H420.266667a26.666667 26.666667 0 0 1 0-53.333334h65.066666v-38.4H420.266667a26.666667 26.666667 0 1 1 0-53.333333h65.066666v-65.066667a26.666667 26.666667 0 1 1 53.333334 0v65.024h65.066666a26.666667 26.666667 0 1 1 0 53.333334h-65.066666v38.4h65.066666a26.666667 26.666667 0 1 1 0 53.333333h-34.773333l39.978667 48a26.666667 26.666667 0 1 1-40.96 34.133333L512 411.050667l-55.978667 67.114666zM213.333333 658.261333a27.733333 27.733333 0 0 1-27.733333-27.733333v-146.986667c0-15.317333 12.416-27.733333 27.733333-27.733333h71.808v-403.626667c0-15.36 12.416-27.733333 27.733334-27.733333h398.250666a27.733333 27.733333 0 0 1 27.733334 27.733333v403.626667H810.666667a27.733333 27.733333 0 0 1 27.733333 27.733333V630.528a27.733333 27.733333 0 0 1-27.733333 27.733333H213.333333z m525.525334-146.986666v5.461333a27.733333 27.733333 0 1 1-55.466667 0v-436.864H340.608V516.736a27.733333 27.733333 0 0 1-55.466667 0v-5.461333H241.066667V602.794667h541.866666v-91.52h-44.074666z"/></svg>