<?xml version="1.0" standalone="no"?><!DOCTYPE svg PUBLIC "-//W3C//DTD SVG 1.1//EN"
        "http://www.w3.org/Graphics/SVG/1.1/DTD/svg11.dtd"><svg viewBox="0 0 1024 1024" version="1.1" xmlns="http://www.w3.org/2000/svg" xmlns:xlink="http://www.w3.org/1999/xlink"><path transform="scale(1, -1) translate(0, -1024)" d="M717.738667 62.890667H322.944a72.96 72.96 0 0 0-72.96 72.96V632.106667c0 40.32 32.64 73.002667 72.96 73.002666h350.293333c40.32 0 73.002667-32.682667 73.002667-72.96v-189.781333h58.368c32.256 0 58.410667-26.112 58.410667-58.368v-248.149333a72.96 72.96 0 0 0-72.96-72.96h-72.32zM308.352 632.106667v-496.256c0-8.106667 6.528-14.592 14.592-14.592h364.928V384 632.106667a14.592 14.592 0 0 1-14.592 14.634666H322.944a14.592 14.592 0 0 1-14.592-14.634666zM746.24 121.258667h43.776a14.592 14.592 0 0 1 14.592 14.592V384H746.24v-262.741333zM387.242667 575.530667a29.184 29.184 0 1 1 0-58.410667h116.778666a29.184 29.184 0 0 1 0 58.410667H387.242667zM387.242667 473.344a29.184 29.184 0 0 1 0-58.410667h175.146666a29.184 29.184 0 0 1 0 58.410667H387.242667z"/></svg>