<?xml version="1.0" standalone="no"?><!DOCTYPE svg PUBLIC "-//W3C//DTD SVG 1.1//EN"
        "http://www.w3.org/Graphics/SVG/1.1/DTD/svg11.dtd"><svg viewBox="0 0 1024 1024" version="1.1" xmlns="http://www.w3.org/2000/svg" xmlns:xlink="http://www.w3.org/1999/xlink"><path transform="scale(1, -1) translate(0, -1024)" d="M545.536 586.069333l50.56 42.453334a137.088 137.088 0 0 0 176.256-210.048l-50.56-42.453334 22.954667-27.349333a27.733333 27.733333 0 1 0-42.496-35.669333l-22.954667 27.349333-206.165333-172.970667a27.733333 27.733333 0 0 0-20.224-6.4L376.32 167.68l-50.986667-42.837333a74.666667 74.666667 0 0 0-96 114.346666L280.32 282.026667l6.698667 76.586666a27.733333 27.733333 0 0 0 9.813333 18.816l206.165333 173.013334-22.357333 26.624a27.733333 27.733333 0 1 0 42.496 35.626666l22.357333-26.624z m86.186667 0l-50.56-42.496 52.48-62.506666 52.48-62.549334 50.56 42.453334a81.621333 81.621333 0 1 1-104.96 125.056z m11.946666-203.221333l-52.48 62.549333-52.48 62.549334-86.485333-72.533334-110.933333-93.098666-6.656-76.586667a27.733333 27.733333 0 0 0-9.813334-18.816L264.96 196.693333a19.157333 19.157333 0 1 1 24.704-29.354666l59.818667 50.176a27.733333 27.733333 0 0 0 20.224 6.4l76.544-6.656 197.376 165.589333zM535.808 398.890667a27.733333 27.733333 0 0 0-2.645333-39.125334l-85.888-75.008a27.733333 27.733333 0 0 0-36.48 41.813334l85.888 74.965333a27.733333 27.733333 0 0 0 39.125333-2.645333z"/></svg>