<?xml version="1.0" standalone="no"?><!DOCTYPE svg PUBLIC "-//W3C//DTD SVG 1.1//EN"
        "http://www.w3.org/Graphics/SVG/1.1/DTD/svg11.dtd"><svg viewBox="0 0 1024 1024" version="1.1" xmlns="http://www.w3.org/2000/svg" xmlns:xlink="http://www.w3.org/1999/xlink"><path transform="scale(1, -1) translate(0, -1024)" d="M741.888 613.845333c8.106667-8.106667 8.106667-21.205333 0-29.269333l-135.765333-135.765333a20.693333 20.693333 0 1 0-29.312 29.269333l135.765333 135.765333c8.106667 8.106667 21.205333 8.106667 29.312 0zM779.946667 651.946667a26.88 26.88 0 0 0 7.68-22.4l-22.869334-182.826667a26.922667 26.922667 0 0 0-11.605333-18.944l-327.253333-221.696 34.048-34.133333a26.922667 26.922667 0 0 0-38.058667-38.058667L360.96 194.858667 282.154667 116.053333a26.88 26.88 0 1 0-38.101334 38.058667l78.805334 78.805333-60.928 60.970667a26.88 26.88 0 1 0 38.058666 38.058667l34.090667-34.090667 221.696 327.253333a26.922667 26.922667 0 0 0 18.944 11.648l182.869333 22.869334a26.88 26.88 0 0 0 22.357334-7.68z m-186.453334-67.114667L372.906667 259.114667l14.250666-14.293334 325.717334 220.672 17.066666 136.405334-136.405333-17.066667z"/></svg>