<?xml version="1.0" standalone="no"?><!DOCTYPE svg PUBLIC "-//W3C//DTD SVG 1.1//EN"
        "http://www.w3.org/Graphics/SVG/1.1/DTD/svg11.dtd"><svg viewBox="0 0 1024 1024" version="1.1" xmlns="http://www.w3.org/2000/svg" xmlns:xlink="http://www.w3.org/1999/xlink"><path transform="scale(1, -1) translate(0, -1024)" d="M205.866667 661.333333c0 15.914667 12.885333 28.8 28.8 28.8h184.874666c11.605333 0 22.101333-6.954667 26.581334-17.664 8.96-21.333333 19.2-34.986667 29.696-43.264 10.069333-7.936 21.717333-12.074667 36.181333-12.074666 14.506667 0 26.112 4.138667 36.181333 12.074666 10.496 8.277333 20.778667 21.930667 29.696 43.264a28.8 28.8 0 0 0 26.581334 17.664H789.333333c15.914667 0 28.8-12.885333 28.8-28.8v-554.666666a28.8 28.8 0 0 0-28.8-28.8h-554.666666a28.8 28.8 0 0 0-28.8 28.8v554.666666z m57.6-28.8v-497.066666h497.066666V632.533333h-137.813333c-10.282667-19.541333-23.04-36.096-38.826667-48.554666A113.408 113.408 0 0 0 512 559.530667a113.408 113.408 0 0 0-71.893333 24.448c-15.786667 12.458667-28.544 29.013333-38.826667 48.554666h-137.813333zM437.418667 465.450667a25.6 25.6 0 1 1-33.322667 38.826666L346.026667 454.570667a25.514667 25.514667 0 0 1-8.96-19.413334v-0.128c0-7.125333 2.986667-13.610667 7.765333-18.261333l57.813333-57.813333a25.6 25.6 0 0 1 36.181334 36.224l-14.336 14.378666h128.938666c46.72 0 80.64-29.184 82.261334-69.418666 1.664-42.666667-33.152-75.52-82.261334-75.52H412.416a25.6 25.6 0 1 1 0-51.2h141.013333c71.594667 0 136.448 50.773333 133.418667 128.725333-2.901333 73.941333-65.92 118.613333-133.418667 118.613333h-121.6l5.546667 4.693334z"/></svg>