<?xml version="1.0" standalone="no"?><!DOCTYPE svg PUBLIC "-//W3C//DTD SVG 1.1//EN"
        "http://www.w3.org/Graphics/SVG/1.1/DTD/svg11.dtd"><svg viewBox="0 0 1024 1024" version="1.1" xmlns="http://www.w3.org/2000/svg" xmlns:xlink="http://www.w3.org/1999/xlink"><path transform="scale(1, -1) translate(0, -1024)" d="M286.208 677.248a75.008 75.008 0 1 1 0-150.058667 75.008 75.008 0 0 1 0 150.058667zM258.133333 602.197333a28.074667 28.074667 0 1 0 56.192 0 28.074667 28.074667 0 0 0-56.192 0zM286.208 455.637333a75.008 75.008 0 1 1 0-150.058666 75.008 75.008 0 0 1 0 150.058666z m-28.074667-75.008a28.074667 28.074667 0 1 0 56.192 0 28.074667 28.074667 0 0 0-56.192 0zM211.2 165.802667a75.008 75.008 0 1 0 150.058667 0 75.008 75.008 0 0 0-150.058667 0z m75.008 28.117333a28.074667 28.074667 0 1 1 0-56.192 28.074667 28.074667 0 0 1 0 56.149333zM441.088 632.32a30.08 30.08 0 0 1 0-60.16H789.333333a30.08 30.08 0 1 1 0 60.16h-348.245333zM411.008 380.586667c0 16.64 13.482667 30.122667 30.08 30.122666H789.333333a30.08 30.08 0 0 0 0-60.16h-348.245333a30.08 30.08 0 0 0-30.08 30.08zM411.008 159.018667c0 16.64 13.482667 30.08 30.08 30.08H789.333333a30.08 30.08 0 0 0 0-60.16h-348.245333a30.08 30.08 0 0 0-30.08 30.08z"/></svg>