<?xml version="1.0" standalone="no"?><!DOCTYPE svg PUBLIC "-//W3C//DTD SVG 1.1//EN"
        "http://www.w3.org/Graphics/SVG/1.1/DTD/svg11.dtd"><svg viewBox="0 0 1024 1024" version="1.1" xmlns="http://www.w3.org/2000/svg" xmlns:xlink="http://www.w3.org/1999/xlink"><path transform="scale(1, -1) translate(0, -1024)" d="M512 746.325333A295.68 295.68 0 0 1 388.864 181.76l11.349333-118.442667a45.653333 45.653333 0 0 1 45.482667-41.685333h132.437333a45.653333 45.653333 0 0 1 45.482667 41.642667l11.52 118.485333A295.68 295.68 0 0 1 512 746.325333z m-237.653333-295.68a237.653333 237.653333 0 1 0 328.021333-219.861333H421.632a237.738667 237.738667 0 0 0-147.285333 219.861333z m301.653333-277.888l-9.088-93.098666H456.96L448 172.8h128zM422.4 338.474667V571.178667c0 4.650667 1.621333 8.661333 4.778667 12.074666 3.413333 3.413333 7.68 5.12 12.8 5.12h75.733333c60.032 0 90.026667-26.112 90.026667-78.293333 0-38.058667-14.762667-62.805333-44.288-74.282667l44.629333-80.853333a11.093333 11.093333 0 0 0 1.834667-6.613333c0-7.04-3.882667-13.781333-11.690667-20.096a36.992 36.992 0 0 0-24.149333-9.514667c-8.533333 0-14.634667 3.541333-18.304 10.581333L503.637333 426.666667h-24.149333v-88.192c0-5.632-2.773333-10.026667-8.405333-13.184a43.008 43.008 0 0 0-20.138667-4.394667c-7.808 0-14.506667 1.493333-20.096 4.394667-5.632 3.157333-8.405333 7.552-8.405333 13.184z m57.088 132.096h36.266667c10.666667 0 18.858667 2.56 24.490666 7.68 5.589333 5.376 8.405333 14.122667 8.405334 26.325333s-2.816 20.864-8.405334 26.026667c-5.632 5.333333-13.781333 8.021333-24.533333 8.021333h-36.224v-68.053333z"/></svg>