<?xml version="1.0" standalone="no"?><!DOCTYPE svg PUBLIC "-//W3C//DTD SVG 1.1//EN"
        "http://www.w3.org/Graphics/SVG/1.1/DTD/svg11.dtd"><svg viewBox="0 0 1024 1024" version="1.1" xmlns="http://www.w3.org/2000/svg" xmlns:xlink="http://www.w3.org/1999/xlink"><path transform="scale(1, -1) translate(0, -1024)" d="M379.264 753.194667A27.861333 27.861333 0 0 1 351.402667 725.333333v-121.472H213.333333a27.861333 27.861333 0 0 1-27.818666-29.909333l33.194666-448c1.109333-14.549333 13.226667-25.813333 27.818667-25.813333h530.944a27.861333 27.861333 0 0 1 27.818667 25.813333l33.194666 448A27.861333 27.861333 0 0 1 810.666667 603.861333h-138.069334V725.333333a27.861333 27.861333 0 0 1-27.861333 27.861334H379.306667z m237.610667-205.056v-38.528a27.861333 27.861333 0 1 1 55.722666 0v38.528h108.074667l-29.056-392.277334H272.426667l-29.056 392.277334h108.032v-38.528a27.861333 27.861333 0 0 1 55.722666 0v38.528h209.749334z m0 55.722666H407.125333V697.472h209.749334v-93.610667zM351.402667 260.693333c0 15.445333 12.458667 27.904 27.861333 27.904h265.472a27.861333 27.861333 0 0 0 0-55.722666H379.306667a27.861333 27.861333 0 0 0-27.861334 27.861333z"/></svg>