<?xml version="1.0" standalone="no"?><!DOCTYPE svg PUBLIC "-//W3C//DTD SVG 1.1//EN"
        "http://www.w3.org/Graphics/SVG/1.1/DTD/svg11.dtd"><svg viewBox="0 0 1024 1024" version="1.1" xmlns="http://www.w3.org/2000/svg" xmlns:xlink="http://www.w3.org/1999/xlink"><path transform="scale(1, -1) translate(0, -1024)" d="M512 721.066667a337.066667 337.066667 0 1 1 0-674.133334 337.066667 337.066667 0 0 1 0 674.133334z m-27.733333-56.832v-79.146667a27.733333 27.733333 0 1 1 55.466666 0V664.234667a281.685333 281.685333 0 0 0 252.501334-252.501334H697.6a27.733333 27.733333 0 1 1 0-55.466666h94.634667a281.685333 281.685333 0 0 0-252.501334-252.501334v79.189334a27.733333 27.733333 0 1 1-55.466666 0v-79.189334a281.685333 281.685333 0 0 0-252.501334 252.501334h79.146667a27.733333 27.733333 0 1 1 0 55.466666H231.765333a281.685333 281.685333 0 0 0 252.501334 252.501334zM582.869333 384a70.869333 70.869333 0 1 0-141.738666 0 70.869333 70.869333 0 0 0 141.738666 0z"/></svg>