<?xml version="1.0" standalone="no"?><!DOCTYPE svg PUBLIC "-//W3C//DTD SVG 1.1//EN"
        "http://www.w3.org/Graphics/SVG/1.1/DTD/svg11.dtd"><svg viewBox="0 0 1024 1024" version="1.1" xmlns="http://www.w3.org/2000/svg" xmlns:xlink="http://www.w3.org/1999/xlink"><path transform="scale(1, -1) translate(0, -1024)" d="M311.637333 563.2h37.461334a29.866667 29.866667 0 1 0 0-59.733333H240.469333a29.866667 29.866667 0 0 0-29.866666 29.866666V641.92a29.866667 29.866667 0 1 0 59.733333 0v-35.328A328.533333 328.533333 0 1 0 183.466667 384a29.866667 29.866667 0 1 0 59.733333 0 268.8 268.8 0 1 1 68.437333 179.2zM452.650667 530.346667a26.88 26.88 0 1 1-41.301334-34.432l43.221334-51.925334H416a26.88 26.88 0 0 1 0-53.76h69.12v-42.24H416a26.88 26.88 0 0 1 0-53.76h69.12v-69.12a26.88 26.88 0 1 1 53.76 0v69.12h69.12a26.88 26.88 0 1 1 0 53.76h-69.12v42.24h69.12a26.88 26.88 0 1 1 0 53.76h-38.613333l43.221333 51.925334a26.88 26.88 0 1 1-41.301333 34.389333L512 459.093333l-59.349333 71.253334z"/></svg>