<?xml version="1.0" standalone="no"?><!DOCTYPE svg PUBLIC "-//W3C//DTD SVG 1.1//EN"
        "http://www.w3.org/Graphics/SVG/1.1/DTD/svg11.dtd"><svg viewBox="0 0 1024 1024" version="1.1" xmlns="http://www.w3.org/2000/svg" xmlns:xlink="http://www.w3.org/1999/xlink"><path transform="scale(1, -1) translate(0, -1024)" d="M235.989333 660.010667c0 33.877333 27.477333 61.312 61.354667 61.312H726.613333c33.877333 0 61.354667-27.434667 61.354667-61.312v-196.010667a30.677333 30.677333 0 0 0-61.354667 0V660.010667H297.386667V107.946667h91.989333a30.677333 30.677333 0 0 0 0-61.312H297.344A61.354667 61.354667 0 0 0 235.946667 107.946667V660.053333zM390.784 580.352a23.168 23.168 0 0 0 32.597333-2.986667l53.333334-64 53.333333 64a23.168 23.168 0 1 0 35.541333-29.653333l-39.466666-47.36h35.925333a23.168 23.168 0 1 0 0-46.336h-62.165333v-38.997333h62.165333a23.168 23.168 0 1 0 0-46.293334h-62.165333v-62.208a23.168 23.168 0 1 0-46.336 0v62.208H391.381333a23.168 23.168 0 0 0 0 46.293334h62.165334v38.997333H391.381333a23.168 23.168 0 0 0 0 46.336h35.882667l-39.466667 47.36a23.168 23.168 0 0 0 2.986667 32.64zM675.84 338.56a32 32 0 0 0 32-32v-20.650667c6.784-2.048 13.269333-4.693333 19.456-7.893333l19.157333 19.157333a32 32 0 1 0 45.226667-45.226666l-18.346667-18.346667c4.138667-7.253333 7.424-14.933333 9.813334-23.04h20.650666a32 32 0 0 0 0-64h-20.608a111.36 111.36 0 0 0-8.832-21.333333l22.016-22.016a32 32 0 1 0-45.226666-45.226667l-22.058667 22.016a111.445333 111.445333 0 0 0-21.248-8.832v-20.608a32 32 0 0 0-64 0v20.608a111.061333 111.061333 0 0 0-23.04 9.813333l-23.04-23.04a32 32 0 1 0-45.226667 45.269334l23.808 23.850666a111.402667 111.402667 0 0 0-7.893333 19.498667h-20.650667a32 32 0 0 0 0 64h20.650667c2.218667 7.424 5.205333 14.549333 8.832 21.248l-20.053333 20.096a32 32 0 0 0 45.226666 45.226667l20.053334-20.053334c6.741333 3.626667 13.866667 6.613333 21.333333 8.832v20.650667a32 32 0 0 0 32 32z m0.853333-208a48 48 0 1 1-1.749333 0h1.749333z"/></svg>