<?xml version="1.0" standalone="no"?><!DOCTYPE svg PUBLIC "-//W3C//DTD SVG 1.1//EN"
        "http://www.w3.org/Graphics/SVG/1.1/DTD/svg11.dtd"><svg viewBox="0 0 1024 1024" version="1.1" xmlns="http://www.w3.org/2000/svg" xmlns:xlink="http://www.w3.org/1999/xlink"><path transform="scale(1, -1) translate(0, -1024)" d="M592.426667 360.32a29.866667 29.866667 0 0 0 41.941333 0.256l66.901333-65.237333a29.866667 29.866667 0 0 0-41.685333-42.752l-45.824 44.672-99.242667-99.114667a29.866667 29.866667 0 0 0-41.770666-0.426667l-77.013334 73.770667-161.194666-162.816a29.866667 29.866667 0 0 0-42.453334 42.026667l181.845334 183.68a29.866667 29.866667 0 0 0 41.898666 0.554666l77.141334-73.898666 99.413333 99.285333zM377.6 578.133333a29.866667 29.866667 0 0 0 29.866667 29.866667h313.6a29.866667 29.866667 0 1 0 0-59.733333H407.466667a29.866667 29.866667 0 0 0-29.866667 29.866666zM302.933333 608.042667a29.866667 29.866667 0 1 1 0-59.733334h14.933334a29.866667 29.866667 0 1 1 0 59.733334H302.933333zM213.333333 697.6a29.866667 29.866667 0 0 1-29.866666-29.866667v-375.893333a29.866667 29.866667 0 1 1 59.733333 0v166.826667h537.6v-328.533334H347.946667a29.866667 29.866667 0 0 1 0-59.733333H810.666667a29.866667 29.866667 0 0 1 29.226666 36.053333 29.994667 29.994667 0 0 1 0.64 6.186667V667.733333a29.866667 29.866667 0 0 1-29.866666 29.866667H213.333333z m29.866667-179.2v119.466667h537.6v-119.466667H243.2z"/></svg>