<?xml version="1.0" standalone="no"?><!DOCTYPE svg PUBLIC "-//W3C//DTD SVG 1.1//EN"
        "http://www.w3.org/Graphics/SVG/1.1/DTD/svg11.dtd"><svg viewBox="0 0 1024 1024" version="1.1" xmlns="http://www.w3.org/2000/svg" xmlns:xlink="http://www.w3.org/1999/xlink"><path transform="scale(1, -1) translate(0, -1024)" d="M471.637333 663.04a230.570667 230.570667 0 0 1-158.506666-398.08 27.733333 27.733333 0 0 0 8.149333-14.848l27.946667-145.109333h195.242666l12.714667 89.173333a27.733333 27.733333 0 0 0 32 23.466667l94.634667-15.786667h18.389333v69.12a27.733333 27.733333 0 0 0 22.314667 27.221333l43.434666 8.704-62.293333 112.085334a27.733333 27.733333 0 0 0-3.413333 13.44 230.570667 230.570667 0 0 1-230.613334 230.570666zM185.6 432.384a286.037333 286.037333 0 0 0 571.989333 7.338667l77.312-139.178667a27.733333 27.733333 0 0 0-18.773333-40.661333l-58.453333-11.690667v-74.112a27.733333 27.733333 0 0 0-27.733334-27.733333h-48.426666a27.648 27.648 0 0 0-4.565334 0.384l-68.864 11.477333-12.117333-84.906667a27.733333 27.733333 0 0 0-27.477333-23.808H326.4a27.733333 27.733333 0 0 0-27.264 22.485334l-30.634667 159.061333a285.184 285.184 0 0 0-82.858666 201.386667zM420.778667 464.725333a50.858667 50.858667 0 1 0 50.858666-50.858666 29.866667 29.866667 0 0 1-29.866666-29.866667v-48.426667a29.866667 29.866667 0 1 1 59.733333 0v22.613334a110.634667 110.634667 0 1 1-140.458667 106.538666 29.866667 29.866667 0 1 1 59.733334 0zM501.504 238.72a29.866667 29.866667 0 1 1-59.733333 0v-16.170667a29.866667 29.866667 0 1 1 59.733333 0v16.170667z"/></svg>