<?xml version="1.0" standalone="no"?><!DOCTYPE svg PUBLIC "-//W3C//DTD SVG 1.1//EN"
        "http://www.w3.org/Graphics/SVG/1.1/DTD/svg11.dtd"><svg viewBox="0 0 1024 1024" version="1.1" xmlns="http://www.w3.org/2000/svg" xmlns:xlink="http://www.w3.org/1999/xlink"><path transform="scale(1, -1) translate(0, -1024)" d="M382.037333 548.650667a29.866667 29.866667 0 0 0 27.861334-8.32l265.813333-273.109334a29.866667 29.866667 0 0 0-12.373333-49.28l-407.04-129.621333a29.866667 29.866667 0 0 0-37.205334 38.314667l141.226667 402.773333a29.866667 29.866667 0 0 0 21.76 19.242667z m18.688-84.565334L295.253333 163.413333l303.914667 96.768-198.442667 203.946667zM833.365333 702.890667a32.554667 32.554667 0 1 1 0 65.109333 32.554667 32.554667 0 0 1 0-65.109333zM642.816 707.712a29.866667 29.866667 0 0 1-42.24-42.24c11.136-11.093333 13.013333-19.797333 11.946667-27.562667-1.408-9.770667-8.533333-24.490667-28.202667-44.16l-81.408-81.408a29.866667 29.866667 0 1 1 42.24-42.24l81.408 81.408c23.722667 23.765333 41.045333 49.749333 45.056 77.952 4.309333 30.208-7.338667 56.832-28.8 78.250667zM724.224 453.802667c23.893333 23.893333 43.861333 31.957333 60.288 31.957333s36.394667-8.106667 60.288-31.957333a29.866667 29.866667 0 1 1 42.24 42.24c-30.378667 30.378667-64.682667 49.450667-102.528 49.450666s-72.106667-19.072-102.528-49.493333l-81.408-81.365333a29.866667 29.866667 0 1 1 42.24-42.24l81.408 81.408zM865.92 360.96a32.554667 32.554667 0 1 0-65.109333 0 32.554667 32.554667 0 0 0 65.109333 0z"/></svg>