<?xml version="1.0" standalone="no"?><!DOCTYPE svg PUBLIC "-//W3C//DTD SVG 1.1//EN"
        "http://www.w3.org/Graphics/SVG/1.1/DTD/svg11.dtd"><svg viewBox="0 0 1024 1024" version="1.1" xmlns="http://www.w3.org/2000/svg" xmlns:xlink="http://www.w3.org/1999/xlink"><path transform="scale(1, -1) translate(0, -1024)" d="M512 776.533333a120.533333 120.533333 0 1 1 0-241.066666 120.533333 120.533333 0 0 1 0 241.066666z m-60.8-120.533333a60.8 60.8 0 1 0 121.6 0 60.8 60.8 0 0 0-121.6 0zM455.765333 486.4c-15.104 0-24.874667 0-33.450666-0.853333a174.933333 174.933333 0 0 1-156.928-156.928c-0.853333-8.576-0.853333-18.346667-0.853334-33.450667v-1.834667a29.866667 29.866667 0 0 1 29.866667-29.866666h435.2a29.866667 29.866667 0 0 1 29.866667 29.866666v1.834667c0 15.061333 0 24.874667-0.853334 33.450667a174.933333 174.933333 0 0 1-156.928 156.928c-8.576 0.853333-18.346667 0.853333-33.450666 0.853333h-112.469334z m-130.901333-163.2a115.2 115.2 0 0 0 103.296 102.912h167.68a115.2 115.2 0 0 0 103.253333-102.912H324.906667zM457.6 426.666667c-17.536 0-24.149333 0-29.44-0.554667h167.68a346.496 346.496 0 0 1-29.44 0.554667h-108.8zM219.904 308.394667a29.866667 29.866667 0 0 1-32.341333 50.261333c-37.632-24.234667-68.096-58.282667-68.096-101.546667 0-30.933333 15.786667-57.344 37.845333-78.208 22.016-20.821333 52.266667-38.186667 87.168-52.138666 53.845333-21.546667 122.325333-36.352 197.973333-42.069334l-42.24-42.24a29.866667 29.866667 0 0 1 42.24-42.24l82.005334 82.005334c98.133333 1.28 187.946667 17.706667 255.061333 44.544 34.901333 13.952 65.152 31.317333 87.168 52.138666 22.058667 20.906667 37.845333 47.274667 37.845333 78.165334 0 43.306667-30.464 77.354667-68.096 101.546666a29.866667 29.866667 0 1 1-32.341333-50.218666c31.36-20.181333 40.704-38.485333 40.704-51.328 0-9.173333-4.522667-20.906667-19.157333-34.773334-14.677333-13.909333-37.546667-27.776-68.266667-40.106666-58.752-23.466667-140.8-38.954667-233.088-40.234667l-81.834667 81.834667a29.866667 29.866667 0 1 1-42.24-42.24l36.437334-36.437334c-66.432 5.845333-125.056 19.114667-169.984 37.12-30.72 12.288-53.632 26.154667-68.309334 40.106667-14.634667 13.781333-19.157333 25.6-19.157333 34.730667 0 12.8 9.386667 31.146667 40.704 51.328z"/></svg>