<?xml version="1.0" standalone="no"?><!DOCTYPE svg PUBLIC "-//W3C//DTD SVG 1.1//EN"
        "http://www.w3.org/Graphics/SVG/1.1/DTD/svg11.dtd"><svg viewBox="0 0 1024 1024" version="1.1" xmlns="http://www.w3.org/2000/svg" xmlns:xlink="http://www.w3.org/1999/xlink"><path transform="scale(1, -1) translate(0, -1024)" d="M226.133333 507.904a28.586667 28.586667 0 0 1 0-57.173333h162.005334V98.133333a28.586667 28.586667 0 1 1 57.173333 0v352.597334H797.866667a28.586667 28.586667 0 0 1 0 57.173333H226.133333zM269.013333 641.28a14.293333 14.293333 0 0 1-14.293333-14.293333v-485.973334c0-7.893333 6.4-14.293333 14.293333-14.293333h485.973334c7.893333 0 14.293333 6.4 14.293333 14.293333V626.986667a14.293333 14.293333 0 0 1-14.293333 14.293333H269.013333z m-71.466666-14.293333c0 39.466667 32 71.466667 71.466666 71.466666h485.973334c39.466667 0 71.466667-32 71.466666-71.466666v-485.973334c0-39.466667-32-71.466667-71.466666-71.466666H269.013333c-39.466667 0-71.466667 32-71.466666 71.466666V626.986667z"/></svg>