<?xml version="1.0" standalone="no"?><!DOCTYPE svg PUBLIC "-//W3C//DTD SVG 1.1//EN"
        "http://www.w3.org/Graphics/SVG/1.1/DTD/svg11.dtd"><svg viewBox="0 0 1024 1024" version="1.1" xmlns="http://www.w3.org/2000/svg" xmlns:xlink="http://www.w3.org/1999/xlink"><path transform="scale(1, -1) translate(0, -1024)" d="M633.088 314.666667a29.866667 29.866667 0 1 0 42.24-42.24l-37.888-37.888h141.226667a29.866667 29.866667 0 1 0 0-59.733334h-141.226667l37.888-37.888a29.866667 29.866667 0 1 0-42.24-42.24l-88.362667 88.405334a29.781333 29.781333 0 0 0-0.512 42.709333l88.874667 88.874667zM500.906667 708.608a27.733333 27.733333 0 0 0 22.186666 0l266.666667-116.650667a27.733333 27.733333 0 0 0 16.64-25.429333v-136.618667a27.733333 27.733333 0 1 0-55.466667 0V548.394667L512 652.928l-238.933333-104.533333v-418.133334h115.456V399.36h-20.096a27.733333 27.733333 0 1 0 0 55.466667h244.48a27.733333 27.733333 0 0 0 0-55.466667h-168.917334v-269.141333h26.666667a27.733333 27.733333 0 0 0 0-55.466667H245.333333a27.733333 27.733333 0 0 0-27.733333 27.733333V566.528a27.733333 27.733333 0 0 0 16.64 25.429333l266.666667 116.650667z"/></svg>