<?xml version="1.0" standalone="no"?><!DOCTYPE svg PUBLIC "-//W3C//DTD SVG 1.1//EN"
        "http://www.w3.org/Graphics/SVG/1.1/DTD/svg11.dtd"><svg viewBox="0 0 1024 1024" version="1.1" xmlns="http://www.w3.org/2000/svg" xmlns:xlink="http://www.w3.org/1999/xlink"><path transform="scale(1, -1) translate(0, -1024)" d="M451.413333 510.037333a26.410667 26.410667 0 1 1-37.333333-37.333333l60.586667-60.586667H419.541333a26.410667 26.410667 0 1 1 0-52.821333h66.048v-26.453333H419.541333a26.453333 26.453333 0 0 1 0-52.778667h66.048v-39.637333a26.410667 26.410667 0 0 1 52.821334 0v39.637333h66.048a26.410667 26.410667 0 1 1 0 52.821333h-66.048v26.410667h66.048a26.410667 26.410667 0 0 1 0 52.821333h-55.125334l60.586667 60.586667a26.410667 26.410667 0 1 1-37.333333 37.333333L512 449.450667l-60.586667 60.586666zM290.133333 705.664a27.733333 27.733333 0 0 1 0-55.466667h443.733334a27.733333 27.733333 0 1 1 0 55.466667H290.133333zM304 622.464A97.066667 97.066667 0 0 1 206.933333 525.397333v-318.933333a97.066667 97.066667 0 0 1 97.066667-97.066667h416a97.066667 97.066667 0 0 1 97.066667 97.066667V525.397333a97.066667 97.066667 0 0 1-97.066667 97.066667h-416zM262.4 525.397333c0 22.954667 18.602667 41.6 41.6 41.6h416c22.954667 0 41.6-18.645333 41.6-41.6v-318.933333a41.6 41.6 0 0 0-41.6-41.6h-416a41.6 41.6 0 0 0-41.6 41.6V525.397333z"/></svg>