<?xml version="1.0" standalone="no"?><!DOCTYPE svg PUBLIC "-//W3C//DTD SVG 1.1//EN"
        "http://www.w3.org/Graphics/SVG/1.1/DTD/svg11.dtd"><svg viewBox="0 0 1024 1024" version="1.1" xmlns="http://www.w3.org/2000/svg" xmlns:xlink="http://www.w3.org/1999/xlink"><path transform="scale(1, -1) translate(0, -1024)" d="M329.472 718.677333a27.733333 27.733333 0 0 1-19.370667-7.893333L207.573333 610.688a61.696 61.696 0 0 1-8.106666-8.448 63.573333 63.573333 0 0 1-13.866667-39.594667v-450.944c0-33.28 26.112-62.421333 60.928-62.421333h530.944c34.816 0 60.928 29.098667 60.928 62.421333V562.645333a63.573333 63.573333 0 0 1-21.845333 47.914667l-102.656 100.266667a27.733333 27.733333 0 0 1-19.370667 7.850666H329.472zM722.346667 625.066667H301.696l39.082667 38.144h342.442666l39.082667-38.144zM242.304 567.04l1.749333 1.706667a4.778667 4.778667 0 0 0 2.474667 0.853333h530.944c0.682667 0 1.621333-0.256 2.517333-0.853333l1.664-1.621334a7.68 7.68 0 0 0 1.28-4.48v-450.944c0-4.992-3.584-6.954667-5.461333-6.954666H246.528c-1.877333 0-5.461333 1.962667-5.461333 6.954666V562.645333a7.68 7.68 0 0 0 1.28 4.437334zM536.576 269.952a25.6 25.6 0 1 1 36.181333-36.224l85.333334 85.333333a25.6 25.6 0 0 1 7.509333 17.877334v0.213333 0.256a25.472 25.472 0 0 1-7.509333 17.877333l-85.333334 85.333334a25.6 25.6 0 1 1-36.181333-36.224l41.642667-41.642667H384a25.6 25.6 0 1 1 0-51.2h194.218667l-41.642667-41.6z"/></svg>