<?xml version="1.0" standalone="no"?><!DOCTYPE svg PUBLIC "-//W3C//DTD SVG 1.1//EN"
        "http://www.w3.org/Graphics/SVG/1.1/DTD/svg11.dtd"><svg viewBox="0 0 1024 1024" version="1.1" xmlns="http://www.w3.org/2000/svg" xmlns:xlink="http://www.w3.org/1999/xlink"><path transform="scale(1, -1) translate(0, -1024)" d="M337.066667 718.336a28.586667 28.586667 0 0 0 27.733333 21.418667h245.333333a28.629333 28.629333 0 0 0 27.733334-35.584l-40.106667-160.682667h159.573333a28.586667 28.586667 0 0 0 20.992-48.128L353.066667 37.418667a28.586667 28.586667 0 0 0-48.853334 26.026666l57.173334 242.858667H266.666667a28.586667 28.586667 0 0 0-27.733334 35.84l98.133334 376.192z m49.834666-35.84l-83.2-318.933333h93.824a28.586667 28.586667 0 0 0 27.861334-35.2l-40.661334-172.714667 306.986667 330.581333H561.066667a28.629333 28.629333 0 0 0-27.733334 35.584l40.106667 160.682667H386.944zM453.546667 624.384a28.586667 28.586667 0 0 0 20.778666-34.688l-32.682666-130.858667a28.586667 28.586667 0 0 0-55.552 13.909334l32.725333 130.816a28.586667 28.586667 0 0 0 34.688 20.821333z"/></svg>