<?xml version="1.0" standalone="no"?><!DOCTYPE svg PUBLIC "-//W3C//DTD SVG 1.1//EN"
        "http://www.w3.org/Graphics/SVG/1.1/DTD/svg11.dtd"><svg viewBox="0 0 1024 1024" version="1.1" xmlns="http://www.w3.org/2000/svg" xmlns:xlink="http://www.w3.org/1999/xlink"><path transform="scale(1, -1) translate(0, -1024)" d="M490.88 714.453333a29.866667 29.866667 0 0 0 42.24 0l84.053333-84.053333h111.36a29.866667 29.866667 0 0 0 29.866667-29.866667v-111.36l84.053333-84.053333a29.866667 29.866667 0 0 0 0-42.24l-84.053333-84.053333v-111.36a29.866667 29.866667 0 0 0-29.866667-29.866667h-111.36l-84.053333-84.053333a29.866667 29.866667 0 0 0-42.24 0l-84.053333 84.053333h-111.36a29.866667 29.866667 0 0 0-29.866667 29.866667v111.36l-84.053333 84.053333a29.866667 29.866667 0 0 0 0 42.24l84.053333 84.053333v111.36a29.866667 29.866667 0 0 0 29.866667 29.866667h111.36l84.053333 84.053333zM512 651.093333l-71.68-71.68a29.866667 29.866667 0 0 0-21.12-8.746666h-93.866667v-93.866667a29.866667 29.866667 0 0 0-8.746666-21.12L244.906667 384l71.68-71.68a29.866667 29.866667 0 0 0 8.746666-21.12v-93.866667h93.866667a29.866667 29.866667 0 0 0 21.12-8.746666L512 116.906667l71.68 71.68a29.866667 29.866667 0 0 0 21.12 8.746666h93.866667v93.866667a29.866667 29.866667 0 0 0 8.746666 21.12L779.093333 384l-71.68 71.68a29.866667 29.866667 0 0 0-8.746666 21.12v93.866667h-93.866667a29.866667 29.866667 0 0 0-21.12 8.746666L512 651.093333zM512 446.933333a62.933333 62.933333 0 1 1 0-125.866666 62.933333 62.933333 0 0 1 0 125.866666zM389.333333 384a122.666667 122.666667 0 1 0 245.333334 0 122.666667 122.666667 0 0 0-245.333334 0z"/></svg>