<?xml version="1.0" standalone="no"?><!DOCTYPE svg PUBLIC "-//W3C//DTD SVG 1.1//EN"
        "http://www.w3.org/Graphics/SVG/1.1/DTD/svg11.dtd"><svg viewBox="0 0 1024 1024" version="1.1" xmlns="http://www.w3.org/2000/svg" xmlns:xlink="http://www.w3.org/1999/xlink"><path transform="scale(1, -1) translate(0, -1024)" d="M512 652.8A268.8 268.8 0 0 1 243.2 384v-268.8H512a268.8 268.8 0 1 1 0 537.6zM213.333333 85.333333h-29.866666v298.666667a328.533333 328.533333 0 1 0 328.533333-328.533333H213.333333V85.333333z m0 0v-29.866666a29.866667 29.866667 0 0 0-29.866666 29.866666H213.333333zM347.733333 413.610667a29.866667 29.866667 0 0 0 29.866667 29.866666h268.8a29.866667 29.866667 0 1 0 0-59.733333h-268.8a29.866667 29.866667 0 0 0-29.866667 29.866667zM347.733333 294.144a29.866667 29.866667 0 0 0 29.866667 29.866667h149.333333a29.866667 29.866667 0 1 0 0-59.733334h-149.333333a29.866667 29.866667 0 0 0-29.866667 29.866667z"/></svg>