<?xml version="1.0" standalone="no"?><!DOCTYPE svg PUBLIC "-//W3C//DTD SVG 1.1//EN"
        "http://www.w3.org/Graphics/SVG/1.1/DTD/svg11.dtd"><svg viewBox="0 0 1024 1024" version="1.1" xmlns="http://www.w3.org/2000/svg" xmlns:xlink="http://www.w3.org/1999/xlink"><path transform="scale(1, -1) translate(0, -1024)" d="M386.218667 687.573333A327.68 327.68 0 0 0 512 712.533333a328.106667 328.106667 0 0 0 268.8-139.605333V649.472a29.866667 29.866667 0 1 0 59.733333 0v-265.514667A29.866667 29.866667 0 1 0 780.8 384 268.8 268.8 0 0 1 288.426667 533.333333a29.866667 29.866667 0 0 0-49.621334 33.237334 329.984 329.984 0 0 0 147.413334 121.002666zM243.2 383.232V384a29.866667 29.866667 0 0 1-29.866667 29.866667 29.866667 29.866667 0 0 1-29.866666-29.866667V118.528a29.866667 29.866667 0 1 1 59.733333 0v76.544A328.106667 328.106667 0 0 1 512 55.466667a327.594667 327.594667 0 0 1 232.32 96.213333c15.146667 15.189333 28.885333 31.872 40.874667 49.749333a29.866667 29.866667 0 1 1-49.664 33.28 270.250667 270.250667 0 0 0-120.661334-99.114666A268.8 268.8 0 0 0 243.2 383.232zM392.533333 249.045333c0 0.597333 0.298667 2.005333 0.853334 4.266667l82.773333 269.866667a21.717333 21.717333 0 0 0 12.458667 13.696c6.826667 3.413333 14.592 5.162667 23.168 5.162666s16.298667-1.706667 23.168-5.12c6.826667-3.157333 11.136-7.765333 12.842666-13.738666l82.773334-269.824c0.597333-2.304 0.896-3.712 0.896-4.266667 0-6.314667-3.84-11.733333-11.562667-16.341333-7.722667-4.565333-15.616-6.826667-23.594667-6.826667-10.581333 0-16.896 3.712-18.901333 11.093333l-16.298667 57.088H462.933333l-16.298666-57.045333c-2.005333-7.424-8.32-11.178667-18.901334-11.178667-8.277333 0-16.298667 2.133333-24.021333 6.442667-7.424 4.565333-11.136 10.154667-11.136 16.725333z m81.92 88.832h74.666667l-37.333333 131.669334-37.333334-131.712z"/></svg>