<?xml version="1.0" standalone="no"?><!DOCTYPE svg PUBLIC "-//W3C//DTD SVG 1.1//EN"
        "http://www.w3.org/Graphics/SVG/1.1/DTD/svg11.dtd"><svg viewBox="0 0 1024 1024" version="1.1" xmlns="http://www.w3.org/2000/svg" xmlns:xlink="http://www.w3.org/1999/xlink"><path transform="scale(1, -1) translate(0, -1024)" d="M183.466667 443.733333a29.866667 29.866667 0 0 0 29.866666 29.866667h597.333334a29.866667 29.866667 0 0 0 0-59.733333H213.333333a29.866667 29.866667 0 0 0-29.866666 29.866666zM310.4 652.8a29.866667 29.866667 0 1 1-59.733333 0v-119.466667a29.866667 29.866667 0 1 1 59.733333 0V652.8zM310.4 354.218667a29.866667 29.866667 0 1 1-59.733333 0v-179.242667a29.866667 29.866667 0 1 1 59.733333 0v179.242667zM589.141333 682.666667a29.866667 29.866667 0 0 0 29.866667-29.866667v-119.466667a29.866667 29.866667 0 1 0-59.733333 0V652.8a29.866667 29.866667 0 0 0 29.866666 29.866667zM619.008 354.133333a29.866667 29.866667 0 1 1-59.733333 0v-238.933333a29.866667 29.866667 0 1 1 59.733333 0v238.933333zM743.466667 682.666667a29.866667 29.866667 0 0 0 29.866666-29.866667v-119.466667a29.866667 29.866667 0 1 0-59.733333 0V652.8a29.866667 29.866667 0 0 0 29.866667 29.866667zM464.725333 652.8a29.866667 29.866667 0 1 1-59.733333 0v-119.466667a29.866667 29.866667 0 1 1 59.733333 0V652.8zM434.816 384a29.866667 29.866667 0 0 0 29.866667-29.866667v-119.466666a29.866667 29.866667 0 1 0-59.733334 0v119.466666a29.866667 29.866667 0 0 0 29.866667 29.866667zM773.333333 354.133333a29.866667 29.866667 0 1 1-59.733333 0v-179.2a29.866667 29.866667 0 1 1 59.733333 0v179.2z"/></svg>