<?xml version="1.0" standalone="no"?><!DOCTYPE svg PUBLIC "-//W3C//DTD SVG 1.1//EN"
        "http://www.w3.org/Graphics/SVG/1.1/DTD/svg11.dtd"><svg viewBox="0 0 1024 1024" version="1.1" xmlns="http://www.w3.org/2000/svg" xmlns:xlink="http://www.w3.org/1999/xlink"><path transform="scale(1, -1) translate(0, -1024)" d="M641.877333 436.992a28.8 28.8 0 0 0 0-40.704l-146.005333-146.005333a28.8 28.8 0 0 0-40.746667 0l-73.002666 72.96a28.8 28.8 0 0 0 40.746666 40.746666l52.608-52.608 125.653334 125.610667a28.8 28.8 0 0 0 40.746666 0zM386.261333 759.808c15.872 0 28.8-12.885333 28.8-28.8v-19.413333h193.877334v19.413333a28.8 28.8 0 1 0 57.6 0v-19.413333h112.682666c32.682667 0 59.178667-26.453333 59.178667-59.178667v-487.253333c0-32.682667-26.453333-59.178667-59.178667-59.178667H244.778667c-32.682667 0-59.178667 26.453333-59.178667 59.136V652.416c0 32.682667 26.453333 59.178667 59.178667 59.178667h112.64v19.413333c0 15.914667 12.928 28.8 28.842666 28.8z m222.72-103.68H415.018667v-50.858667a28.8 28.8 0 1 0-57.6 0V656.128H244.778667a3.712 3.712 0 0 1-3.712-3.712v-113.706667h541.866666V652.373333a3.712 3.712 0 0 1-3.712 3.712h-112.64v-50.858666a28.8 28.8 0 1 0-57.6 0V656.128zM241.066667 483.2v-318.037333c0-2.048 1.664-3.712 3.712-3.712h534.442666a3.712 3.712 0 0 1 3.712 3.712V483.2H241.066667z"/></svg>