<?xml version="1.0" standalone="no"?><!DOCTYPE svg PUBLIC "-//W3C//DTD SVG 1.1//EN"
        "http://www.w3.org/Graphics/SVG/1.1/DTD/svg11.dtd"><svg viewBox="0 0 1024 1024" version="1.1" xmlns="http://www.w3.org/2000/svg" xmlns:xlink="http://www.w3.org/1999/xlink"><path transform="scale(1, -1) translate(0, -1024)" d="M184.533333 645.333333c0 15.914667 12.885333 28.8 28.8 28.8h597.333334c15.914667 0 28.8-12.885333 28.8-28.8v-448a28.8 28.8 0 0 0-28.8-28.8h-306.773334l-143.274666-71.637333a28.8 28.8 0 0 0-41.685334 25.770667V168.533333H213.333333a28.8 28.8 0 0 0-28.8 28.8v448z m57.6-28.8v-390.4H347.733333c15.914667 0 28.8-12.885333 28.8-28.8v-28.074666l107.648 53.845333a28.8 28.8 0 0 0 12.885334 3.029333h284.8V616.533333H242.133333zM333.866667 421.333333c0 15.914667 12.885333 28.8 28.8 28.8h298.666666a28.8 28.8 0 0 0 0-57.6h-298.666666a28.8 28.8 0 0 0-28.8 28.8z"/></svg>