<?xml version="1.0" standalone="no"?><!DOCTYPE svg PUBLIC "-//W3C//DTD SVG 1.1//EN"
        "http://www.w3.org/Graphics/SVG/1.1/DTD/svg11.dtd"><svg viewBox="0 0 1024 1024" version="1.1" xmlns="http://www.w3.org/2000/svg" xmlns:xlink="http://www.w3.org/1999/xlink"><path transform="scale(1, -1) translate(0, -1024)" d="M329.472 718.677333a27.733333 27.733333 0 0 1-19.370667-7.893333L207.573333 610.688a61.696 61.696 0 0 1-8.106666-8.448 63.573333 63.573333 0 0 1-13.866667-39.594667v-450.944c0-33.28 26.112-62.421333 60.928-62.421333h530.944c34.816 0 60.928 29.098667 60.928 62.421333V562.645333a63.573333 63.573333 0 0 1-21.845333 47.914667l-102.656 100.266667a27.733333 27.733333 0 0 1-19.370667 7.850666H329.472zM722.346667 625.066667H301.696l39.082667 38.144h342.442666l39.082667-38.144zM242.304 567.04l1.749333 1.706667a4.778667 4.778667 0 0 0 2.474667 0.853333h530.944c0.682667 0 1.621333-0.256 2.517333-0.853333l1.664-1.621334a7.68 7.68 0 0 0 1.28-4.48v-450.944c0-4.992-3.584-6.954667-5.461333-6.954666H246.528c-1.877333 0-5.461333 1.962667-5.461333 6.954666V562.645333a7.68 7.68 0 0 0 1.28 4.437334zM557.397333 479.573333a25.6 25.6 0 0 0 36.224 0.554667l73.088-70.741333a25.557333 25.557333 0 0 0-17.834666-44.032H375.125333a25.6 25.6 0 1 0 0 51.2h210.517334l-27.648 26.794666a25.6 25.6 0 0 0-0.597334 36.181334zM648.874667 257.792a25.6 25.6 0 1 1 0 51.2H375.125333a25.6 25.6 0 0 1-17.834666-44.032l73.088-70.741333a25.6 25.6 0 1 1 35.626666 36.778666l-27.648 26.794667h210.517334z"/></svg>