<?xml version="1.0" standalone="no"?><!DOCTYPE svg PUBLIC "-//W3C//DTD SVG 1.1//EN"
        "http://www.w3.org/Graphics/SVG/1.1/DTD/svg11.dtd"><svg viewBox="0 0 1024 1024" version="1.1" xmlns="http://www.w3.org/2000/svg" xmlns:xlink="http://www.w3.org/1999/xlink"><path transform="scale(1, -1) translate(0, -1024)" d="M753.194667 326.528a29.866667 29.866667 0 0 1-42.24-42.24l27.605333-27.605333H622.08a29.866667 29.866667 0 1 1 0-59.733334h116.48l-27.562667-27.605333a29.866667 29.866667 0 0 1 42.24-42.24l78.037334 78.08a29.781333 29.781333 0 0 1 0.554666 42.752l-78.592 78.592zM183.466667 604.074667c0 42.538667 34.474667 77.013333 77.013333 77.013333h503.04c42.538667 0 77.013333-34.474667 77.013333-77.013333v-251.52a29.866667 29.866667 0 1 0-59.733333 0V604.074667a17.28 17.28 0 0 1-17.28 17.28H260.48a17.28 17.28 0 0 1-17.28-17.28v-440.149334c0-9.557333 7.722667-17.28 17.28-17.28h321.792a29.866667 29.866667 0 1 0 0-59.733333H260.48A77.013333 77.013333 0 0 0 183.466667 163.925333V604.074667zM393.472 544.597333a29.866667 29.866667 0 1 1-45.909333-38.229333l37.802666-45.354667h-30.549333a29.866667 29.866667 0 1 1 0-59.733333h64.426667v-34.56h-64.426667a29.866667 29.866667 0 1 1 0-59.733333h64.426667v-64.426667a29.866667 29.866667 0 0 1 59.733333 0v64.426667h64.426667a29.866667 29.866667 0 1 1 0 59.733333h-64.426667v34.56h64.426667a29.866667 29.866667 0 1 1 0 59.733333h-30.506667l37.76 45.354667a29.866667 29.866667 0 1 1-45.866667 38.229333l-55.68-66.773333-55.637333 66.773333z"/></svg>