<?xml version="1.0" standalone="no"?><!DOCTYPE svg PUBLIC "-//W3C//DTD SVG 1.1//EN"
        "http://www.w3.org/Graphics/SVG/1.1/DTD/svg11.dtd"><svg viewBox="0 0 1024 1024" version="1.1" xmlns="http://www.w3.org/2000/svg" xmlns:xlink="http://www.w3.org/1999/xlink"><path transform="scale(1, -1) translate(0, -1024)" d="M545.877333 276.138667a27.733333 27.733333 0 0 0 27.733334 27.733333H789.333333a27.733333 27.733333 0 0 0 27.733334-27.733333V106.666667a27.733333 27.733333 0 0 0-27.733334-27.733334h-215.722666a27.733333 27.733333 0 0 0-27.733334 27.733334v169.472z m55.466667-27.733334v-114.005333h160.256v114.005333h-160.256zM206.933333 661.333333a27.733333 27.733333 0 0 0 27.733334 27.733334h215.722666a27.733333 27.733333 0 0 0 27.733334-27.733334v-169.472a27.733333 27.733333 0 0 0-27.733334-27.733333H234.666667a27.733333 27.733333 0 0 0-27.733334 27.733333V661.333333z m55.466667-27.733333v-114.005333h160.256V633.6H262.4zM545.877333 661.333333a27.733333 27.733333 0 0 0 27.733334 27.733334H789.333333a27.733333 27.733333 0 0 0 27.733334-27.733334v-261.930666a27.733333 27.733333 0 0 0-27.733334-27.733334h-215.722666a27.733333 27.733333 0 0 0-27.733334 27.733334V661.333333z m55.466667-27.733333v-206.464h160.256V633.6h-160.256zM234.666667 396.330667a27.733333 27.733333 0 0 1-27.733334-27.733334v-261.973333c0-15.274667 12.416-27.733333 27.733334-27.733333h215.722666a27.733333 27.733333 0 0 1 27.733334 27.733333v261.973333a27.733333 27.733333 0 0 1-27.733334 27.733334H234.666667z m27.733333-261.973334v206.506667h160.256v-206.506667H262.4z"/></svg>