<?xml version="1.0" standalone="no"?><!DOCTYPE svg PUBLIC "-//W3C//DTD SVG 1.1//EN"
        "http://www.w3.org/Graphics/SVG/1.1/DTD/svg11.dtd"><svg viewBox="0 0 1024 1024" version="1.1" xmlns="http://www.w3.org/2000/svg" xmlns:xlink="http://www.w3.org/1999/xlink"><path transform="scale(1, -1) translate(0, -1024)" d="M427.178667 648.746667c-23.125333-17.493333-41.557333-46.805333-41.557334-97.877334 0-50.986667 17.792-81.408 35.925334-103.68 4.693333-5.802667 9.514667-11.136 14.378666-16.426666l2.901334-3.157334c3.84-4.096 7.850667-8.405333 11.306666-12.501333 7.808-9.045333 20.266667-24.448 20.266667-44.586667v-3.157333c0-13.994667 0-29.184-2.858667-40.490667a44.202667 44.202667 0 0 0-14.250666-23.637333 42.538667 42.538667 0 0 0-27.648-9.386667H264.234667L264.106667 196.693333H759.893333v97.152h-160.682666c-3.669333 0-13.226667 0-22.314667 5.290667a37.973333 37.973333 0 0 0-17.493333 24.064 97.493333 97.493333 0 0 0-2.346667 20.693333c-0.213333 6.997333-0.213333 15.786667-0.213333 26.154667v0.469333c0 20.949333 10.496 36.778667 19.669333 48.042667 4.650667 5.674667 9.856 11.264 14.592 16.341333l0.213333 0.213334c4.992 5.333333 9.813333 10.496 14.506667 16.085333 17.834667 21.034667 35.370667 48.938667 35.370667 99.669333 0 52.096-17.152 81.450667-38.186667 98.474667-22.101333 17.92-52.906667 25.770667-85.418667 25.770667-32.597333 0-65.92-7.893333-90.368-26.368z m-34.858667 46.122666c37.717333 28.501333 84.778667 38.016 125.226667 38.016s85.930667-9.557333 121.813333-38.613333c36.949333-29.952 59.562667-77.184 59.562667-143.36 0-67.669333-24.661333-108.330667-48.981334-137.088-5.674667-6.656-11.306667-12.672-16.085333-17.834667l-0.341333-0.341333c-5.12-5.461333-9.002667-9.685333-12.245334-13.653333-6.613333-8.106667-6.656-10.794667-6.656-11.477334l0.042667-18.901333h156.8c25.514667 0 46.208-20.650667 46.208-46.165333v-137.642667a28.885333 28.885333 0 0 0-28.928-28.928H235.264a28.928 28.928 0 0 0-28.928 28.928l0.085333 137.642667A46.250667 46.250667 0 0 0 252.586667 351.573333h159.829333c0.170667 4.693333 0.170667 10.368 0.170667 17.408a53.333333 53.333333 0 0 1-6.272 8.405334c-2.730667 3.157333-5.76 6.4-9.386667 10.410666-1.152 1.152-2.304 2.432-3.498667 3.754667a398.976 398.976 0 0 0-16.768 19.114667c-24.32 29.866667-48.853333 72.789333-48.853333 140.16 0 67.285333 25.472 114.517333 64.512 144zM206.336 64c0 15.957333 12.970667 28.885333 28.928 28.885333h553.514667a28.885333 28.885333 0 0 0 0-57.770666H235.221333a28.885333 28.885333 0 0 0-28.928 28.885333z"/></svg>