<?xml version="1.0" standalone="no"?><!DOCTYPE svg PUBLIC "-//W3C//DTD SVG 1.1//EN"
        "http://www.w3.org/Graphics/SVG/1.1/DTD/svg11.dtd"><svg viewBox="0 0 1024 1024" version="1.1" xmlns="http://www.w3.org/2000/svg" xmlns:xlink="http://www.w3.org/1999/xlink"><path transform="scale(1, -1) translate(0, -1024)" d="M304 674.773333a2.773333 2.773333 0 0 1-2.773333-2.773333v-576c0-1.536 1.28-2.773333 2.773333-2.773333h416c1.536 0 2.773333 1.237333 2.773333 2.773333V672a2.773333 2.773333 0 0 1-2.773333 2.773333h-416zM242.773333 672c0 33.792 27.392 61.226667 61.226667 61.226667h416c33.834667 0 61.226667-27.434667 61.226667-61.226667v-576c0-33.834667-27.392-61.226667-61.226667-61.226667h-416A61.226667 61.226667 0 0 0 242.773333 96V672zM512 338.773333a66.773333 66.773333 0 1 1 0-133.546666 66.773333 66.773333 0 0 1 0 133.546666z m-125.226667-66.773333a125.226667 125.226667 0 1 0 250.453334 0 125.226667 125.226667 0 0 0-250.453334 0zM386.773333 576c0 16.128 13.098667 29.226667 29.226667 29.226667h48a29.226667 29.226667 0 1 0 0-58.453334H416a29.226667 29.226667 0 0 0-29.226667 29.226667zM386.773333 480c0 16.128 13.098667 29.226667 29.226667 29.226667h48a29.226667 29.226667 0 1 0 0-58.453334H416a29.226667 29.226667 0 0 0-29.226667 29.226667zM560 509.226667a29.226667 29.226667 0 0 1 0-58.453334h48a29.226667 29.226667 0 0 1 0 58.453334h-48z"/></svg>