<?xml version="1.0" standalone="no"?><!DOCTYPE svg PUBLIC "-//W3C//DTD SVG 1.1//EN"
        "http://www.w3.org/Graphics/SVG/1.1/DTD/svg11.dtd"><svg viewBox="0 0 1024 1024" version="1.1" xmlns="http://www.w3.org/2000/svg" xmlns:xlink="http://www.w3.org/1999/xlink"><path transform="scale(1, -1) translate(0, -1024)" d="M223.658667 694.912c0 15.914667 12.885333 28.8 28.8 28.8h512c15.872 0 28.8-12.885333 28.8-28.8v-621.013333a28.8 28.8 0 0 0-28.8-28.8h-512a28.8 28.8 0 0 0-28.8 28.8v128a28.8 28.8 0 1 0 57.6 0v-99.2h454.4V666.112H281.258667v-99.2a28.8 28.8 0 0 0-57.6 0v128zM191.658667 288c0 15.914667 12.885333 28.8 28.8 28.8h64a28.8 28.8 0 1 0 0-57.6h-64a28.8 28.8 0 0 0-28.8 28.8zM191.658667 384c0 15.914667 12.885333 28.8 28.8 28.8h64a28.8 28.8 0 1 0 0-57.6h-64A28.8 28.8 0 0 0 191.658667 384zM191.658667 480c0 15.914667 12.885333 28.8 28.8 28.8h64a28.8 28.8 0 0 0 0-57.6h-64a28.8 28.8 0 0 0-28.8 28.8zM512 511.573333a30.634667 30.634667 0 1 1 0-61.269333 30.634667 30.634667 0 0 1 0 61.269333z m-80.725333-30.634666a80.725333 80.725333 0 1 0 161.450666 0 80.725333 80.725333 0 0 0-161.450666 0zM375.594667 237.952a136.405333 136.405333 0 1 0 272.810666 0 25.045333 25.045333 0 0 0-50.090666 0 86.314667 86.314667 0 1 1-172.629334 0 25.045333 25.045333 0 0 0-50.090666 0z"/></svg>