<?xml version="1.0" standalone="no"?><!DOCTYPE svg PUBLIC "-//W3C//DTD SVG 1.1//EN"
        "http://www.w3.org/Graphics/SVG/1.1/DTD/svg11.dtd"><svg viewBox="0 0 1024 1024" version="1.1" xmlns="http://www.w3.org/2000/svg" xmlns:xlink="http://www.w3.org/1999/xlink"><path transform="scale(1, -1) translate(0, -1024)" d="M661.333333 688.469333a28.8 28.8 0 0 1-20.352-8.405333L564.053333 603.136H348.458667a28.8 28.8 0 0 1 0-57.6h215.594666l76.928-76.885333a28.8 28.8 0 0 1 20.352-8.448h113.792a28.8 28.8 0 0 1 0 57.6H673.28l-56.533333 56.533333 56.533333 56.533333h101.845333a28.8 28.8 0 1 1 0 57.6H661.333333zM205.866667 574.336a85.674667 85.674667 0 1 0 147.242666-59.605333l98.986667-210.261334h308.778667c31.616 0 57.258667-25.6 57.258666-57.258666v-99.541334a28.8 28.8 0 0 0-28.8-28.8H248.874667a28.8 28.8 0 0 0-28.8 28.8v99.541334c0 31.616 25.642667 57.258667 57.258666 57.258666h111.061334l-86.954667 184.746667a85.674667 85.674667 0 0 0-95.573333 85.12z m85.674666 28.117333a28.074667 28.074667 0 1 1 0-56.192 28.074667 28.074667 0 0 1 0 56.192z m141.738667-355.584H277.674667v-70.4h482.858666v70.4h-327.253333z"/></svg>