<?xml version="1.0" standalone="no"?><!DOCTYPE svg PUBLIC "-//W3C//DTD SVG 1.1//EN"
        "http://www.w3.org/Graphics/SVG/1.1/DTD/svg11.dtd"><svg viewBox="0 0 1024 1024" version="1.1" xmlns="http://www.w3.org/2000/svg" xmlns:xlink="http://www.w3.org/1999/xlink"><path transform="scale(1, -1) translate(0, -1024)" d="M409.6 796.8c15.914667 0 28.8-12.885333 28.8-28.8v-39.466667h147.2V768a28.8 28.8 0 1 0 57.6 0v-39.466667H733.866667c34.773333 0 62.933333-28.16 62.933333-62.933333v-546.133333c0-34.730667-28.16-62.933333-62.933333-62.933334H290.133333c-34.773333 0-62.933333 28.16-62.933333 62.933334V665.6c0 34.773333 28.16 62.933333 62.933333 62.933333h90.666667V768c0 15.914667 12.885333 28.8 28.8 28.8z m176-125.866667h-147.2V665.6a28.8 28.8 0 0 0-57.6 0v5.333333H290.133333a5.333333 5.333333 0 0 1-5.333333-5.333333v-546.133333c0-2.944 2.389333-5.333333 5.333333-5.333334h443.733334a5.333333 5.333333 0 0 1 5.333333 5.333334V665.6a5.333333 5.333333 0 0 1-5.333333 5.333333h-90.666667V665.6a28.8 28.8 0 1 0-57.6 0v5.333333zM346.666667 512c0 15.914667 12.885333 28.8 28.8 28.8h273.066666a28.8 28.8 0 1 0 0-57.6H375.466667A28.8 28.8 0 0 0 346.666667 512zM346.666667 375.466667c0 15.914667 12.885333 28.8 28.8 28.8h204.8a28.8 28.8 0 1 0 0-57.6H375.466667a28.8 28.8 0 0 0-28.8 28.8zM375.466667 267.733333a28.8 28.8 0 1 1 0-57.6H512a28.8 28.8 0 1 1 0 57.6H375.466667z"/></svg>