<?xml version="1.0" standalone="no"?><!DOCTYPE svg PUBLIC "-//W3C//DTD SVG 1.1//EN"
        "http://www.w3.org/Graphics/SVG/1.1/DTD/svg11.dtd"><svg viewBox="0 0 1024 1024" version="1.1" xmlns="http://www.w3.org/2000/svg" xmlns:xlink="http://www.w3.org/1999/xlink"><path transform="scale(1, -1) translate(0, -1024)" d="M291.925333 581.333333a29.866667 29.866667 0 0 0 29.866667-29.866666v-394.538667h380.416V551.466667a29.866667 29.866667 0 1 0 59.733333 0v-424.405334a29.866667 29.866667 0 0 0-29.866666-29.866666H291.925333a29.866667 29.866667 0 0 0-29.866666 29.866666V551.466667a29.866667 29.866667 0 0 0 29.866666 29.866666zM491.690667 777.728a29.866667 29.866667 0 0 0 40.618666 0l220.074667-204.373333a40.704 40.704 0 0 0 0.810667-0.725334l78.592-78.634666a29.866667 29.866667 0 0 0-42.24-42.24l-78.208 78.208L512 715.093333 312.661333 529.92 234.453333 451.84a29.866667 29.866667 0 1 0-42.24 42.24L270.805333 572.586667a29.994667 29.994667 0 0 0 0.810667 0.768l220.074667 204.330666zM453.077333 536.448a25.6 25.6 0 1 1-39.338666-32.768l43.605333-52.352h-39.68a25.6 25.6 0 1 1 0-51.2H486.4v-43.093333H417.706667a25.6 25.6 0 1 1 0-51.2h68.693333v-68.736a25.6 25.6 0 0 1 51.2 0v68.693333h68.693333a25.6 25.6 0 1 1 0 51.2H537.6v43.093333h68.693333a25.6 25.6 0 1 1 0 51.2h-39.68l43.648 52.394667a25.6 25.6 0 1 1-39.338666 32.768l-58.88-70.741333-58.965334 70.741333z"/></svg>