<?xml version="1.0" standalone="no"?><!DOCTYPE svg PUBLIC "-//W3C//DTD SVG 1.1//EN"
        "http://www.w3.org/Graphics/SVG/1.1/DTD/svg11.dtd"><svg viewBox="0 0 1024 1024" version="1.1" xmlns="http://www.w3.org/2000/svg" xmlns:xlink="http://www.w3.org/1999/xlink"><path transform="scale(1, -1) translate(0, -1024)" d="M407.466667 514.133333a27.733333 27.733333 0 0 0 27.733333-27.733333v-151.466667h153.6V486.4a27.733333 27.733333 0 0 0 55.466667 0v-151.466667H810.666667a27.733333 27.733333 0 0 0 0-55.466666h-166.4V128a27.733333 27.733333 0 1 0-55.466667 0v151.466667h-153.6V128a27.733333 27.733333 0 0 0-55.466667 0v151.466667H213.333333a27.733333 27.733333 0 1 0 0 55.466666h166.4V486.4a27.733333 27.733333 0 0 0 27.733334 27.733333zM407.466667 753.066667a27.733333 27.733333 0 0 0 27.733333-27.733334v-32h153.6V725.333333a27.733333 27.733333 0 0 0 55.466667 0v-32h136.533333c31.829333 0 57.6-25.813333 57.6-57.6v-477.866666a57.6 57.6 0 0 0-57.6-57.6H243.2a57.6 57.6 0 0 0-57.6 57.6V635.733333c0 31.786667 25.770667 57.6 57.6 57.6h136.533333V725.333333a27.733333 27.733333 0 0 0 27.733334 27.733334z m181.333333-115.2h-153.6v-32a27.733333 27.733333 0 0 0-55.466667 0v32H243.2a2.133333 2.133333 0 0 1-2.133333-2.133334v-121.6h541.866666V635.733333a2.133333 2.133333 0 0 1-2.133333 2.133334h-136.533333v-32a27.733333 27.733333 0 1 0-55.466667 0v32z m194.133333-179.2H241.066667v-300.8c0-1.194667 0.938667-2.133333 2.133333-2.133334h537.6a2.133333 2.133333 0 0 1 2.133333 2.133334v300.8z"/></svg>