<?xml version="1.0" standalone="no"?><!DOCTYPE svg PUBLIC "-//W3C//DTD SVG 1.1//EN"
        "http://www.w3.org/Graphics/SVG/1.1/DTD/svg11.dtd"><svg viewBox="0 0 1024 1024" version="1.1" xmlns="http://www.w3.org/2000/svg" xmlns:xlink="http://www.w3.org/1999/xlink"><path transform="scale(1, -1) translate(0, -1024)" d="M275.072 692.437333a27.733333 27.733333 0 0 1-25.856-17.749333L202.368 553.386667a121.6 121.6 0 0 1 32.597333-134.826667 27.946667 27.946667 0 0 1-0.213333-3.413333v-311.893334c0-15.274667 12.416-27.733333 27.733333-27.733333h184.746667a27.733333 27.733333 0 1 1 0 55.466667h-157.013333v259.242666a121.6 121.6 0 0 1 120.149333 41.386667 121.045333 121.045333 0 0 1 93.653333-44.202667h15.872c37.717333 0 71.381333 17.194667 93.610667 44.16a121.6 121.6 0 0 1 93.824-44.16c85.504 0 145.237333 85.888 114.304 166.016l-46.848 121.173334a27.733333 27.733333 0 0 1-25.856 17.792H275.072z m228.949333-249.514666c-36.352 0-65.834667 29.44-65.834666 65.834666a27.733333 27.733333 0 1 1-55.466667 0c0-36.266667-29.653333-65.834667-66.133333-65.834666-46.933333 0-79.232 47.104-62.464 90.496l39.978666 103.552h435.797334l39.978666-103.466667c16.768-43.434667-15.573333-90.581333-62.549333-90.581333-36.48 0-66.133333 29.610667-66.133333 65.834666a27.733333 27.733333 0 1 1-55.466667 0c0-36.352-29.44-65.834667-65.834667-65.834666h-15.872zM681.984 356.266667a32 32 0 0 0 32-32v-20.693334c6.826667-2.005333 13.312-4.650667 19.498667-7.850666l19.114666 19.157333a32 32 0 0 0 45.226667-45.269333l-18.304-18.346667c4.096-7.210667 7.424-14.933333 9.813333-23.04h20.650667a32 32 0 0 0 0-64H789.333333a111.616 111.616 0 0 0-8.789333-21.290667l22.016-22.016a32 32 0 0 0-45.226667-45.226666l-22.058666 22.016a111.189333 111.189333 0 0 0-21.290667-8.832v-20.650667a32 32 0 0 0-64 0v20.650667a111.573333 111.573333 0 0 0-23.04 9.813333l-23.04-23.04a32 32 0 0 0-45.226667 45.269333l23.808 23.808a111.530667 111.530667 0 0 0-7.850666 19.498667h-20.650667a32 32 0 0 0 0 64h20.650667c2.218667 7.466667 5.162667 14.592 8.832 21.290667l-20.096 20.053333a32 32 0 0 0 45.226666 45.312l20.096-20.096c6.741333 3.626667 13.866667 6.570667 21.333334 8.789333V324.266667a32 32 0 0 0 32 32z m0.597333-208.042667a48 48 0 1 1-1.194666 0h1.194666z"/></svg>