<?xml version="1.0" standalone="no"?><!DOCTYPE svg PUBLIC "-//W3C//DTD SVG 1.1//EN"
        "http://www.w3.org/Graphics/SVG/1.1/DTD/svg11.dtd"><svg viewBox="0 0 1024 1024" version="1.1" xmlns="http://www.w3.org/2000/svg" xmlns:xlink="http://www.w3.org/1999/xlink"><path transform="scale(1, -1) translate(0, -1024)" d="M726.4 665.301333a29.866667 29.866667 0 0 1-40.704 27.818667L364.544 568.234667H192.469333a29.866667 29.866667 0 0 1-29.866666-29.866667v-326.4a29.866667 29.866667 0 0 1 29.866666-29.866667h172.032l321.194667-124.928a29.866667 29.866667 0 0 1 40.704 27.861334v580.266666z m-326.4-432.896V517.930667l266.666667 103.68v-492.928l-266.666667 103.68z m-177.664 9.386667v266.666667h117.930667v-266.666667H222.336zM793.6 502.101333a29.866667 29.866667 0 0 0 29.866667 29.866667h36.266666a29.866667 29.866667 0 1 0 0-59.733333h-36.266666a29.866667 29.866667 0 0 0-29.866667 29.866666zM775.466667 357.034667a29.866667 29.866667 0 0 0 29.866666 29.866666H896a29.866667 29.866667 0 1 0 0-59.733333h-90.666667a29.866667 29.866667 0 0 0-29.866666 29.866667zM823.466667 241.834667a29.866667 29.866667 0 1 1 0-59.733334h36.266666a29.866667 29.866667 0 1 1 0 59.733334h-36.266666z"/></svg>