<?xml version="1.0" standalone="no"?><!DOCTYPE svg PUBLIC "-//W3C//DTD SVG 1.1//EN"
        "http://www.w3.org/Graphics/SVG/1.1/DTD/svg11.dtd"><svg viewBox="0 0 1024 1024" version="1.1" xmlns="http://www.w3.org/2000/svg" xmlns:xlink="http://www.w3.org/1999/xlink"><path transform="scale(1, -1) translate(0, -1024)" d="M385.749333 688.768a31.146667 31.146667 0 1 0 23.893334-57.514667A267.946667 267.946667 0 0 1 244.48 384a267.52 267.52 0 0 1 514.773333-102.4 31.146667 31.146667 0 1 0 57.514667-23.850667 330.069333 330.069333 0 0 0-71.552-106.965333A329.813333 329.813333 0 1 0 385.706667 688.810667zM480.853333 682.666667a31.146667 31.146667 0 0 0 31.146667 31.146666A329.813333 329.813333 0 0 0 841.813333 384a31.146667 31.146667 0 0 0-31.146666-31.146667h-298.666667a31.146667 31.146667 0 0 0-31.146667 31.146667V682.666667z m62.293334-32.938667v-234.581333h234.581333a267.648 267.648 0 0 1-234.581333 234.581333z"/></svg>