<?xml version="1.0" standalone="no"?><!DOCTYPE svg PUBLIC "-//W3C//DTD SVG 1.1//EN"
        "http://www.w3.org/Graphics/SVG/1.1/DTD/svg11.dtd"><svg viewBox="0 0 1024 1024" version="1.1" xmlns="http://www.w3.org/2000/svg" xmlns:xlink="http://www.w3.org/1999/xlink"><path transform="scale(1, -1) translate(0, -1024)" d="M171.733333 384a340.266667 340.266667 0 1 0 680.533334 0 340.266667 340.266667 0 0 0-680.533334 0zM512 662.4a278.4 278.4 0 1 1 0-556.8 278.4 278.4 0 0 1 0 556.8zM512 318.037333c41.813333 0 76.544-14.592 103.68-38.741333 16.341333-14.506667 26.752-29.226667 32.256-40.192a30.933333 30.933333 0 0 0-52.992-31.616l-2.346667 3.925333a82.218667 82.218667 0 0 1-18.005333 21.674667c-16.341333 14.506667-36.778667 23.082667-62.592 23.082667-25.856 0-46.250667-8.533333-62.592-23.082667-8.106667-7.253333-13.653333-14.336-16.554667-19.114667l-1.450666-2.56a30.933333 30.933333 0 1 0-55.338667 27.690667c5.504 10.965333 15.914667 25.685333 32.256 40.192 27.136 24.149333 61.866667 38.741333 103.68 38.741333zM386.645333 500.394667a30.933333 30.933333 0 0 1-27.690666-55.338667l61.866666-30.933333a30.933333 30.933333 0 0 1 27.690667 55.338666l-61.866667 30.933334zM665.045333 445.056a30.933333 30.933333 0 1 1-27.690666 55.338667l-61.866667-30.933334a30.933333 30.933333 0 0 1 27.690667-55.338666l61.866666 30.933333z"/></svg>