<?xml version="1.0" standalone="no"?><!DOCTYPE svg PUBLIC "-//W3C//DTD SVG 1.1//EN"
        "http://www.w3.org/Graphics/SVG/1.1/DTD/svg11.dtd"><svg viewBox="0 0 1024 1024" version="1.1" xmlns="http://www.w3.org/2000/svg" xmlns:xlink="http://www.w3.org/1999/xlink"><path transform="scale(1, -1) translate(0, -1024)" d="M547.370667 257.792l-5.888 29.312 5.888-29.312a29.866667 29.866667 0 0 0-15.317334 0.938667l-101.12 33.706666a29.866667 29.866667 0 0 0 18.858667 56.704l93.653333-31.232 3.2 0.64a12746.794667 12746.794667 0 0 0 119.978667 23.168c33.792 6.357333 68.778667 12.714667 97.536 17.493334 27.306667 4.565333 52.394667 8.32 63.872 8.32 13.098667 0 27.306667-3.285333 38.656-13.226667 11.861333-10.325333 16.512-24.448 16.512-37.717333 0-24.277333-14.890667-48.341333-34.048-67.498667a670.037333 670.037333 0 0 0-106.24-84.138667c-47.616-30.293333-108.373333-59.434667-167.68-59.434666-55.637333 0-101.589333 13.994667-140.117333 26.794666-3.626667 1.28-7.253333 2.432-10.666667 3.584-34.645333 11.648-60.117333 20.181333-85.205333 20.181334H170.666667l-0.042667 29.866666v29.866667h168.533333c35.584 0 70.826667-11.946667 103.338667-22.954667l11.52-3.84c37.333333-12.458667 75.648-23.765333 121.173333-23.765333 41.813333 0 90.624 21.461333 135.68 50.090667a611.114667 611.114667 0 0 1 96 75.989333c5.888 5.888 9.984 11.264 12.672 15.786667-9.386667-1.109333-24.96-3.413333-45.653333-6.826667-28.117333-4.693333-62.634667-10.965333-96.298667-17.28a11970.858667 11970.858667 0 0 1-119.381333-23.04l-10.88-2.133333z m282.88 49.834667h-0.085334zM170.666667 185.941333v29.866667a29.866667 29.866667 0 1 1 0.042666-59.733333l-0.042666 29.866666zM257.109333 417.066667a322.218667 322.218667 0 0 1-65.322666-49.962667 29.866667 29.866667 0 1 0-42.24 42.24 381.866667 381.866667 0 0 0 77.952 59.605333c31.957333 18.218667 70.869333 33.408 111.744 33.408 20.906667 0 46.592-5.034667 72.32-12.117333 26.197333-7.253333 54.485333-17.109333 81.152-28.032 26.709333-10.88 52.352-22.997333 73.344-34.816 10.453333-5.888 20.096-11.946667 28.288-17.92 7.765333-5.674667 15.786667-12.458667 21.632-20.181333 14.122667-18.901333 12.8-39.850667 6.826666-55.808-5.589333-14.933333-15.786667-27.776-24.746666-37.333334a241.152 241.152 0 0 0-38.784-33.109333l-0.810667-0.554667-0.256-0.170666-0.085333-0.042667h-0.042667l-16.597333 24.832 16.597333-24.874667a29.866667 29.866667 0 0 0-33.194667 49.664l0.512 0.341334a156.714667 156.714667 0 0 1 9.130667 6.784c6.016 4.693333 13.44 11.050667 19.925333 17.962666 6.869333 7.338667 10.88 13.397333 12.373334 17.493334l0.170666 0.256a70.229333 70.229333 0 0 1-7.936 6.528 230.656 230.656 0 0 1-22.357333 14.08c-18.261333 10.325333-41.6 21.376-66.56 31.573333a680.618667 680.618667 0 0 1-74.453333 25.728c-24.064 6.613333-43.648 9.984-56.448 9.984-26.581333 0-55.04-10.112-82.133334-25.6zM541.482667 755.2a29.866667 29.866667 0 1 1 0-59.733333h269.696a29.866667 29.866667 0 1 1 0 59.733333h-269.653334zM592.085333 654.08a80.426667 80.426667 0 1 1 0-160.853333h168.533334a80.426667 80.426667 0 0 1 0 160.853333h-168.533334z m-20.736-80.469333c0 11.434667 9.258667 20.736 20.736 20.736h168.533334a20.693333 20.693333 0 0 0 0-41.386667h-168.533334a20.693333 20.693333 0 0 0-20.736 20.650667z"/></svg>