<?xml version="1.0" standalone="no"?><!DOCTYPE svg PUBLIC "-//W3C//DTD SVG 1.1//EN"
        "http://www.w3.org/Graphics/SVG/1.1/DTD/svg11.dtd"><svg viewBox="0 0 1024 1024" version="1.1" xmlns="http://www.w3.org/2000/svg" xmlns:xlink="http://www.w3.org/1999/xlink"><path transform="scale(1, -1) translate(0, -1024)" d="M193.792 626.901333c0 42.837333 34.730667 77.568 77.568 77.568h442.368c42.837333 0 77.568-34.730667 77.568-77.568v-216.874666a27.605333 27.605333 0 1 0-55.253333 0V626.901333a22.314667 22.314667 0 0 1-22.314667 22.314667H271.36a22.314667 22.314667 0 0 1-22.314667-22.314667v-479.914666c0-12.330667 9.984-22.314667 22.314667-22.314667h248.704a27.605333 27.605333 0 1 0 0-55.253333H271.36a77.568 77.568 0 0 0-77.568 77.568V626.901333zM702.72 345.344a127.488 127.488 0 1 1 72.96-232.106667l45.653333-42.325333a27.605333 27.605333 0 0 1 37.546667 40.533333l-45.824 42.453334a127.488 127.488 0 0 1-110.336 191.445333z m-72.234667-127.530667a72.234667 72.234667 0 1 0 144.512 0 72.234667 72.234667 0 0 0-144.512 0zM374.954667 546.56a27.605333 27.605333 0 0 1-42.453334-35.370667l41.130667-49.322666H337.92a27.605333 27.605333 0 1 1 0-55.253334h66.986667v-39.338666H337.92a27.605333 27.605333 0 1 1 0-55.253334h66.986667v-66.986666a27.605333 27.605333 0 1 1 55.253333 0v66.986666h66.986667a27.605333 27.605333 0 1 1 0 55.253334h-66.986667v39.338666h66.986667a27.605333 27.605333 0 1 1 0 55.253334h-35.669334l41.130667 49.322666a27.605333 27.605333 0 1 1-42.453333 35.370667l-57.6-69.12-57.642667 69.12z"/></svg>