<?xml version="1.0" standalone="no"?><!DOCTYPE svg PUBLIC "-//W3C//DTD SVG 1.1//EN"
        "http://www.w3.org/Graphics/SVG/1.1/DTD/svg11.dtd"><svg viewBox="0 0 1024 1024" version="1.1" xmlns="http://www.w3.org/2000/svg" xmlns:xlink="http://www.w3.org/1999/xlink"><path transform="scale(1, -1) translate(0, -1024)" d="M256 700.8c-33.578667 0-60.8-27.221333-60.8-60.8v-128a28.8 28.8 0 1 1 57.6 0V640c0 1.749333 1.450667 3.2 3.2 3.2h128a28.8 28.8 0 0 1 0 57.6H256zM252.8 256a28.8 28.8 0 1 1-57.6 0v-128c0-33.578667 27.221333-60.8 60.8-60.8h128a28.8 28.8 0 1 1 0 57.6H256A3.2 3.2 0 0 0 252.8 128v128zM800 284.8c15.914667 0 28.8-12.885333 28.8-28.8v-128c0-33.578667-27.221333-60.8-60.8-60.8h-128a28.8 28.8 0 1 0 0 57.6h128a3.2 3.2 0 0 1 3.2 3.2v128c0 15.914667 12.885333 28.8 28.8 28.8zM640 700.8a28.8 28.8 0 1 1 0-57.6h128c1.749333 0 3.2-1.450667 3.2-3.2v-128a28.8 28.8 0 1 1 57.6 0V640c0 33.578667-27.221333 60.8-60.8 60.8h-128zM412.8 512a28.8 28.8 0 1 1-57.6 0v-256a28.8 28.8 0 0 1 57.6 0V512zM512 540.8c15.914667 0 28.8-12.928 28.8-28.8v-256a28.8 28.8 0 0 0-57.6 0V512c0 15.872 12.885333 28.8 28.8 28.8zM640 540.8c15.914667 0 28.8-12.928 28.8-28.8v-256a28.8 28.8 0 0 0-57.6 0V512c0 15.872 12.885333 28.8 28.8 28.8z"/></svg>