<?xml version="1.0" standalone="no"?><!DOCTYPE svg PUBLIC "-//W3C//DTD SVG 1.1//EN"
        "http://www.w3.org/Graphics/SVG/1.1/DTD/svg11.dtd"><svg viewBox="0 0 1024 1024" version="1.1" xmlns="http://www.w3.org/2000/svg" xmlns:xlink="http://www.w3.org/1999/xlink"><path transform="scale(1, -1) translate(0, -1024)" d="M205.952 567.893333a27.733333 27.733333 0 0 0 27.733333 27.733334h96.64v-55.466667H261.418667v-246.186667h502.229333V540.16h-73.642667v55.466667h101.376a27.733333 27.733333 0 0 0 27.733334-27.733334v-461.184a27.733333 27.733333 0 0 0-27.733334-27.733333H233.685333a27.733333 27.733333 0 0 0-27.733333 27.733333V567.936z m557.696-329.386666H261.418667v-104.064h502.229333v104.106666zM305.194667 650.666667a27.733333 27.733333 0 0 0 27.733333 27.733333h359.253333a27.733333 27.733333 0 0 0 27.733334-27.733333v-369.322667a27.733333 27.733333 0 1 0-55.466667 0V622.976h-303.786667v-341.632a27.733333 27.733333 0 1 0-55.466666 0V650.709333zM464 581.248a20.864 20.864 0 0 1-32-26.666667l35.498667-42.624H435.2a20.864 20.864 0 0 1 0-41.685333h55.936v-35.114667H435.2a20.864 20.864 0 0 1 0-41.685333h55.936v-44.714667a20.864 20.864 0 0 1 41.685333 0v44.714667H588.8a20.864 20.864 0 1 1 0 41.685333h-55.978667v35.114667H588.8a20.864 20.864 0 1 1 0 41.685333h-32.298667l35.498667 42.624a20.864 20.864 0 0 1-32 26.666667L512 523.648l-48 57.6z"/></svg>