<?xml version="1.0" standalone="no"?><!DOCTYPE svg PUBLIC "-//W3C//DTD SVG 1.1//EN"
        "http://www.w3.org/Graphics/SVG/1.1/DTD/svg11.dtd"><svg viewBox="0 0 1024 1024" version="1.1" xmlns="http://www.w3.org/2000/svg" xmlns:xlink="http://www.w3.org/1999/xlink"><path transform="scale(1, -1) translate(0, -1024)" d="M547.370667 169.258667l-5.888 29.312 5.888-29.312a29.866667 29.866667 0 0 0-15.317334 0.981333l-101.12 33.706667a29.866667 29.866667 0 0 0 18.858667 56.661333l93.653333-31.232 3.2 0.64a13319.253333 13319.253333 0 0 0 119.978667 23.168c33.792 6.357333 68.778667 12.714667 97.536 17.493333 27.306667 4.565333 52.394667 8.32 63.872 8.32 13.098667 0 27.306667-3.285333 38.656-13.226666 11.861333-10.325333 16.512-24.448 16.512-37.717334 0-24.277333-14.890667-48.341333-34.048-67.498666a670.208 670.208 0 0 0-106.24-84.138667c-47.616-30.293333-108.373333-59.434667-167.68-59.434667-55.637333 0-101.589333 13.994667-140.117333 26.794667-3.626667 1.28-7.210667 2.432-10.666667 3.584-34.645333 11.648-60.117333 20.181333-85.205333 20.181333H170.666667l-0.042667 29.866667v29.866667h168.533333c35.584 0 70.826667-11.946667 103.338667-22.954667l11.52-3.84c37.333333-12.458667 75.648-23.765333 121.173333-23.765333 41.813333 0 90.624 21.461333 135.68 50.133333a611.285333 611.285333 0 0 1 96 75.946667c5.888 5.888 9.984 11.264 12.672 15.786666-9.386667-1.066667-24.96-3.413333-45.653333-6.826666-28.117333-4.693333-62.634667-10.965333-96.298667-17.28a12006.741333 12006.741333 0 0 1-119.381333-23.04l-10.88-2.133334z m282.88 49.834666h-0.085334zM170.666667 97.408v29.866667a29.866667 29.866667 0 1 1 0.042666-59.733334l-0.042666 29.866667zM257.109333 328.533333a322.218667 322.218667 0 0 1-65.322666-49.92 29.866667 29.866667 0 1 0-42.24 42.24 381.866667 381.866667 0 0 0 77.952 59.562667c31.957333 18.261333 70.869333 33.450667 111.744 33.450667 20.906667 0 46.592-5.077333 72.32-12.16 26.197333-7.210667 54.485333-17.066667 81.152-27.989334 26.709333-10.88 52.352-23.04 73.344-34.816 10.453333-5.930667 20.138667-11.946667 28.288-17.92 7.765333-5.717333 15.786667-12.501333 21.632-20.224 14.165333-18.858667 12.8-39.808 6.826666-55.808-5.589333-14.890667-15.786667-27.733333-24.746666-37.333333a241.152 241.152 0 0 0-38.784-33.066667l-0.810667-0.554666-0.256-0.170667-0.085333-0.085333h-0.042667l-16.597333 24.832 16.597333-24.832a29.866667 29.866667 0 0 0-33.194667 49.664l0.512 0.341333 1.92 1.365333a203.136 203.136 0 0 1 27.136 23.381334c6.869333 7.296 10.88 13.397333 12.416 17.450666l0.128 0.298667a69.845333 69.845333 0 0 1-7.936 6.528 230.144 230.144 0 0 1-22.357333 14.08c-18.261333 10.325333-41.6 21.333333-66.56 31.573333a680.661333 680.661333 0 0 1-74.453333 25.685334c-24.064 6.613333-43.648 10.026667-56.448 10.026666-26.581333 0-55.04-10.112-82.133334-25.6zM676.352 438.4a20.693333 20.693333 0 1 1 0-41.386667 20.693333 20.693333 0 0 1 0 41.386667z m-80.426667-20.693333a80.426667 80.426667 0 1 0 160.853334 0 80.426667 80.426667 0 0 0-160.853334 0zM474.069333 556.373333a20.693333 20.693333 0 1 1 0-41.386666 20.693333 20.693333 0 0 1 0 41.386666z m-80.426666-20.693333a80.426667 80.426667 0 1 0 160.853333 0 80.426667 80.426667 0 0 0-160.853333 0zM676.352 691.242667a20.693333 20.693333 0 1 1 0-41.386667 20.693333 20.693333 0 0 1 0 41.386667z m-80.426667-20.693334a80.426667 80.426667 0 1 0 160.853334 0 80.426667 80.426667 0 0 0-160.853334 0z"/></svg>