<?xml version="1.0" standalone="no"?><!DOCTYPE svg PUBLIC "-//W3C//DTD SVG 1.1//EN"
        "http://www.w3.org/Graphics/SVG/1.1/DTD/svg11.dtd"><svg viewBox="0 0 1024 1024" version="1.1" xmlns="http://www.w3.org/2000/svg" xmlns:xlink="http://www.w3.org/1999/xlink"><path transform="scale(1, -1) translate(0, -1024)" d="M411.733333 277.418667a27.733333 27.733333 0 0 0 27.733334 27.733333h145.066666a27.733333 27.733333 0 0 0 27.733334-27.733333v-174.08a27.733333 27.733333 0 0 0-27.733334-27.733334h-145.066666a27.733333 27.733333 0 0 0-27.733334 27.733334v174.08z m55.466667-27.733334v-118.613333h89.6v118.613333h-89.6zM275.072 692.437333a27.733333 27.733333 0 0 1-25.856-17.749333L202.368 553.386667a121.6 121.6 0 0 1 32.597333-134.826667 27.946667 27.946667 0 0 1-0.213333-3.413333v-311.893334c0-15.274667 12.458667-27.733333 27.733333-27.733333h498.986667a27.733333 27.733333 0 0 1 27.733333 27.733333v311.893334a27.306667 27.306667 0 0 1-0.213333 3.456 121.6 121.6 0 0 1 32.64 134.826666l-46.848 121.173334a27.733333 27.733333 0 0 1-25.856 17.792H275.072z m458.666667-302.165333v-259.2H290.261333v259.2a121.6 121.6 0 0 1 120.149334 41.386667 121.045333 121.045333 0 0 1 93.653333-44.202667h15.872c37.717333 0 71.381333 17.194667 93.610667 44.16a121.6 121.6 0 0 1 120.277333-41.344z m-229.717334 52.650667c-36.352 0-65.834667 29.44-65.834666 65.834666a27.733333 27.733333 0 0 1-55.466667 0c0-36.266667-29.653333-65.834667-66.133333-65.834666-46.933333 0-79.232 47.104-62.464 90.496l39.978666 103.552h435.797334l39.978666-103.466667c16.768-43.434667-15.573333-90.581333-62.549333-90.581333-36.48 0-66.133333 29.610667-66.133333 65.834666a27.733333 27.733333 0 1 1-55.466667 0c0-36.352-29.44-65.834667-65.834667-65.834666h-15.872z"/></svg>