<?xml version="1.0" standalone="no"?><!DOCTYPE svg PUBLIC "-//W3C//DTD SVG 1.1//EN"
        "http://www.w3.org/Graphics/SVG/1.1/DTD/svg11.dtd"><svg viewBox="0 0 1024 1024" version="1.1" xmlns="http://www.w3.org/2000/svg" xmlns:xlink="http://www.w3.org/1999/xlink"><path transform="scale(1, -1) translate(0, -1024)" d="M330.26048 389.44768a26.624 26.624 0 0 0-9.70752-36.37248l-83.10784-48.08704L512 146.0224l274.55488 158.9248-83.10784 48.08704a26.624 26.624 0 1 0 26.70592 46.08l122.88-71.14752a26.624 26.624 0 0 0 0-46.08l-327.68-189.68576a26.624 26.624 0 0 0-26.70592 0l-327.68 189.68576a26.624 26.624 0 0 0 0 46.08l122.88 71.14752a26.624 26.624 0 0 0 36.37248-9.66656zM498.64704 675.75808a26.624 26.624 0 0 0 26.70592 0l327.68-189.68576a26.624 26.624 0 0 0 0-46.12096l-327.68-189.68576a26.624 26.624 0 0 0-26.70592 0l-327.68 189.72672a26.624 26.624 0 0 0 0 46.03904l327.68 189.72672zM237.44512 463.0528L512 304.08704l274.55488 158.9248L512 621.93664l-274.55488-158.9248z"/></svg>