<?xml version="1.0" standalone="no"?><!DOCTYPE svg PUBLIC "-//W3C//DTD SVG 1.1//EN"
        "http://www.w3.org/Graphics/SVG/1.1/DTD/svg11.dtd"><svg viewBox="0 0 1024 1024" version="1.1" xmlns="http://www.w3.org/2000/svg" xmlns:xlink="http://www.w3.org/1999/xlink"><path transform="scale(1, -1) translate(0, -1024)" d="M236.245333 250.026667a27.733333 27.733333 0 0 0 27.733334 27.733333l578.688-0.298667a27.733333 27.733333 0 0 0 0-55.466666l-578.688 0.341333a27.733333 27.733333 0 0 0-27.733334 27.733333zM153.6 663.381333a27.733333 27.733333 0 0 0 27.733333 27.733334h380.288a27.733333 27.733333 0 0 0 18.645334-7.210667l173.909333-158.122667h88.490667a27.733333 27.733333 0 0 0 27.733333-27.733333v-363.733333a27.733333 27.733333 0 0 0-27.733333-27.733334H263.978667a27.733333 27.733333 0 0 0-27.733334 27.733334V495.104l-38.997333 30.762667a27.733333 27.733333 0 0 0 34.304 43.562666l221.098667-174.208 0.810666-0.682666c8.106667-6.912 18.474667-13.866667 28.714667-16.384 8.362667-2.048 17.152-1.536 27.562667 8.021333a29.141333 29.141333 0 0 1 9.173333 13.482667 21.333333 21.333333 0 0 1-0.042667 10.922666 45.781333 45.781333 0 0 1-8.96 17.194667l-130.304 97.706667a27.733333 27.733333 0 0 0 33.28 44.373333l59.733334-44.8a27.776 27.776 0 0 0 6.314666 0.725333h192.810667L550.826667 635.648H181.333333a27.733333 27.733333 0 0 0-27.733333 27.733333z m589.653333-193.066666h-197.674666a27.648 27.648 0 0 0 2.56-2.261334c6.528-6.485333 19.413333-22.784 24.618666-44.458666 5.845333-24.021333 1.664-53.248-25.429333-78.208-25.514667-23.466667-53.930667-27.136-78.421333-21.077334-22.357333 5.546667-40.405333 18.688-51.029334 27.648l-126.165333 99.413334v-289.322667H814.933333V470.314667h-71.296a23.893333 23.893333 0 0 0-0.341333 0z"/></svg>