<?xml version="1.0" standalone="no"?><!DOCTYPE svg PUBLIC "-//W3C//DTD SVG 1.1//EN"
        "http://www.w3.org/Graphics/SVG/1.1/DTD/svg11.dtd"><svg viewBox="0 0 1024 1024" version="1.1" xmlns="http://www.w3.org/2000/svg" xmlns:xlink="http://www.w3.org/1999/xlink"><path transform="scale(1, -1) translate(0, -1024)" d="M358.4 610.133333a72.533333 72.533333 0 1 1 0-145.066666 72.533333 72.533333 0 0 1 0 145.066666zM226.133333 537.6a132.266667 132.266667 0 1 0 264.533334 0 132.266667 132.266667 0 0 0-264.533334 0zM665.6 302.933333a72.533333 72.533333 0 1 1 0-145.066666 72.533333 72.533333 0 0 1 0 145.066666z m-132.266667-72.533333a132.266667 132.266667 0 1 0 264.533334 0 132.266667 132.266667 0 0 0-264.533334 0zM197.632 409.429333a29.866667 29.866667 0 0 0 29.056 1.28l99.541333-49.749333a29.866667 29.866667 0 1 0-26.709333-53.461333l-51.541333 25.813333A268.885333 268.885333 0 0 1 512 115.2a29.866667 29.866667 0 1 0 0-59.733333A328.533333 328.533333 0 0 0 183.466667 384a29.866667 29.866667 0 0 0 14.165333 25.429333zM482.133333 682.666667a29.866667 29.866667 0 0 0 29.866667 29.866666 328.533333 328.533333 0 0 0 328.533333-328.533333 29.866667 29.866667 0 0 0-43.221333-26.709333l-99.541333 49.749333a29.866667 29.866667 0 1 0 26.709333 53.461333l51.541333-25.770666A268.885333 268.885333 0 0 1 512 652.757333a29.866667 29.866667 0 0 0-29.866667 29.866667z"/></svg>