<?xml version="1.0" standalone="no"?><!DOCTYPE svg PUBLIC "-//W3C//DTD SVG 1.1//EN"
        "http://www.w3.org/Graphics/SVG/1.1/DTD/svg11.dtd"><svg viewBox="0 0 1024 1024" version="1.1" xmlns="http://www.w3.org/2000/svg" xmlns:xlink="http://www.w3.org/1999/xlink"><path transform="scale(1, -1) translate(0, -1024)" d="M257.109333 362.24a322.218667 322.218667 0 0 1-65.322666-49.92 29.866667 29.866667 0 1 0-42.24 42.24 381.866667 381.866667 0 0 0 77.952 59.562667c31.957333 18.261333 70.869333 33.450667 111.744 33.450666 20.906667 0 46.592-5.077333 72.32-12.117333 26.197333-7.253333 54.485333-17.109333 81.152-28.032 26.709333-10.88 52.352-22.997333 73.344-34.816a290.133333 290.133333 0 0 0 28.288-17.92c7.765333-5.674667 15.786667-12.501333 21.632-20.181333 14.122667-18.901333 12.8-39.850667 6.826666-55.808v-0.085334c13.952 2.688 28.757333 5.504 43.818667 8.32 33.792 6.357333 68.778667 12.714667 97.536 17.493334 27.306667 4.565333 52.394667 8.32 63.872 8.32 13.098667 0 27.306667-3.285333 38.656-13.226667 11.861333-10.325333 16.512-24.448 16.512-37.717333 0-24.277333-14.890667-48.341333-34.048-67.498667a670.037333 670.037333 0 0 0-106.24-84.138667c-47.616-30.293333-108.373333-59.434667-167.68-59.434666-55.637333 0-101.589333 13.994667-140.117333 26.794666l-10.666667 3.584c-34.645333 11.648-60.117333 20.181333-85.205333 20.181334H170.666667l-0.042667 29.866666v29.866667h168.533333c35.584 0 70.826667-11.946667 103.338667-22.954667l11.52-3.84c37.333333-12.458667 75.648-23.765333 121.173333-23.765333 41.813333 0 90.624 21.461333 135.68 50.090667a611.114667 611.114667 0 0 1 96 75.989333c5.888 5.888 9.984 11.264 12.672 15.786667-9.386667-1.109333-24.96-3.413333-45.653333-6.826667-28.117333-4.693333-62.634667-10.965333-96.298667-17.28a11970.858667 11970.858667 0 0 1-119.381333-23.04l-10.837333-2.133333-5.930667 29.226666 5.888-29.269333a29.824 29.824 0 0 0-15.317333 0.938667l-101.12 33.706666a29.866667 29.866667 0 1 0 18.858666 56.704l86.4-28.8c5.674667 4.565333 12.373333 10.368 18.261334 16.64 6.869333 7.338667 10.88 13.397333 12.373333 17.493334l0.170667 0.256a70.229333 70.229333 0 0 1-7.936 6.528 230.741333 230.741333 0 0 1-22.357334 14.08c-18.261333 10.325333-41.6 21.376-66.56 31.573333a680.618667 680.618667 0 0 1-74.453333 25.728c-24.064 6.613333-43.648 9.984-56.448 9.984-26.581333 0-55.04-10.112-82.133333-25.6z m573.141334-109.397333h-0.085334zM170.666667 131.157333v29.866667a29.866667 29.866667 0 1 1 0.042666-59.733333l-0.042666 29.866666zM402.773333 653.696c0 2.133333 1.749333 3.84 3.84 3.84h88.149334v-121.813333a29.866667 29.866667 0 0 1 29.866666-29.866667h168.533334a29.866667 29.866667 0 0 1 29.866666 29.866667V657.493333h88.149334c2.133333 0 3.84-1.706667 3.84-3.84V384a29.866667 29.866667 0 1 1 59.733333 0V653.696a63.573333 63.573333 0 0 1-63.573333 63.573333H406.656a63.573333 63.573333 0 0 1-63.573333-63.573333v-134.826667a29.866667 29.866667 0 1 1 59.733333 0V653.653333z m260.565334 3.84v-91.946667h-108.8V657.493333h108.8z"/></svg>