<?xml version="1.0" standalone="no"?><!DOCTYPE svg PUBLIC "-//W3C//DTD SVG 1.1//EN" "http://www.w3.org/Graphics/SVG/1.1/DTD/svg11.dtd"><svg t="1624252438360" class="icon" viewBox="0 0 1024 1024" version="1.1" xmlns="http://www.w3.org/2000/svg" p-id="4165" xmlns:xlink="http://www.w3.org/1999/xlink" width="200" height="200"><defs><style type="text/css"></style></defs><path d="M691.867648 361.771008c-149.82656 90.4448-289.47968 162.56-381.237248 207.617024L164.692992 569.388032 0 402.153472l74.642432-25.547776 137.865216 52.473856 42.842112 21.380096c30.60224-24.022016 67.37408-52.343808 107.820032-82.518016L184.942592 79.868928l0.211968-1.195008c-1.001472-10.698752-0.114688-21.643264 5.168128-31.931392 14.931968-29.07648 50.866176-40.69376 80.237568-25.959424l319.212544 160.08192c8.155136 4.102144 14.227456 10.140672 19.296256 16.835584C794.011648 81.463296 975.785984-0.08704 1020.30336 92.391424 1044.52096 142.69952 973.19424 191.95904 691.867648 361.771008zM462.114816 611.264512c0.525312-7.498752 1.656832-14.487552 2.363392-21.838848 22.938624-12.01152 46.927872-24.761344 72.000512-38.396928-2.659328 19.575808-4.841472 39.626752-5.955584 60.235776l186.876928 0c-2.888704-54.8864-11.618304-107.19744-24.82688-148.842496 10.862592-6.431744 21.69344-12.81536 32.669696-19.442688 8.516608-5.137408 16.244736-9.829376 24.367104-14.751744 20.658176 50.783232 35.16416 113.301504 40.085504 183.036928l111.381504 0c-13.70112-82.599936-63.30368-153.025536-132.368384-194.588672 25.547776-15.507456 48.832512-29.766656 70.50752-43.15648 85.914624 65.142784 141.672448 167.991296 141.672448 284.116992 0 192.7168-152.928256 349.32224-344.005632 356.081664-2.281472 0.212992-4.560896 0.738304-6.87616 0.738304-0.836608 0-1.673216-0.2304-2.526208-0.262144-1.11616 0-2.199552 0.162816-3.332096 0.162816-187.220992 0-340.461568-144.313344-355.26144-327.711744 32.422912-15.145984 86.013952-40.808448 153.486336-75.380736L462.114816 611.264512zM903.620608 678.013952 791.56736 678.013952c-1.903616 92.332032-19.329024 173.553664-46.747648 232.8064C833.604608 868.48512 896.057344 780.961792 903.620608 678.013952zM624.346112 938.27072c55.380992 0 90.002432-130.59584 93.889536-260.256768L529.668096 678.013952C533.641216 807.67488 568.967168 938.27072 624.346112 938.27072zM513.390592 915.546112c-30.584832-59.644928-50.817024-142.739456-52.982784-237.53216L344.82688 678.013952C352.654336 784.785408 419.419136 875.147264 513.390592 915.546112z" p-id="4166"></path></svg>