<?xml version="1.0" standalone="no"?><!DOCTYPE svg PUBLIC "-//W3C//DTD SVG 1.1//EN" "http://www.w3.org/Graphics/SVG/1.1/DTD/svg11.dtd"><svg t="1624253424262" class="icon" viewBox="0 0 1024 1024" version="1.1" xmlns="http://www.w3.org/2000/svg" p-id="2098" xmlns:xlink="http://www.w3.org/1999/xlink" width="200" height="200"><defs><style type="text/css"></style></defs><path d="M906.24 128H117.76C51.2 128 0 179.2 0 245.76v532.48c0 66.56 51.2 117.76 117.76 117.76h788.48c66.56 0 117.76-51.2 117.76-117.76V245.76c0-66.56-51.2-117.76-117.76-117.76z m-250.88 235.52H819.2c15.36 0 25.6 15.36 25.6 30.72s-10.24 30.72-25.6 30.72h-163.84c-15.36 0-25.6-15.36-25.6-30.72s15.36-30.72 25.6-30.72z m0 133.12H819.2c15.36 0 25.6 15.36 25.6 30.72s-10.24 30.72-25.6 30.72h-163.84c-15.36 0-25.6-15.36-25.6-30.72s15.36-30.72 25.6-30.72zM122.88 721.92c-10.24 0-20.48-15.36-20.48-25.6 15.36-81.92 76.8-138.24 148.48-163.84-35.84-20.48-66.56-61.44-66.56-107.52C184.32 358.4 240.64 302.08 307.2 302.08S435.2 358.4 435.2 424.96c0 46.08-25.6 87.04-66.56 107.52 76.8 20.48 133.12 81.92 148.48 163.84 0 10.24-5.12 25.6-20.48 25.6h-5.12m404.48-35.84h-240.64c-15.36 0-25.6-15.36-25.6-30.72s10.24-30.72 25.6-30.72h240.64c15.36 0 25.6 15.36 25.6 30.72s-10.24 30.72-25.6 30.72z" p-id="2099"></path></svg>