<?xml version="1.0" standalone="no"?><!DOCTYPE svg PUBLIC "-//W3C//DTD SVG 1.1//EN" "http://www.w3.org/Graphics/SVG/1.1/DTD/svg11.dtd"><svg t="1624253311614" class="icon" viewBox="0 0 1064 1024" version="1.1" xmlns="http://www.w3.org/2000/svg" p-id="1326" xmlns:xlink="http://www.w3.org/1999/xlink" width="207.8125" height="200"><defs><style type="text/css"></style></defs><path d="M604.16 835.584c0-86.016 69.632-112.64 69.632-112.64-10.24-36.864 4.096-77.824 34.816-100.352C655.36 589.824 593.92 573.44 530.432 573.44h-198.656C149.504 573.44 0 722.944 0 905.216v20.48c0 96.256 147.456 96.256 333.824 96.256H532.48c53.248 0 104.448 0 149.504-2.048-12.288-20.48-14.336-47.104-8.192-69.632-47.104-20.48-69.632-57.344-69.632-114.688zM675.84 245.76c0-135.168-110.592-245.76-245.76-245.76S184.32 110.592 184.32 245.76s110.592 245.76 245.76 245.76 245.76-110.592 245.76-245.76z m313.344 489.472c0-8.192 2.048-16.384 6.144-22.528 6.144-14.336 2.048-32.768-12.288-40.96l-16.384-10.24-16.384-10.24c-14.336-8.192-32.768-4.096-40.96 10.24-8.192 14.336-24.576 22.528-43.008 22.528-18.432 0-32.768-8.192-43.008-22.528-10.24-12.288-26.624-18.432-40.96-10.24l-18.432 10.24-16.384 10.24c-14.336 8.192-20.48 26.624-12.288 40.96 4.096 6.144 6.144 14.336 6.144 22.528 0 26.624-20.48 49.152-47.104 49.152-16.384 2.048-28.672 14.336-28.672 30.72v38.912c0 16.384 12.288 30.72 28.672 30.72 26.624 2.048 47.104 22.528 47.104 49.152 0 8.192-2.048 16.384-6.144 22.528-6.144 14.336-2.048 32.768 12.288 40.96l32.768 18.432c14.336 8.192 32.768 4.096 40.96-10.24 8.192-14.336 24.576-22.528 43.008-22.528 18.432 0 32.768 10.24 43.008 22.528 10.24 12.288 26.624 18.432 40.96 10.24l32.768-18.432c14.336-8.192 20.48-26.624 12.288-40.96 0 0 0-2.048-2.048-2.048-2.048-6.144-4.096-12.288-4.096-18.432 0-26.624 20.48-49.152 47.104-49.152 16.384-2.048 28.672-14.336 28.672-30.72v-38.912c2.048-16.384-12.288-28.672-28.672-30.72-24.576-2.048-45.056-24.576-45.056-51.2z m-63.488 151.552c-12.288 12.288-26.624 22.528-45.056 26.624-4.096 0-8.192 2.048-14.336 2.048-4.096 0-10.24 0-14.336-2.048-18.432-4.096-34.816-12.288-45.056-26.624-6.144-6.144-10.24-14.336-14.336-24.576-4.096-8.192-4.096-16.384-4.096-26.624s2.048-18.432 4.096-26.624c4.096-8.192 8.192-16.384 14.336-24.576 12.288-14.336 26.624-22.528 47.104-26.624 4.096 0 8.192-2.048 14.336-2.048 4.096 0 10.24 0 14.336 2.048 18.432 4.096 34.816 12.288 47.104 26.624 6.144 6.144 10.24 14.336 14.336 24.576 4.096 8.192 4.096 16.384 4.096 26.624 0 8.192-2.048 18.432-4.096 26.624-8.192 8.192-14.336 16.384-18.432 24.576z" p-id="1327"></path></svg>