<?xml version="1.0" standalone="no"?><!DOCTYPE svg PUBLIC "-//W3C//DTD SVG 1.1//EN" "http://www.w3.org/Graphics/SVG/1.1/DTD/svg11.dtd"><svg t="1624253438114" class="icon" viewBox="0 0 1024 1024" version="1.1" xmlns="http://www.w3.org/2000/svg" p-id="2226" xmlns:xlink="http://www.w3.org/1999/xlink" width="200" height="200"><defs><style type="text/css"></style></defs><path d="M430.592 446.976h232.96c11.776 0 22.016 7.68 26.112 18.432l22.528 68.096c4.608 14.336-3.072 29.696-17.408 34.304-2.56 1.024-5.632 1.536-8.704 1.536H477.696l6.656 17.92c6.144 15.872 21.504 26.112 38.4 26.624h257.024l3.584 1.024c38.912 10.24 61.44 37.888 61.44 77.824 0 39.424-21.504 67.584-59.904 80.384l-4.096 1.536H475.648c-64 0-110.08-23.04-133.632-69.632-19.456-38.4-73.728-201.216-165.376-494.08l-0.512-2.56c-12.288-60.416 2.048-102.4 47.616-113.664 36.352-9.216 65.024 5.632 83.968 33.28 8.192 12.288 13.824 25.6 17.408 39.936l105.472 279.04zM777.728 958.976H443.904c-36.352 0-66.56-29.696-66.56-66.56 0-36.352 29.696-66.56 66.56-66.56h333.824c36.352 0 66.56 29.696 66.56 66.56 0 36.352-29.696 66.56-66.56 66.56z" p-id="2227"></path></svg>