<?xml version="1.0" standalone="no"?><!DOCTYPE svg PUBLIC "-//W3C//DTD SVG 1.1//EN" "http://www.w3.org/Graphics/SVG/1.1/DTD/svg11.dtd"><svg t="1624253468428" class="icon" viewBox="0 0 1024 1024" version="1.1" xmlns="http://www.w3.org/2000/svg" p-id="2482" xmlns:xlink="http://www.w3.org/1999/xlink" width="200" height="200"><defs><style type="text/css"></style></defs><path d="M901.12 389.12c-30.72-81.92-97.28-163.84-168.96-204.8-5.12-5.12-87.04-61.44-220.16-61.44-97.28 0-184.32 30.72-245.76 81.92-66.56 51.2-117.76 112.64-143.36 184.32-61.44 5.12-107.52 51.2-107.52 107.52s46.08 97.28 107.52 107.52c51.2 163.84 204.8 276.48 389.12 276.48 184.32 0 343.04-112.64 389.12-276.48 61.44-5.12 112.64-51.2 112.64-107.52 0-51.2-51.2-97.28-112.64-107.52zM128 558.08c-40.96 0-71.68-30.72-71.68-61.44s35.84-56.32 71.68-56.32c0 15.36 0 30.72-5.12 46.08 0 25.6 0 51.2 5.12 71.68z m312.32-281.6c10.24-5.12 20.48-5.12 30.72 0 20.48 20.48 51.2 30.72 81.92 20.48 30.72-5.12 51.2-30.72 56.32-56.32 10.24-40.96-20.48-76.8-61.44-87.04-10.24 0-20.48-10.24-15.36-20.48 0-10.24 15.36-15.36 25.6-15.36 66.56 20.48 107.52 76.8 92.16 138.24-15.36 61.44-76.8 97.28-143.36 87.04-25.6-5.12-51.2-15.36-66.56-35.84-5.12-10.24-5.12-20.48 0-30.72zM332.8 491.52c0-25.6 20.48-46.08 51.2-46.08 25.6 0 51.2 20.48 51.2 46.08s-20.48 46.08-51.2 46.08-51.2-20.48-51.2-46.08z m307.2 163.84c-46.08 35.84-92.16 46.08-128 46.08-56.32 0-102.4-25.6-122.88-51.2-5.12-5.12-5.12-10.24-5.12-15.36 0-5.12 5.12-10.24 10.24-15.36 0-5.12 5.12-5.12 15.36-5.12 5.12 0 15.36 5.12 15.36 10.24 10.24 10.24 81.92 76.8 184.32 0 10.24-10.24 25.6-5.12 35.84 5.12 10.24 0 10.24 15.36-5.12 25.6z m30.72-117.76c-25.6 0-51.2-20.48-51.2-46.08s20.48-46.08 51.2-46.08c25.6 0 51.2 20.48 51.2 46.08s-20.48 46.08-51.2 46.08z m245.76 20.48c-5.12 0-5.12 0 0 0h-15.36V486.4c0-15.36-5.12-35.84-10.24-51.2 40.96 0 81.92 25.6 87.04 56.32 5.12 35.84-25.6 66.56-61.44 66.56z" p-id="2483"></path></svg>