<?xml version="1.0" standalone="no"?><!DOCTYPE svg PUBLIC "-//W3C//DTD SVG 1.1//EN" "http://www.w3.org/Graphics/SVG/1.1/DTD/svg11.dtd"><svg t="1624253410821" class="icon" viewBox="0 0 1024 1024" version="1.1" xmlns="http://www.w3.org/2000/svg" p-id="1970" xmlns:xlink="http://www.w3.org/1999/xlink" width="200" height="200"><defs><style type="text/css"></style></defs><path d="M775.273768 410.02071v-103.16928H248.559151v103.16928h526.714617z m0 203.818396V513.189991H248.559151v100.649115h526.714617z m-157.510352 206.18105V716.929631H248.559151v103.169281h369.204265zM511.916459 103.190544a50.403313 50.403313 0 0 0-36.542402 14.727218 47.883147 47.883147 0 0 0-15.120993 35.59734 51.899661 51.899661 0 0 0 15.120993 36.857422c9.214356 10.238173 22.52398 16.066056 36.542402 15.987301a48.276923 48.276923 0 0 0 36.542402-15.987301 51.899661 51.899661 0 0 0 15.120994-36.857422 47.883147 47.883147 0 0 0-15.120994-35.59734A50.403313 50.403313 0 0 0 511.916459 103.190544z m366.6841 0c28.509374 0 53.396009 10.238173 74.344886 30.714519 20.948877 20.476346 31.50207 44.654185 31.50207 72.454762v714.466957c0 27.800577-10.553194 51.978416-31.50207 72.454762a103.01177 103.01177 0 0 1-74.344886 30.635763H145.23236a103.01177 103.01177 0 0 1-74.344887-30.714519 97.892684 97.892684 0 0 1-31.50207-72.454761V206.359825c0-27.800577 10.553194-51.978416 31.50207-72.454762 19.373773-19.767549 46.308043-30.872029 74.344887-30.714519h219.25441c10.868214-30.241988 29.611946-55.049868 56.073685-74.266131A150.894917 150.894917 0 0 1 511.916459 0.021264a155.226452 155.226452 0 0 1 147.42969 103.16928h219.25441z" p-id="1971"></path></svg>