<?xml version="1.0" standalone="no"?><!DOCTYPE svg PUBLIC "-//W3C//DTD SVG 1.1//EN" "http://www.w3.org/Graphics/SVG/1.1/DTD/svg11.dtd"><svg t="1624255777536" class="icon" viewBox="0 0 1024 1024" version="1.1" xmlns="http://www.w3.org/2000/svg" p-id="10969" xmlns:xlink="http://www.w3.org/1999/xlink" width="200" height="200"><defs><style type="text/css"></style></defs><path d="M741.433821 284.567229h224.655195L684.508429 2.986642v224.714927a56.925392 56.925392 0 0 0 56.925392 56.86566z m-7.765268 11.946567a62.838943 62.838943 0 0 1-62.77921-62.77921V0H170.686578A113.791052 113.791052 0 0 0 56.895526 113.791052v796.417896a113.791052 113.791052 0 0 0 113.791052 113.791052h682.626844a113.791052 113.791052 0 0 0 113.492388-113.791052V296.215132zM149.839818 710.820743a16.42653 16.42653 0 0 1-7.944467-4.360497c-11.528437-11.468704 0-39.244473 6.988742-53.759552a34.824243 34.824243 0 0 1 15.530537-14.455346c23.236073-10.75191 75.20364-35.839701 85.836085-25.028058 2.74771 2.867176 2.74771 8.063933-1.433588 16.665461a285.045091 285.045091 0 0 0-28.791227 97.424255z m207.034008 119.465671a34.406113 34.406113 0 0 1-14.395613 15.530538c-14.813743 7.287406-42.589512 18.576912-54.117949 7.048474a17.919851 17.919851 0 0 1-4.241032-8.0042l-16.247331-70.126349a285.64242 285.64242 0 0 0 97.364522-28.850959c8.661261-4.181298 13.917751-4.181298 16.665461-1.373856 10.692178 10.692178-14.395613 62.600012-25.028058 85.776352z m197.118357-66.124249s2.867176 49.339322-9.91565 78.488946-27.058975 56.925392-33.032258 58.597912a9.676719 9.676719 0 0 1-9.796185-2.986642 26.103249 26.103249 0 0 1-5.973284-9.497521s-61.644286-174.778277-69.94715-198.850609c-119.465671 83.62597-161.278656 64.989325-169.641253 59.016041a14.992942 14.992942 0 0 1-1.851718-1.553053l-4.42023-4.479963a10.393513 10.393513 0 0 1-1.493321-1.732252c-5.973284-8.541795-25.087791-50.653445 59.732836-170.596979l-202.01645-71.679402a27.536837 27.536837 0 0 1-9.437788-5.973284A9.796185 9.796185 0 0 1 93.452021 483.835968c1.672519-5.973284 29.388555-20.368897 58.597912-33.091991s78.548679-9.855918 78.548679-9.855918l179.198506 5.973284C492.945225 356.605028 561.040658 310.192615 612.0525 309.177157a70.962609 70.962609 0 0 1 51.429971 19.353439l2.449046 2.32958a31.300006 31.300006 0 0 1 2.269848 2.449046 70.186082 70.186082 0 0 1 19.353439 51.429972c-1.015458 51.429971-48.144665 120.242198-140.013767 204.704427zM839.395672 824.850726H628.180365a23.893134 23.893134 0 0 1 0-47.786268H839.395672a23.893134 23.893134 0 0 1 0 47.786268z m23.893134-111.461471a21.623286 21.623286 0 0 1-21.623287 21.623287H625.910517a21.623286 21.623286 0 0 1-21.623286-21.623287v-4.479963a21.623286 21.623286 0 0 1 21.623286-21.683019h215.575804a21.623286 21.623286 0 0 1 21.623286 21.683019z m0-89.599253a21.623286 21.623286 0 0 1-21.623287 21.623286H625.910517a21.623286 21.623286 0 0 1-21.623286-21.623286v-4.479963a21.623286 21.623286 0 0 1 21.623286-21.981683h215.575804a21.623286 21.623286 0 0 1 21.623286 21.683019z" p-id="10970"></path></svg>