<?xml version="1.0" standalone="no"?><!DOCTYPE svg PUBLIC "-//W3C//DTD SVG 1.1//EN" "http://www.w3.org/Graphics/SVG/1.1/DTD/svg11.dtd"><svg t="1624253398889" class="icon" viewBox="0 0 1024 1024" version="1.1" xmlns="http://www.w3.org/2000/svg" p-id="1842" xmlns:xlink="http://www.w3.org/1999/xlink" width="200" height="200"><defs><style type="text/css"></style></defs><path d="M955.087568 676.365838a20.756757 20.756757 0 0 1 20.784432 20.756757v290.594594a20.756757 20.756757 0 0 1-20.756757 20.756757h-62.27027v-13.810162a20.756757 20.756757 0 0 0-20.756757-20.756757h-124.54054a20.756757 20.756757 0 0 0-20.756757 20.756757v13.837838H41.79027a20.756757 20.756757 0 0 1-20.756756-20.784433v-290.594594a20.756757 20.756757 0 0 1 20.756756-20.756757h20.756757v-311.351352a20.756757 20.756757 0 0 1 20.756757-20.756756h12.730811L63.654054 247.033081a20.67373 20.67373 0 0 1-1.079351-6.559135v-83.027027a20.756757 20.756757 0 0 1 20.756756-20.756757h103.783784v-103.783784a20.756757 20.756757 0 0 1 41.513514 0v103.866811h103.783784a20.756757 20.756757 0 0 1 20.756756 20.756757v82.833297c0 2.214054-0.359784 4.428108-1.079351 6.559135l-32.380541 97.224649h12.703136a20.756757 20.756757 0 0 1 20.756756 20.756757V676.393514h207.567568v-62.270271a20.756757 20.756757 0 0 1 20.756757-20.756757h249.081081a20.756757 20.756757 0 0 1 20.756756 20.756757v62.242595h103.783784z m-726.458811 186.810811v-83.027027a20.756757 20.756757 0 0 0-20.756757-20.756757h-83.027027a20.756757 20.756757 0 0 0-20.756757 20.756757v83.027027c0 11.45773 9.271351 20.756757 20.756757 20.756756h83.027027a20.756757 20.756757 0 0 0 20.756757-20.756756z m20.756757-601.945946a20.756757 20.756757 0 1 0 0-41.513514H166.413838a20.756757 20.756757 0 1 0 0 41.513514H249.357838z m186.81081 601.945946v-83.027027a20.756757 20.756757 0 0 0-20.756756-20.756757h-83.027027a20.756757 20.756757 0 0 0-20.756757 20.756757v83.027027c0 11.45773 9.299027 20.756757 20.756757 20.756756h83.027027a20.756757 20.756757 0 0 0 20.756756-20.756756z m207.567568 0v-83.027027a20.756757 20.756757 0 0 0-20.756757-20.756757h-83.027027a20.756757 20.756757 0 0 0-20.756757 20.756757v83.027027c0 11.45773 9.271351 20.756757 20.756757 20.756756h83.027027a20.756757 20.756757 0 0 0 20.756757-20.756756zM1001.721081 197.050811v0.083027a37.251459 37.251459 0 0 1 0.470487 60.332973l-411.260541 209.117405a44.613189 44.613189 0 0 1-22.33427 5.258379c-52.500757 0-147.705081-75.554595-166.27546-90.720865a20.756757 20.756757 0 0 1 13.118271-36.808649h41.568864c10.544432 1.107027 20.978162 3.321081 31.10746 6.503784 18.127568 4.428108 54.46573 13.312 67.058162 14.52973l101.708108-52.860541-129.328432-97.003243a20.756757 20.756757 0 0 1 11.90054-37.362162l61.44-1.743568a181.801514 181.801514 0 0 1 101.209946 30.996757L774.918919 245.483243l3.487135-2.075675 117.649297-55.296a100.102919 100.102919 0 0 1 105.66573 8.939243z" p-id="1843"></path></svg>