<?xml version="1.0" standalone="no"?><!DOCTYPE svg PUBLIC "-//W3C//DTD SVG 1.1//EN" "http://www.w3.org/Graphics/SVG/1.1/DTD/svg11.dtd"><svg t="1624253356413" class="icon" viewBox="0 0 1024 1024" version="1.1" xmlns="http://www.w3.org/2000/svg" p-id="1584" xmlns:xlink="http://www.w3.org/1999/xlink" width="200" height="200"><defs><style type="text/css"></style></defs><path d="M512 968.704H156.672c-38.912 0-101.376 0-101.376-75.776s64.512-114.688 101.376-126.976c112.64-37.888 169.984-74.752 191.488-133.12-83.968-50.176-141.312-153.6-141.312-272.384C207.872 191.488 321.536 55.296 460.8 55.296c140.288 0 253.952 136.192 253.952 304.128 0 17.408-1.024 33.792-3.072 51.2-110.592 2.048-199.68 92.16-199.68 202.752v355.328z m0 0" p-id="1585"></path><path d="M816.128 664.576v-51.2c0-27.648-22.528-50.176-51.2-50.176s-51.2 22.528-51.2 50.176v51.2h102.4z m-202.752 0v-51.2c0-83.968 68.608-152.576 152.576-152.576s152.576 68.608 152.576 152.576v51.2c27.648 0 50.176 22.528 50.176 50.176v203.776c0 27.648-22.528 50.176-50.176 50.176H613.376c-27.648 0-50.176-22.528-50.176-50.176V714.752c0-27.648 22.528-50.176 50.176-50.176z m0 0" p-id="1586"></path></svg>