<?xml version="1.0" standalone="no"?><!DOCTYPE svg PUBLIC "-//W3C//DTD SVG 1.1//EN" "http://www.w3.org/Graphics/SVG/1.1/DTD/svg11.dtd"><svg t="1624253456983" class="icon" viewBox="0 0 1024 1024" version="1.1" xmlns="http://www.w3.org/2000/svg" p-id="2354" xmlns:xlink="http://www.w3.org/1999/xlink" width="200" height="200"><defs><style type="text/css"></style></defs><path d="M980.0183 224.112244c0 0 0.574075-14.023388-15.742543-28.684296-32.064276-28.783557-86.443791-76.706009-103.050004-93.320409-9.335622-9.325389-30.807656-14.801101-45.104267 0.194428-13.639648 14.306844-7.68503 33.096792 2.373047 42.705638 14.351869 13.658068 46.630017 40.611953 65.051575 60.823274-15.313777 18.903535-40.666188 38.71679-56.469106 56.19486-2.030239 2.178619-1.945305 4.682649-1.919722 5.909593 0.065492 9.998725 0.458441 16.875343 0.39295 21.089317-0.068562 3.670599 4.244674 5.006014 6.149047 5.006014l80.025615 0c5.370311 0 6.751774 5.395894 6.751774 5.395894l0 515.266393c0 28.768207-15.642259 37.829584-31.69077 37.829584-16.056698 0-33.146934-9.131985-33.146934-37.829584L853.638961 393.416208c0-38.192857-4.207835-55.477522-47.303352-57.786101-10.547217-0.557702-52.973492-0.154519-75.977415 0L730.358193 67.021439c0-35.415604-28.718065-64.10911-64.123436-64.10911L171.144892 2.912329c-35.43914 0-64.138786 28.699646-64.138786 64.10911l0 861.124446L70.373791 928.145885c-14.601556 0-26.39516 11.808954-26.39516 26.374694l0 38.907125c0 14.58109 11.79872 27.66099 26.39516 27.66099l695.570899 0c14.570857 0 26.390044-13.074783 26.390044-27.66099l0-38.907125c0-14.56574-11.818163-26.374694-26.390044-26.374694l-35.585473 0 0-530.635429c12.950963 0.045025 31.096229 0 44.201711 0 15.768125 0 17.105586 15.648398 17.105586 15.648398l0 405.562852c0 103.514585 85.626169 104.506169 95.120404 104.506169 12.770861 0 93.231381 0 93.231381-103.213733C980.023416 800.729937 980.0183 224.112244 980.0183 224.112244L980.0183 224.112244zM615.355973 386.918213c0 23.611767-19.149129 42.745547-42.766013 42.745547L262.73489 429.66376c-23.606651 0-42.74043-19.133779-42.74043-42.745547L219.99446 160.561859c0-23.607674 19.133779-42.74657 42.74043-42.74657l309.854047 0c23.616884 0 42.766013 19.144012 42.766013 42.74657L615.354949 386.918213 615.355973 386.918213zM615.355973 386.918213" p-id="2355"></path></svg>