<?xml version="1.0" standalone="no"?><!DOCTYPE svg PUBLIC "-//W3C//DTD SVG 1.1//EN" "http://www.w3.org/Graphics/SVG/1.1/DTD/svg11.dtd"><svg t="1624253377300" class="icon" viewBox="0 0 1024 1024" version="1.1" xmlns="http://www.w3.org/2000/svg" p-id="1713" xmlns:xlink="http://www.w3.org/1999/xlink" width="200" height="200"><defs><style type="text/css"></style></defs><path d="M959.986986 328.762667h-48.949108a48.218524 48.218524 0 0 1-41.643271-73.058371l24.109262-42.373855a62.830199 62.830199 0 0 0-23.378678-86.208877L663.370003 8.767004A62.830199 62.830199 0 0 0 577.161126 32.145683L553.051864 73.05837a48.218524 48.218524 0 0 1-83.286543 0L445.656059 32.145683A62.830199 62.830199 0 0 0 359.447182 8.767004L151.96141 128.582732a62.830199 62.830199 0 0 0-23.378678 86.208877l24.109262 42.373855a48.218524 48.218524 0 0 1-41.643271 73.05837H62.830199a62.830199 62.830199 0 0 0-62.830199 61.369031v239.631455a62.830199 62.830199 0 0 0 62.830199 62.830198h48.949108a48.218524 48.218524 0 0 1 41.643271 73.058371l-24.109262 42.373855a62.830199 62.830199 0 0 0 23.378678 86.208877l206.755188 119.815727a62.830199 62.830199 0 0 0 86.208877-23.378679l24.109262-42.373854a48.218524 48.218524 0 0 1 83.286543 0l24.109262 42.373854a62.830199 62.830199 0 0 0 86.208877 23.378679l206.755188-119.815727a62.830199 62.830199 0 0 0 23.378678-86.208877l-24.109262-42.373855a48.218524 48.218524 0 0 1 41.643271-73.058371h48.949108a62.830199 62.830199 0 0 0 62.830199-62.830198V391.592865a62.830199 62.830199 0 0 0-62.830199-62.830198zM511.408592 767.112889A255.704296 255.704296 0 1 1 767.112889 511.408592 255.704296 255.704296 0 0 1 511.408592 767.112889z" p-id="1714"></path><path d="M511.408592 511.408592m-146.11674 0a146.116741 146.116741 0 1 0 292.233481 0 146.116741 146.116741 0 1 0-292.233481 0Z" p-id="1715"></path></svg>