<?xml version="1.0" standalone="no"?><!DOCTYPE svg PUBLIC "-//W3C//DTD SVG 1.1//EN" "http://www.w3.org/Graphics/SVG/1.1/DTD/svg11.dtd"><svg t="1610349571482" class="icon" viewBox="0 0 1024 1024" version="1.1" xmlns="http://www.w3.org/2000/svg" p-id="6172" xmlns:xlink="http://www.w3.org/1999/xlink" width="200" height="200"><defs><style type="text/css"></style></defs><path d="M512 512c-129.6 0-234.666667-105.066667-234.666667-234.666667S382.4 42.666667 512 42.666667s234.666667 105.066667 234.666667 234.666666-105.066667 234.666667-234.666667 234.666667z m0-85.333333a149.333333 149.333333 0 1 0 0-298.666667 149.333333 149.333333 0 0 0 0 298.666667z m444.096 302.165333c7.466667 16.256 12.714667 39.68 17.28 70.784a1016.725333 1016.725333 0 0 1 7.36 65.642667l0.490667 6.378666L981.333333 874.666667a106.666667 106.666667 0 0 1-106.538666 106.666666H149.205333A106.666667 106.666667 0 0 1 42.666667 874.666667l0.106666-3.029334 0.490667-6.378666a1147.029333 1147.029333 0 0 1 7.36-65.642667c4.565333-31.104 9.813333-54.528 17.28-70.784C100.693333 657.642667 342.08 554.666667 512 554.666667s411.306667 102.976 444.096 174.165333z m-81.856 32.512c-5.973333-5.226667-14.506667-11.498667-25.066667-18.282667-23.637333-15.210667-54.869333-31.466667-89.365333-46.186666C677.12 661.589333 588.437333 640 512 640s-165.098667 21.589333-247.808 56.874667c-34.496 14.72-65.728 30.976-89.365333 46.186666-10.538667 6.784-19.093333 13.056-25.066667 18.282667-2.218667 1.962667-3.925333 3.626667-5.056 4.885333-2.88 7.552-6.506667 24.341333-9.642667 45.781334-2.112 14.293333-3.904 29.738667-5.397333 45.226666-0.768 7.978667-1.322667 14.421333-1.642667 18.581334a21.333333 21.333333 0 0 0 21.184 20.181333h725.589334a21.333333 21.333333 0 0 0 21.184-20.181333c-0.32-4.16-0.853333-10.602667-1.642667-18.56a933.994667 933.994667 0 0 0-5.397333-45.248c-3.136-21.44-6.762667-38.229333-9.642667-45.781334a60.629333 60.629333 0 0 0-5.056-4.885333z" p-id="6173" fill="#1890ff"></path></svg>